G04 #@! TF.FileFunction,Legend,Bot*
%FSLAX46Y46*%
G04 Gerber Fmt 4.6, Leading zero omitted, Abs format (unit mm)*
G04 Created by KiCad (PCBNEW 4.0.7) date Monday, 02 July 2018 'PMt' 22:06:39*
%MOMM*%
%LPD*%
G01*
G04 APERTURE LIST*
%ADD10C,0.100000*%
G04 APERTURE END LIST*
D10*
G36*
X168670866Y-111736413D02*
X163839630Y-110651046D01*
X163840508Y-110751672D01*
X163841553Y-110846151D01*
X163842758Y-110934642D01*
X163844121Y-111017300D01*
X163845637Y-111094286D01*
X163847302Y-111165754D01*
X163849111Y-111231864D01*
X163851061Y-111292773D01*
X163853147Y-111348639D01*
X163855364Y-111399618D01*
X163857708Y-111445869D01*
X163860176Y-111487550D01*
X163862763Y-111524818D01*
X163865464Y-111557830D01*
X163868276Y-111586745D01*
X163871194Y-111611719D01*
X163874215Y-111632911D01*
X163877332Y-111650477D01*
X163880544Y-111664576D01*
X163883844Y-111675366D01*
X166477985Y-112257114D01*
X166482098Y-112271060D01*
X166486078Y-112289932D01*
X166489927Y-112313729D01*
X166493641Y-112342452D01*
X166497224Y-112376100D01*
X166500673Y-112414672D01*
X166503989Y-112458170D01*
X166507174Y-112506593D01*
X166510225Y-112559942D01*
X166513143Y-112618215D01*
X166515929Y-112681415D01*
X166518581Y-112749539D01*
X166521102Y-112822588D01*
X166523489Y-112900563D01*
X166525743Y-112983464D01*
X166527864Y-113071289D01*
X164480436Y-112637358D01*
X164488690Y-112735196D01*
X164495053Y-112827371D01*
X164499696Y-112913892D01*
X164502791Y-112994769D01*
X164504510Y-113070010D01*
X164505028Y-113139623D01*
X164504514Y-113203616D01*
X164503141Y-113262001D01*
X164501082Y-113314782D01*
X164498507Y-113361971D01*
X164495592Y-113403576D01*
X164492506Y-113439606D01*
X164489423Y-113470068D01*
X164486514Y-113494973D01*
X164483951Y-113514328D01*
X164481908Y-113528143D01*
X164480556Y-113536425D01*
X164480067Y-113539183D01*
X166527496Y-113973115D01*
X166527690Y-113976295D01*
X166528274Y-113985836D01*
X166529249Y-114001738D01*
X166530613Y-114024001D01*
X166532366Y-114052624D01*
X166534509Y-114087608D01*
X166537043Y-114128953D01*
X166539966Y-114176658D01*
X166543278Y-114230725D01*
X166546980Y-114291152D01*
X166551071Y-114357939D01*
X166555553Y-114431088D01*
X166560424Y-114510597D01*
X166565685Y-114596467D01*
X166571335Y-114688698D01*
X166577376Y-114787289D01*
X164245445Y-114248826D01*
X163335656Y-115134849D01*
X168072057Y-116185373D01*
X168074086Y-116181003D01*
X168075925Y-116175298D01*
X168077579Y-116168255D01*
X168079053Y-116159877D01*
X168080349Y-116150158D01*
X168081472Y-116139101D01*
X168082424Y-116126700D01*
X168083209Y-116112958D01*
X168083833Y-116097871D01*
X168084296Y-116081438D01*
X168084604Y-116063660D01*
X168084761Y-116044532D01*
X168084768Y-116024055D01*
X168084632Y-116002227D01*
X168084354Y-115979048D01*
X168083939Y-115954515D01*
X168083391Y-115928627D01*
X168082712Y-115901382D01*
X168081907Y-115872781D01*
X168080979Y-115842820D01*
X168079933Y-115811500D01*
X168078771Y-115778818D01*
X168077497Y-115744773D01*
X168076114Y-115709365D01*
X168074628Y-115672590D01*
X168073040Y-115634449D01*
X168071356Y-115594941D01*
X168069578Y-115554061D01*
X168067710Y-115511812D01*
X168065756Y-115468191D01*
X168063719Y-115423196D01*
X168061603Y-115376826D01*
X168059412Y-115329081D01*
X168057150Y-115279959D01*
X168054819Y-115229457D01*
X168052424Y-115177575D01*
X168049969Y-115124312D01*
X168047455Y-115069667D01*
X168044889Y-115013637D01*
X168042273Y-114956222D01*
X168039611Y-114897420D01*
X168036907Y-114837230D01*
X168034164Y-114775652D01*
X168031385Y-114712682D01*
X168028576Y-114648320D01*
X168025738Y-114582565D01*
X168022876Y-114515415D01*
X168019993Y-114446870D01*
X168017093Y-114376927D01*
X168014181Y-114305586D01*
X168011259Y-114232844D01*
X168008330Y-114158702D01*
X168005400Y-114083156D01*
X168002470Y-114006206D01*
X167999545Y-113927852D01*
X167996630Y-113848091D01*
X167993727Y-113766922D01*
X167990840Y-113684344D01*
X167987971Y-113600355D01*
X167985126Y-113514954D01*
X167982308Y-113428141D01*
X167979521Y-113339912D01*
X167976768Y-113250267D01*
X167974052Y-113159206D01*
X167971378Y-113066726D01*
X167968750Y-112972825D01*
X167966169Y-112877504D01*
X167963642Y-112780760D01*
X167961169Y-112682593D01*
X167958758Y-112583000D01*
X167956409Y-112481981D01*
X168015503Y-112421774D01*
X168073074Y-112363963D01*
X168128967Y-112308561D01*
X168183027Y-112255580D01*
X168235097Y-112205029D01*
X168285022Y-112156922D01*
X168332648Y-112111269D01*
X168377818Y-112068084D01*
X168420377Y-112027376D01*
X168460170Y-111989158D01*
X168497042Y-111953441D01*
X168530837Y-111920238D01*
X168561398Y-111889559D01*
X168588571Y-111861416D01*
X168612202Y-111835822D01*
X168632133Y-111812788D01*
X168648210Y-111792324D01*
X168660277Y-111774442D01*
X168668179Y-111759157D01*
X168671760Y-111746476D01*
X168670866Y-111736413D01*
X168670866Y-111736413D01*
G37*
G36*
X161245489Y-110069297D02*
X161338846Y-113711443D01*
X159291417Y-113277511D01*
X159295876Y-113354199D01*
X159299792Y-113429107D01*
X159303232Y-113502122D01*
X159306262Y-113573129D01*
X159308944Y-113642015D01*
X159311346Y-113708667D01*
X159313532Y-113772970D01*
X159315567Y-113834813D01*
X159317516Y-113894080D01*
X159319445Y-113950658D01*
X159321419Y-114004434D01*
X159323502Y-114055294D01*
X159325759Y-114103124D01*
X159328256Y-114147811D01*
X159331059Y-114189242D01*
X159334231Y-114227304D01*
X159337840Y-114261880D01*
X159341947Y-114292859D01*
X159346621Y-114320128D01*
X159351925Y-114343572D01*
X159357925Y-114363078D01*
X162833528Y-115109526D01*
X162833526Y-115108936D01*
X162833519Y-115107166D01*
X162833506Y-115104216D01*
X162833486Y-115100088D01*
X162833457Y-115094781D01*
X162833419Y-115088295D01*
X162833370Y-115080632D01*
X162833309Y-115071791D01*
X162833235Y-115061774D01*
X162833147Y-115050580D01*
X162833042Y-115038210D01*
X162832922Y-115024665D01*
X162832782Y-115009944D01*
X162832624Y-114994048D01*
X162832446Y-114976979D01*
X162832246Y-114958735D01*
X162832022Y-114939318D01*
X162831776Y-114918728D01*
X162831505Y-114896965D01*
X162831205Y-114874030D01*
X162830880Y-114849925D01*
X162830525Y-114824647D01*
X162830141Y-114798198D01*
X162829726Y-114770580D01*
X162829277Y-114741791D01*
X162828796Y-114711833D01*
X162828281Y-114680705D01*
X162827729Y-114648409D01*
X162827140Y-114614945D01*
X162826512Y-114580313D01*
X162825846Y-114544514D01*
X162825138Y-114507548D01*
X162824389Y-114469415D01*
X162823596Y-114430117D01*
X162822760Y-114389652D01*
X162821877Y-114348023D01*
X162820949Y-114305228D01*
X162819973Y-114261270D01*
X162818947Y-114216148D01*
X162817872Y-114169862D01*
X162816744Y-114122413D01*
X162815564Y-114073802D01*
X162814331Y-114024028D01*
X162813042Y-113973093D01*
X162811697Y-113920998D01*
X162810296Y-113867740D01*
X162808835Y-113813323D01*
X162807315Y-113757745D01*
X162805733Y-113701009D01*
X162804089Y-113643112D01*
X162802382Y-113584058D01*
X162800610Y-113523844D01*
X162798774Y-113462473D01*
X162796869Y-113399946D01*
X162794896Y-113336261D01*
X162792855Y-113271420D01*
X162790743Y-113205422D01*
X162788559Y-113138269D01*
X162786302Y-113069960D01*
X162783972Y-113000497D01*
X162781565Y-112929881D01*
X162779082Y-112858110D01*
X162776522Y-112785184D01*
X162773883Y-112711107D01*
X162771164Y-112635877D01*
X162768363Y-112559495D01*
X162765480Y-112481961D01*
X162762513Y-112403276D01*
X162759461Y-112323440D01*
X162756324Y-112242454D01*
X162753099Y-112160317D01*
X162749786Y-112077032D01*
X162746383Y-111992596D01*
X162742890Y-111907013D01*
X162739304Y-111820281D01*
X162735625Y-111732401D01*
X162731851Y-111643375D01*
X162727983Y-111553201D01*
X162724017Y-111461880D01*
X162719953Y-111369413D01*
X162715790Y-111275802D01*
X162711528Y-111181045D01*
X162707163Y-111085143D01*
X162702695Y-110988097D01*
X162698123Y-110889907D01*
X162693447Y-110790574D01*
X162688664Y-110690097D01*
X162683773Y-110588478D01*
X162678774Y-110485717D01*
X162673665Y-110381814D01*
X161245489Y-110069297D01*
X161245489Y-110069297D01*
G37*
G36*
X159555105Y-109713495D02*
X154723870Y-108628127D01*
X154724748Y-108728754D01*
X154725793Y-108823233D01*
X154726998Y-108911724D01*
X154728361Y-108994382D01*
X154729877Y-109071368D01*
X154731542Y-109142836D01*
X154733351Y-109208945D01*
X154735301Y-109269855D01*
X154737385Y-109325720D01*
X154739603Y-109376700D01*
X154741947Y-109422951D01*
X154744415Y-109464632D01*
X154747002Y-109501900D01*
X154749704Y-109534911D01*
X154752516Y-109563825D01*
X154755434Y-109588801D01*
X154758454Y-109609992D01*
X154761572Y-109627559D01*
X154764784Y-109641657D01*
X154768084Y-109652447D01*
X157362224Y-110234196D01*
X157366337Y-110248142D01*
X157370318Y-110267014D01*
X157374166Y-110290811D01*
X157377881Y-110319532D01*
X157381463Y-110353180D01*
X157384912Y-110391753D01*
X157388229Y-110435252D01*
X157391413Y-110483675D01*
X157394464Y-110537023D01*
X157397383Y-110595297D01*
X157400168Y-110658496D01*
X157402821Y-110726621D01*
X157405340Y-110799670D01*
X157407728Y-110877645D01*
X157409983Y-110960545D01*
X157412104Y-111048371D01*
X155364675Y-110614439D01*
X155372930Y-110712277D01*
X155379292Y-110804452D01*
X155383935Y-110890974D01*
X155387031Y-110971851D01*
X155388750Y-111047091D01*
X155389267Y-111116704D01*
X155388752Y-111180698D01*
X155387380Y-111239081D01*
X155385320Y-111291864D01*
X155382747Y-111339053D01*
X155379831Y-111380657D01*
X155376745Y-111416688D01*
X155373662Y-111447150D01*
X155370754Y-111472054D01*
X155368191Y-111491410D01*
X155366147Y-111505224D01*
X155364796Y-111513505D01*
X155364307Y-111516264D01*
X157411735Y-111950196D01*
X157411929Y-111953376D01*
X157412514Y-111962917D01*
X157413488Y-111978819D01*
X157414852Y-112001082D01*
X157416605Y-112029705D01*
X157418749Y-112064689D01*
X157421282Y-112106035D01*
X157424205Y-112153740D01*
X157427516Y-112207806D01*
X157431219Y-112268233D01*
X157435311Y-112335021D01*
X157439792Y-112408170D01*
X157444664Y-112487678D01*
X157449924Y-112573549D01*
X157455575Y-112665779D01*
X157461615Y-112764370D01*
X155129684Y-112225907D01*
X154219894Y-113111931D01*
X158956297Y-114162455D01*
X158958325Y-114158084D01*
X158960164Y-114152379D01*
X158961819Y-114145337D01*
X158963292Y-114136958D01*
X158964589Y-114127240D01*
X158965711Y-114116181D01*
X158966663Y-114103782D01*
X158967449Y-114090040D01*
X158968072Y-114074952D01*
X158968535Y-114058520D01*
X158968843Y-114040740D01*
X158969000Y-114021613D01*
X158969007Y-114001137D01*
X158968871Y-113979309D01*
X158968594Y-113956129D01*
X158968179Y-113931596D01*
X158967629Y-113905708D01*
X158966952Y-113878464D01*
X158966147Y-113849862D01*
X158965219Y-113819902D01*
X158964172Y-113788581D01*
X158963010Y-113755899D01*
X158961735Y-113721854D01*
X158960353Y-113686446D01*
X158958867Y-113649671D01*
X158957280Y-113611531D01*
X158955595Y-113572021D01*
X158953818Y-113531143D01*
X158951949Y-113488893D01*
X158949995Y-113445272D01*
X158947959Y-113400278D01*
X158945843Y-113353908D01*
X158943652Y-113306163D01*
X158941389Y-113257039D01*
X158939058Y-113206538D01*
X158936663Y-113154656D01*
X158934208Y-113101394D01*
X158931695Y-113046748D01*
X158929129Y-112990719D01*
X158926513Y-112933304D01*
X158923851Y-112874502D01*
X158921147Y-112814312D01*
X158918403Y-112752733D01*
X158915625Y-112689763D01*
X158912815Y-112625402D01*
X158909978Y-112559647D01*
X158907115Y-112492497D01*
X158904232Y-112423951D01*
X158901333Y-112354009D01*
X158898420Y-112282667D01*
X158895498Y-112209926D01*
X158892570Y-112135783D01*
X158889639Y-112060238D01*
X158886710Y-111983288D01*
X158883785Y-111904934D01*
X158880869Y-111825172D01*
X158877965Y-111744003D01*
X158875078Y-111661426D01*
X158872210Y-111577437D01*
X158869366Y-111492036D01*
X158866548Y-111405221D01*
X158863761Y-111316993D01*
X158861007Y-111227348D01*
X158858292Y-111136287D01*
X158855617Y-111043807D01*
X158852988Y-110949907D01*
X158850409Y-110854586D01*
X158847881Y-110757842D01*
X158845409Y-110659674D01*
X158842997Y-110560081D01*
X158840648Y-110459062D01*
X158902499Y-110395471D01*
X158962378Y-110333742D01*
X159020157Y-110274026D01*
X159075703Y-110216476D01*
X159128889Y-110161241D01*
X159179584Y-110108473D01*
X159227658Y-110058324D01*
X159272983Y-110010944D01*
X159315427Y-109966486D01*
X159354861Y-109925100D01*
X159391156Y-109886937D01*
X159424180Y-109852149D01*
X159453806Y-109820888D01*
X159479902Y-109793303D01*
X159502340Y-109769548D01*
X159520989Y-109749772D01*
X159535720Y-109734129D01*
X159546404Y-109722767D01*
X159552908Y-109715838D01*
X159555105Y-109713495D01*
X159555105Y-109713495D01*
G37*
G36*
X153485362Y-108385299D02*
X150439345Y-107690577D01*
X150437112Y-107787639D01*
X150435726Y-107879722D01*
X150435102Y-107966793D01*
X150435160Y-108048824D01*
X150435814Y-108125784D01*
X150436985Y-108197641D01*
X150438586Y-108264366D01*
X150440535Y-108325929D01*
X150442751Y-108382298D01*
X150445149Y-108433443D01*
X150447648Y-108479334D01*
X150450162Y-108519940D01*
X150452610Y-108555231D01*
X150454910Y-108585176D01*
X150456977Y-108609745D01*
X150458730Y-108628907D01*
X150460084Y-108642633D01*
X150460958Y-108650890D01*
X150461267Y-108653650D01*
X152341319Y-109079139D01*
X152380041Y-109087397D01*
X152417447Y-109099152D01*
X152453395Y-109114349D01*
X152487743Y-109132939D01*
X152520350Y-109154867D01*
X152551071Y-109180082D01*
X152579767Y-109208533D01*
X152606293Y-109240165D01*
X152630509Y-109274927D01*
X152652270Y-109312767D01*
X152671437Y-109353632D01*
X152687865Y-109397471D01*
X152701413Y-109444231D01*
X152711939Y-109493860D01*
X152719301Y-109546305D01*
X152723356Y-109601515D01*
X152723961Y-109659436D01*
X152720974Y-109720017D01*
X152714255Y-109783206D01*
X152703660Y-109848950D01*
X152706820Y-109947662D01*
X152710040Y-110043625D01*
X152713306Y-110136852D01*
X152716603Y-110227355D01*
X152719915Y-110315151D01*
X152723230Y-110400252D01*
X152726532Y-110482669D01*
X152729807Y-110562418D01*
X152733040Y-110639513D01*
X152736216Y-110713965D01*
X152739321Y-110785791D01*
X152742342Y-110855002D01*
X152745262Y-110921611D01*
X152748067Y-110985634D01*
X152750742Y-111047081D01*
X152753275Y-111105970D01*
X152755649Y-111162311D01*
X152757850Y-111216119D01*
X152759864Y-111267407D01*
X152761677Y-111316188D01*
X152763273Y-111362477D01*
X152764638Y-111406287D01*
X152765757Y-111447630D01*
X152766616Y-111486521D01*
X152767201Y-111522973D01*
X152767497Y-111557001D01*
X152767488Y-111588617D01*
X152767162Y-111617833D01*
X152766503Y-111644666D01*
X152765496Y-111669126D01*
X152764128Y-111691230D01*
X152762383Y-111710990D01*
X152760248Y-111728418D01*
X152757706Y-111743529D01*
X152754745Y-111756337D01*
X152751350Y-111766853D01*
X152747505Y-111775094D01*
X150772618Y-111314760D01*
X150706258Y-111371869D01*
X150642460Y-111427353D01*
X150581217Y-111481188D01*
X150522520Y-111533350D01*
X150466360Y-111583816D01*
X150412730Y-111632564D01*
X150361619Y-111679568D01*
X150313020Y-111724805D01*
X150266924Y-111768252D01*
X150223322Y-111809887D01*
X150182207Y-111849684D01*
X150143569Y-111887621D01*
X150107400Y-111923673D01*
X150073692Y-111957818D01*
X150042434Y-111990031D01*
X150013621Y-112020291D01*
X149987242Y-112048572D01*
X149963288Y-112074851D01*
X149941753Y-112099105D01*
X149922626Y-112121310D01*
X149905900Y-112141443D01*
X149891566Y-112159480D01*
X149879615Y-112175399D01*
X149870038Y-112189174D01*
X149862828Y-112200783D01*
X153265889Y-112973634D01*
X153321403Y-112981057D01*
X153375601Y-112984864D01*
X153428531Y-112985188D01*
X153480242Y-112982166D01*
X153530784Y-112975928D01*
X153580204Y-112966611D01*
X153628552Y-112954347D01*
X153675877Y-112939271D01*
X153722227Y-112921517D01*
X153767650Y-112901218D01*
X153812196Y-112878507D01*
X153855914Y-112853521D01*
X153898852Y-112826391D01*
X153941058Y-112797254D01*
X153974542Y-112777298D01*
X153993300Y-112749385D01*
X154005366Y-112713920D01*
X154018773Y-112671308D01*
X154041557Y-112621953D01*
X154069515Y-112473055D01*
X154078547Y-112455544D01*
X154086809Y-112435874D01*
X154094314Y-112414042D01*
X154101075Y-112390041D01*
X154107105Y-112363868D01*
X154112417Y-112335517D01*
X154117026Y-112304985D01*
X154120944Y-112272265D01*
X154124185Y-112237354D01*
X154126762Y-112200245D01*
X154128687Y-112160935D01*
X154129975Y-112119419D01*
X154130638Y-112075691D01*
X154130691Y-112029747D01*
X154130147Y-111981583D01*
X154129018Y-111931193D01*
X154127316Y-111878571D01*
X154125057Y-111823716D01*
X154122254Y-111766619D01*
X154118920Y-111707278D01*
X154115067Y-111645686D01*
X154110710Y-111581840D01*
X154105861Y-111515734D01*
X154100534Y-111447363D01*
X154094742Y-111376724D01*
X154088499Y-111303811D01*
X154081816Y-111228618D01*
X154074709Y-111151142D01*
X154067190Y-111071377D01*
X154059274Y-110989319D01*
X154050971Y-110904962D01*
X154042297Y-110818303D01*
X154042193Y-110741732D01*
X154041825Y-110666616D01*
X154041204Y-110592952D01*
X154040340Y-110520734D01*
X154039243Y-110449962D01*
X154037922Y-110380628D01*
X154036388Y-110312732D01*
X154034652Y-110246268D01*
X154032723Y-110181233D01*
X154030612Y-110117623D01*
X154028327Y-110055435D01*
X154025881Y-109994665D01*
X154023283Y-109935309D01*
X154020543Y-109877365D01*
X154017671Y-109820826D01*
X154014678Y-109765691D01*
X154011573Y-109711955D01*
X154008367Y-109659615D01*
X154005070Y-109608667D01*
X154001691Y-109559107D01*
X153998242Y-109510932D01*
X153994732Y-109464139D01*
X153991172Y-109418723D01*
X153987571Y-109374679D01*
X153983940Y-109332006D01*
X153980289Y-109290699D01*
X153976629Y-109250755D01*
X153972968Y-109212169D01*
X153969317Y-109174939D01*
X153965687Y-109139060D01*
X153962088Y-109104530D01*
X153958529Y-109071342D01*
X153955022Y-109039495D01*
X153951575Y-109008985D01*
X153948201Y-108979808D01*
X153951365Y-108921510D01*
X153949816Y-108866283D01*
X153943800Y-108814109D01*
X153933564Y-108764969D01*
X153919354Y-108718846D01*
X153901418Y-108675721D01*
X153880002Y-108635574D01*
X153855353Y-108598388D01*
X153827719Y-108564145D01*
X153797345Y-108532824D01*
X153764478Y-108504410D01*
X153729367Y-108478882D01*
X153692256Y-108456222D01*
X153653394Y-108436411D01*
X153613027Y-108419432D01*
X153571401Y-108405266D01*
X153528764Y-108393895D01*
X153485362Y-108385299D01*
X153485362Y-108385299D01*
G37*
G36*
X150060008Y-107551200D02*
X145680650Y-106578805D01*
X145680416Y-106581492D01*
X145679786Y-106589524D01*
X145678870Y-106602863D01*
X145677776Y-106621468D01*
X145676612Y-106645301D01*
X145675489Y-106674321D01*
X145674514Y-106708489D01*
X145673797Y-106747766D01*
X145673445Y-106792112D01*
X145673568Y-106841486D01*
X145674276Y-106895851D01*
X145675676Y-106955165D01*
X145677877Y-107019390D01*
X145680988Y-107088484D01*
X145685119Y-107162411D01*
X145690377Y-107241130D01*
X145696872Y-107324599D01*
X145704712Y-107412782D01*
X145714007Y-107505637D01*
X145724865Y-107603125D01*
X147058206Y-107880798D01*
X147058601Y-107884226D01*
X147059750Y-107894410D01*
X147061597Y-107911202D01*
X147064089Y-107934450D01*
X147067171Y-107964006D01*
X147070789Y-107999720D01*
X147074890Y-108041443D01*
X147079416Y-108089025D01*
X147084314Y-108142315D01*
X147089531Y-108201165D01*
X147095012Y-108265425D01*
X147100701Y-108334946D01*
X147106545Y-108409578D01*
X147112489Y-108489171D01*
X147118479Y-108573574D01*
X147124460Y-108662641D01*
X147130378Y-108756220D01*
X147130400Y-108757175D01*
X147130469Y-108760040D01*
X147130585Y-108764812D01*
X147130754Y-108771492D01*
X147130976Y-108780079D01*
X147131255Y-108790570D01*
X147131594Y-108802966D01*
X147131993Y-108817267D01*
X147132457Y-108833469D01*
X147132988Y-108851573D01*
X147133590Y-108871578D01*
X147134263Y-108893482D01*
X147135010Y-108917286D01*
X147135836Y-108942987D01*
X147136742Y-108970585D01*
X147137730Y-109000079D01*
X147138804Y-109031468D01*
X147139965Y-109064751D01*
X147141218Y-109099927D01*
X147142563Y-109136996D01*
X147144004Y-109175955D01*
X147145544Y-109216805D01*
X147147185Y-109259544D01*
X147148928Y-109304171D01*
X147150779Y-109350687D01*
X147152739Y-109399087D01*
X147154810Y-109449374D01*
X147156995Y-109501546D01*
X147159297Y-109555600D01*
X147161718Y-109611538D01*
X147164262Y-109669356D01*
X147166929Y-109729056D01*
X147169724Y-109790635D01*
X147172648Y-109854094D01*
X147175706Y-109919430D01*
X147178898Y-109986643D01*
X147182228Y-110055732D01*
X147185698Y-110126696D01*
X147189311Y-110199534D01*
X147193070Y-110274245D01*
X147196977Y-110350828D01*
X147201033Y-110429283D01*
X147205245Y-110509607D01*
X147209611Y-110591801D01*
X147214137Y-110675863D01*
X147218824Y-110761793D01*
X147223674Y-110849589D01*
X147228691Y-110939250D01*
X147233876Y-111030777D01*
X147239234Y-111124166D01*
X147244766Y-111219418D01*
X147250474Y-111316532D01*
X147256363Y-111415507D01*
X147262433Y-111516342D01*
X147268688Y-111619034D01*
X148696863Y-111931551D01*
X148695912Y-111928265D01*
X148694941Y-111923583D01*
X148693950Y-111917504D01*
X148692940Y-111910029D01*
X148691912Y-111901156D01*
X148690863Y-111890889D01*
X148689796Y-111879224D01*
X148688708Y-111866163D01*
X148687602Y-111851705D01*
X148686477Y-111835852D01*
X148685331Y-111818601D01*
X148684167Y-111799955D01*
X148682983Y-111779912D01*
X148681780Y-111758473D01*
X148680557Y-111735637D01*
X148679315Y-111711404D01*
X148678055Y-111685776D01*
X148676774Y-111658751D01*
X148675474Y-111630329D01*
X148674154Y-111600512D01*
X148672816Y-111569297D01*
X148671458Y-111536687D01*
X148670081Y-111502679D01*
X148668684Y-111467275D01*
X148667268Y-111430475D01*
X148665833Y-111392279D01*
X148664379Y-111352686D01*
X148662903Y-111311697D01*
X148661411Y-111269311D01*
X148659898Y-111225529D01*
X148658366Y-111180351D01*
X148656815Y-111133777D01*
X148655244Y-111085805D01*
X148653653Y-111036438D01*
X148652044Y-110985674D01*
X148650415Y-110933513D01*
X148648767Y-110879956D01*
X148647099Y-110825003D01*
X148645412Y-110768653D01*
X148643706Y-110710907D01*
X148641980Y-110651764D01*
X148640236Y-110591226D01*
X148638471Y-110529290D01*
X148636688Y-110465959D01*
X148634885Y-110401230D01*
X148633062Y-110335106D01*
X148631220Y-110267585D01*
X148629360Y-110198668D01*
X148627479Y-110128354D01*
X148625579Y-110056644D01*
X148623660Y-109983537D01*
X148621722Y-109909034D01*
X148619764Y-109833134D01*
X148617787Y-109755839D01*
X148615790Y-109677146D01*
X148613774Y-109597058D01*
X148611739Y-109515573D01*
X148609685Y-109432691D01*
X148607610Y-109348414D01*
X148605518Y-109262739D01*
X148603405Y-109175668D01*
X148601273Y-109087201D01*
X148599121Y-108997338D01*
X148596951Y-108906078D01*
X148594761Y-108813422D01*
X148592551Y-108719369D01*
X148590323Y-108623919D01*
X148588075Y-108527075D01*
X148585807Y-108428832D01*
X148583521Y-108329194D01*
X148581215Y-108228159D01*
X148653756Y-108201756D01*
X150176765Y-108549117D01*
X150155298Y-108546163D01*
X150136439Y-108539562D01*
X150120028Y-108529257D01*
X150105903Y-108515188D01*
X150093907Y-108497297D01*
X150083875Y-108475524D01*
X150075651Y-108449810D01*
X150069071Y-108420097D01*
X150063979Y-108386326D01*
X150060210Y-108348438D01*
X150057607Y-108306373D01*
X150056009Y-108260075D01*
X150055254Y-108209482D01*
X150055184Y-108154535D01*
X150055637Y-108095178D01*
X150056454Y-108031350D01*
X150057475Y-107962992D01*
X150058537Y-107890046D01*
X150059482Y-107812453D01*
X150060150Y-107730153D01*
X150060378Y-107643088D01*
X150060008Y-107551200D01*
X150060008Y-107551200D01*
G37*
G36*
X145156230Y-106492236D02*
X141061374Y-105624373D01*
X141002296Y-105612492D01*
X140944140Y-105602915D01*
X140887007Y-105595677D01*
X140830991Y-105590817D01*
X140776191Y-105588368D01*
X140722704Y-105588366D01*
X140670629Y-105590848D01*
X140620062Y-105595849D01*
X140571101Y-105603405D01*
X140523844Y-105613553D01*
X140478388Y-105626327D01*
X140434832Y-105641764D01*
X140393271Y-105659900D01*
X140353804Y-105680770D01*
X140316529Y-105704410D01*
X140281544Y-105730857D01*
X140248944Y-105760146D01*
X140218830Y-105792313D01*
X140186942Y-105838322D01*
X140155326Y-105874243D01*
X140129604Y-105904691D01*
X140115398Y-105934277D01*
X140118330Y-105967613D01*
X140068081Y-106055263D01*
X140065045Y-106072930D01*
X140062160Y-106092869D01*
X140059438Y-106115115D01*
X140056895Y-106139707D01*
X140054542Y-106166683D01*
X140052394Y-106196078D01*
X140050466Y-106227932D01*
X140048768Y-106262281D01*
X140047317Y-106299161D01*
X140046125Y-106338611D01*
X140045205Y-106380669D01*
X140044571Y-106425372D01*
X140044238Y-106472755D01*
X140044218Y-106522858D01*
X140044524Y-106575718D01*
X140045173Y-106631370D01*
X140046175Y-106689855D01*
X140047545Y-106751208D01*
X140049296Y-106815466D01*
X140051443Y-106882668D01*
X140053999Y-106952850D01*
X140056976Y-107026050D01*
X140060389Y-107102306D01*
X140064252Y-107181653D01*
X140068578Y-107264130D01*
X140073380Y-107349775D01*
X140078673Y-107438624D01*
X140091989Y-107470526D01*
X140108373Y-107501482D01*
X140127878Y-107531639D01*
X140150557Y-107561149D01*
X140176467Y-107590162D01*
X140205661Y-107618826D01*
X140238194Y-107647292D01*
X140274120Y-107675708D01*
X140313494Y-107704224D01*
X140356371Y-107732991D01*
X140402803Y-107762157D01*
X140452846Y-107791872D01*
X140506556Y-107822287D01*
X140563985Y-107853550D01*
X140625189Y-107885811D01*
X140690221Y-107919220D01*
X140759137Y-107953925D01*
X140689601Y-107979314D01*
X140626014Y-108003019D01*
X140568278Y-108025560D01*
X140516296Y-108047450D01*
X140469971Y-108069208D01*
X140429204Y-108091350D01*
X140393901Y-108114396D01*
X140363964Y-108138859D01*
X140339295Y-108165258D01*
X140319797Y-108194110D01*
X140305374Y-108225932D01*
X140295929Y-108261241D01*
X140277947Y-108270355D01*
X140248799Y-108298946D01*
X140245679Y-108348891D01*
X140228542Y-108406946D01*
X140211698Y-108464488D01*
X140195149Y-108521515D01*
X140178895Y-108578030D01*
X140162935Y-108634031D01*
X140147270Y-108689518D01*
X140131899Y-108744491D01*
X140116822Y-108798951D01*
X140102040Y-108852897D01*
X140087551Y-108906330D01*
X140073359Y-108959249D01*
X140059459Y-109011655D01*
X140045855Y-109063547D01*
X140032545Y-109114926D01*
X140019529Y-109165791D01*
X140006808Y-109216142D01*
X139994381Y-109265980D01*
X139982249Y-109315304D01*
X139970412Y-109364115D01*
X139958868Y-109412412D01*
X139947619Y-109460196D01*
X139936664Y-109507465D01*
X139926004Y-109554222D01*
X139915639Y-109600464D01*
X139905567Y-109646193D01*
X139895791Y-109691409D01*
X139886308Y-109736111D01*
X139877120Y-109780299D01*
X139868226Y-109823974D01*
X139859627Y-109867136D01*
X139851322Y-109909784D01*
X139843312Y-109951918D01*
X141198945Y-110290838D01*
X141478521Y-108801864D01*
X141509985Y-108752888D01*
X141543992Y-108710893D01*
X141580406Y-108675514D01*
X141619094Y-108646381D01*
X141659921Y-108623128D01*
X141702755Y-108605388D01*
X141747462Y-108592792D01*
X141793907Y-108584974D01*
X141841958Y-108581565D01*
X141891479Y-108582199D01*
X142962611Y-108816586D01*
X142962967Y-108819656D01*
X142964021Y-108828822D01*
X142965750Y-108844022D01*
X142968131Y-108865194D01*
X142971141Y-108892273D01*
X142974757Y-108925197D01*
X142978957Y-108963904D01*
X142983716Y-109008328D01*
X142989013Y-109058409D01*
X142994824Y-109114083D01*
X143001126Y-109175287D01*
X143007897Y-109241958D01*
X143015113Y-109314032D01*
X143022752Y-109391447D01*
X143030791Y-109474140D01*
X143039207Y-109562048D01*
X143047975Y-109655107D01*
X143057075Y-109753256D01*
X143055690Y-109818883D01*
X143055057Y-109883024D01*
X143055093Y-109945647D01*
X143055715Y-110006722D01*
X143056840Y-110066218D01*
X143058387Y-110124105D01*
X143060270Y-110180352D01*
X143062409Y-110234929D01*
X143064719Y-110287805D01*
X143067117Y-110338950D01*
X143069520Y-110388334D01*
X143071847Y-110435925D01*
X143074014Y-110481695D01*
X143075936Y-110525611D01*
X143077533Y-110567642D01*
X143078720Y-110607762D01*
X143079415Y-110645935D01*
X143079535Y-110682134D01*
X143078998Y-110716328D01*
X144434631Y-111055248D01*
X144368863Y-108166031D01*
X141942098Y-107592723D01*
X141868902Y-107574801D01*
X141802257Y-107554645D01*
X141742055Y-107532448D01*
X141688185Y-107508402D01*
X141640538Y-107482697D01*
X141599002Y-107455525D01*
X141563471Y-107427079D01*
X141533831Y-107397549D01*
X141509975Y-107367128D01*
X141491792Y-107336007D01*
X141479173Y-107304378D01*
X141472006Y-107272432D01*
X141470184Y-107240362D01*
X141473594Y-107208358D01*
X141456967Y-106936966D01*
X141480080Y-106903075D01*
X141507190Y-106876221D01*
X141539568Y-106855943D01*
X141578483Y-106841780D01*
X141625202Y-106833268D01*
X141680997Y-106829947D01*
X141747135Y-106831353D01*
X143459811Y-107248403D01*
X143496230Y-107261175D01*
X143534381Y-107273418D01*
X143574297Y-107285222D01*
X143616013Y-107296676D01*
X143659558Y-107307870D01*
X143704967Y-107318894D01*
X143752272Y-107329836D01*
X143801506Y-107340789D01*
X143852701Y-107351841D01*
X143905891Y-107363080D01*
X143961108Y-107374599D01*
X144018383Y-107386485D01*
X144077750Y-107398829D01*
X144139243Y-107411721D01*
X144202893Y-107425250D01*
X144268733Y-107439505D01*
X145156230Y-106492236D01*
X145156230Y-106492236D01*
G37*
G36*
X138824278Y-105120753D02*
X136731002Y-105630889D01*
X136772432Y-105624278D01*
X136818866Y-105622125D01*
X136871314Y-105623491D01*
X137775069Y-105849438D01*
X137814866Y-105865166D01*
X137852928Y-105882559D01*
X137889188Y-105901732D01*
X137923583Y-105922797D01*
X137956046Y-105945867D01*
X137986513Y-105971058D01*
X138014919Y-105998481D01*
X138041198Y-106028251D01*
X138065285Y-106060482D01*
X138087117Y-106095286D01*
X138106626Y-106132778D01*
X138123749Y-106173071D01*
X138138420Y-106216279D01*
X138150573Y-106262515D01*
X138160145Y-106311893D01*
X138167069Y-106364526D01*
X138171281Y-106420528D01*
X138172715Y-106480012D01*
X138171307Y-106543092D01*
X138166990Y-106609883D01*
X138159701Y-106680495D01*
X138155059Y-106774857D01*
X138150907Y-106866427D01*
X138147210Y-106955204D01*
X138143936Y-107041189D01*
X138141051Y-107124377D01*
X138138522Y-107204767D01*
X138136314Y-107282359D01*
X138134393Y-107357150D01*
X138132726Y-107429139D01*
X138131280Y-107498323D01*
X138130020Y-107564701D01*
X138128913Y-107628272D01*
X138127925Y-107689034D01*
X138127022Y-107746983D01*
X138126172Y-107802121D01*
X138125339Y-107854445D01*
X138124491Y-107903951D01*
X138123592Y-107950640D01*
X138122611Y-107994510D01*
X138121513Y-108035558D01*
X138120265Y-108073784D01*
X138118832Y-108109185D01*
X138117182Y-108141760D01*
X138115280Y-108171506D01*
X138113092Y-108198422D01*
X138110586Y-108222508D01*
X138107726Y-108243761D01*
X138104480Y-108262178D01*
X138100813Y-108277759D01*
X138096694Y-108290502D01*
X138092085Y-108300405D01*
X138082218Y-108334422D01*
X138066696Y-108362309D01*
X138045673Y-108384490D01*
X138019307Y-108401392D01*
X137987751Y-108413440D01*
X137951159Y-108421059D01*
X137909687Y-108424673D01*
X137863490Y-108424709D01*
X137812722Y-108421592D01*
X137757538Y-108415747D01*
X137698094Y-108407600D01*
X137634543Y-108397576D01*
X137182665Y-108284603D01*
X137116687Y-108267503D01*
X137054327Y-108250022D01*
X136995609Y-108232049D01*
X136940553Y-108213471D01*
X136889178Y-108194178D01*
X136841508Y-108174057D01*
X136797562Y-108152996D01*
X136757362Y-108130883D01*
X136720928Y-108107608D01*
X136688282Y-108083059D01*
X136659443Y-108057123D01*
X136634435Y-108029689D01*
X136613277Y-108000647D01*
X136595991Y-107969882D01*
X136582596Y-107937286D01*
X136573114Y-107902744D01*
X136567568Y-107866146D01*
X136565976Y-107827381D01*
X136568361Y-107786336D01*
X136574742Y-107742899D01*
X136569084Y-107672455D01*
X136563805Y-107603080D01*
X136558895Y-107534772D01*
X136554342Y-107467524D01*
X136550134Y-107401334D01*
X136546261Y-107336197D01*
X136542713Y-107272108D01*
X136539475Y-107209065D01*
X136536539Y-107147062D01*
X136533893Y-107086095D01*
X136531524Y-107026162D01*
X136529424Y-106967257D01*
X136527579Y-106909375D01*
X136525979Y-106852514D01*
X136524612Y-106796669D01*
X136523468Y-106741835D01*
X136522535Y-106688010D01*
X136521801Y-106635188D01*
X136521257Y-106583364D01*
X136520890Y-106532538D01*
X136520688Y-106482701D01*
X136520642Y-106433852D01*
X136520739Y-106385986D01*
X136520969Y-106339099D01*
X136521320Y-106293186D01*
X136521781Y-106248244D01*
X136522341Y-106204267D01*
X136522988Y-106161254D01*
X136523711Y-106119198D01*
X136524500Y-106078098D01*
X136525342Y-106037946D01*
X136526227Y-105998740D01*
X136527143Y-105960476D01*
X136528079Y-105923150D01*
X136529025Y-105886757D01*
X136529968Y-105851293D01*
X136530897Y-105816754D01*
X136563530Y-105763679D01*
X136595102Y-105720694D01*
X136626625Y-105686862D01*
X136659109Y-105661243D01*
X136693564Y-105642898D01*
X136731002Y-105630889D01*
X138824278Y-105120753D01*
X136062762Y-104530564D01*
X135999208Y-104523541D01*
X135937445Y-104518051D01*
X135877505Y-104514187D01*
X135819423Y-104512039D01*
X135763231Y-104511700D01*
X135708962Y-104513262D01*
X135656653Y-104516817D01*
X135606334Y-104522456D01*
X135558038Y-104530271D01*
X135511802Y-104540355D01*
X135467655Y-104552798D01*
X135425635Y-104567694D01*
X135385771Y-104585133D01*
X135348100Y-104605208D01*
X135312654Y-104628012D01*
X135279467Y-104653634D01*
X135248570Y-104682167D01*
X135219999Y-104713703D01*
X135193787Y-104748335D01*
X135169968Y-104786153D01*
X135124700Y-104820612D01*
X135116625Y-104856947D01*
X135119718Y-104873804D01*
X135109717Y-104893032D01*
X135100492Y-104914451D01*
X135092027Y-104938068D01*
X135084303Y-104963889D01*
X135077304Y-104991922D01*
X135071010Y-105022171D01*
X135065405Y-105054644D01*
X135060470Y-105089348D01*
X135056188Y-105126288D01*
X135052539Y-105165471D01*
X135049508Y-105206904D01*
X135047075Y-105250594D01*
X135045224Y-105296547D01*
X135043936Y-105344767D01*
X135043192Y-105395265D01*
X135042977Y-105448045D01*
X135043271Y-105503113D01*
X135044058Y-105560476D01*
X135045318Y-105620141D01*
X135047034Y-105682114D01*
X135049188Y-105746403D01*
X135051763Y-105813012D01*
X135054741Y-105881949D01*
X135058103Y-105953220D01*
X135061832Y-106026831D01*
X135065910Y-106102790D01*
X135070320Y-106181103D01*
X135075042Y-106261776D01*
X135080060Y-106344815D01*
X135080793Y-106436106D01*
X135081582Y-106525530D01*
X135082434Y-106613093D01*
X135083354Y-106698793D01*
X135084351Y-106782635D01*
X135085428Y-106864619D01*
X135086594Y-106944750D01*
X135087854Y-107023029D01*
X135089214Y-107099459D01*
X135090681Y-107174041D01*
X135092261Y-107246779D01*
X135093958Y-107317673D01*
X135095782Y-107386727D01*
X135097737Y-107453943D01*
X135099831Y-107519323D01*
X135102068Y-107582869D01*
X135104455Y-107644585D01*
X135106998Y-107704471D01*
X135109705Y-107762531D01*
X135112580Y-107818766D01*
X135115632Y-107873180D01*
X135118864Y-107925773D01*
X135122283Y-107976549D01*
X135125898Y-108025510D01*
X135129713Y-108072658D01*
X135133733Y-108117995D01*
X135137966Y-108161524D01*
X135142419Y-108203247D01*
X135147096Y-108243166D01*
X135152005Y-108281284D01*
X135157152Y-108317603D01*
X135162542Y-108352126D01*
X135168184Y-108384853D01*
X135174080Y-108415787D01*
X135180240Y-108444933D01*
X135186669Y-108472291D01*
X135193372Y-108497863D01*
X135200358Y-108521652D01*
X135207631Y-108543660D01*
X135215198Y-108563890D01*
X135223065Y-108582344D01*
X135231238Y-108599024D01*
X135239724Y-108613933D01*
X135248529Y-108627072D01*
X135257659Y-108638444D01*
X135278909Y-108694126D01*
X135300953Y-108746370D01*
X135323929Y-108795226D01*
X135347978Y-108840746D01*
X135373239Y-108882981D01*
X135399848Y-108921980D01*
X135427946Y-108957796D01*
X135457672Y-108990479D01*
X135489165Y-109020082D01*
X135522563Y-109046653D01*
X135558006Y-109070246D01*
X135595632Y-109090909D01*
X135635580Y-109108696D01*
X135677989Y-109123656D01*
X135722999Y-109135842D01*
X135770748Y-109145302D01*
X138554555Y-109796740D01*
X138610069Y-109804162D01*
X138664267Y-109807969D01*
X138717197Y-109808294D01*
X138768908Y-109805271D01*
X138819450Y-109799034D01*
X138868870Y-109789716D01*
X138917218Y-109777452D01*
X138964543Y-109762376D01*
X139010893Y-109744622D01*
X139056316Y-109724322D01*
X139100862Y-109701613D01*
X139144580Y-109676626D01*
X139187518Y-109649497D01*
X139229724Y-109620359D01*
X139263209Y-109600403D01*
X139281966Y-109572491D01*
X139294032Y-109537025D01*
X139307440Y-109494412D01*
X139330223Y-109445059D01*
X139358181Y-109296161D01*
X139361508Y-109278388D01*
X139365238Y-109258143D01*
X139369311Y-109235404D01*
X139373672Y-109210150D01*
X139378261Y-109182360D01*
X139383022Y-109152014D01*
X139387896Y-109119088D01*
X139392825Y-109083564D01*
X139397752Y-109045418D01*
X139402619Y-109004630D01*
X139407367Y-108961178D01*
X139411941Y-108915043D01*
X139416281Y-108866201D01*
X139420329Y-108814631D01*
X139424028Y-108760313D01*
X139427320Y-108703227D01*
X139430147Y-108643349D01*
X139432452Y-108580659D01*
X139434175Y-108515135D01*
X139435261Y-108446757D01*
X139435651Y-108375503D01*
X139435286Y-108301352D01*
X139434110Y-108224282D01*
X139432064Y-108144273D01*
X139429090Y-108061303D01*
X139425132Y-107975352D01*
X139420131Y-107886396D01*
X139415939Y-107796879D01*
X139411849Y-107709125D01*
X139407858Y-107623136D01*
X139403957Y-107538915D01*
X139400141Y-107456462D01*
X139396408Y-107375781D01*
X139392748Y-107296873D01*
X139389159Y-107219741D01*
X139385633Y-107144387D01*
X139382166Y-107070810D01*
X139378753Y-106999016D01*
X139375386Y-106929004D01*
X139372062Y-106860779D01*
X139368776Y-106794340D01*
X139365520Y-106729690D01*
X139362289Y-106666832D01*
X139359080Y-106605767D01*
X139355885Y-106546496D01*
X139352700Y-106489023D01*
X139349518Y-106433350D01*
X139346335Y-106379478D01*
X139343144Y-106327409D01*
X139339941Y-106277144D01*
X139336721Y-106228687D01*
X139333477Y-106182040D01*
X139330204Y-106137203D01*
X139326896Y-106094180D01*
X139323548Y-106052972D01*
X139320155Y-106013580D01*
X139316712Y-105976007D01*
X139313211Y-105940257D01*
X139309649Y-105906329D01*
X139306021Y-105874226D01*
X139302318Y-105843950D01*
X139298538Y-105815504D01*
X139294675Y-105788888D01*
X139290722Y-105764105D01*
X139286674Y-105741158D01*
X139282527Y-105720047D01*
X139278273Y-105700776D01*
X139273908Y-105683345D01*
X139269428Y-105667758D01*
X139264825Y-105654016D01*
X139256344Y-105593685D01*
X139245475Y-105537374D01*
X139232186Y-105484992D01*
X139216444Y-105436449D01*
X139198214Y-105391655D01*
X139177467Y-105350523D01*
X139154169Y-105312960D01*
X139128286Y-105278877D01*
X139099786Y-105248185D01*
X139068636Y-105220795D01*
X139034806Y-105196617D01*
X138998260Y-105175559D01*
X138958967Y-105157534D01*
X138916894Y-105142452D01*
X138872009Y-105130221D01*
X138824278Y-105120753D01*
X138824278Y-105120753D01*
G37*
G36*
X135041880Y-104208526D02*
X130829898Y-103244572D01*
X130769405Y-103230886D01*
X130711115Y-103220581D01*
X130654950Y-103213568D01*
X130600829Y-103209756D01*
X130548676Y-103209060D01*
X130498410Y-103211390D01*
X130449954Y-103216657D01*
X130403230Y-103224771D01*
X130358157Y-103235646D01*
X130314659Y-103249192D01*
X130272655Y-103265319D01*
X130232070Y-103283941D01*
X130192823Y-103304968D01*
X130154835Y-103328311D01*
X130118028Y-103353883D01*
X130082323Y-103381593D01*
X130047643Y-103411354D01*
X130013909Y-103443077D01*
X129981041Y-103476672D01*
X129948962Y-103512053D01*
X129917592Y-103549129D01*
X129886854Y-103587812D01*
X129836605Y-103675462D01*
X129833196Y-103695489D01*
X129829961Y-103718341D01*
X129826899Y-103744020D01*
X129824011Y-103772527D01*
X129821296Y-103803860D01*
X129818753Y-103838021D01*
X129816385Y-103875009D01*
X129814189Y-103914824D01*
X129812166Y-103957465D01*
X129810317Y-104002934D01*
X129808641Y-104051230D01*
X129807138Y-104102352D01*
X129805808Y-104156302D01*
X129804652Y-104213079D01*
X129803668Y-104272682D01*
X129802858Y-104335113D01*
X129802221Y-104400370D01*
X129801757Y-104468455D01*
X129801467Y-104539367D01*
X129801350Y-104613105D01*
X129801406Y-104689671D01*
X129801634Y-104769064D01*
X129802037Y-104851283D01*
X129802613Y-104936330D01*
X129918630Y-107737897D01*
X131346805Y-108050414D01*
X131247783Y-104618413D01*
X131298033Y-104530762D01*
X131321145Y-104496872D01*
X131348255Y-104470018D01*
X131380633Y-104449740D01*
X131419548Y-104435576D01*
X131466268Y-104427064D01*
X131522062Y-104423744D01*
X131588200Y-104425150D01*
X132826707Y-104667979D01*
X132829137Y-104676645D01*
X132831308Y-104688531D01*
X132833261Y-104703668D01*
X132835035Y-104722091D01*
X132836671Y-104743832D01*
X132838208Y-104768923D01*
X132839686Y-104797399D01*
X132841147Y-104829290D01*
X132842629Y-104864631D01*
X132844171Y-104903454D01*
X132845815Y-104945792D01*
X132847602Y-104991677D01*
X132849569Y-105041142D01*
X132851758Y-105094222D01*
X132854208Y-105150947D01*
X132856959Y-105211350D01*
X132860051Y-105275466D01*
X132863525Y-105343325D01*
X132867420Y-105414962D01*
X132871777Y-105490409D01*
X132876635Y-105569698D01*
X132882034Y-105652864D01*
X132888013Y-105739938D01*
X132894614Y-105830952D01*
X132901877Y-105925942D01*
X132909841Y-106024937D01*
X132964648Y-108432619D01*
X134392822Y-108745136D01*
X134394850Y-108740766D01*
X134396689Y-108735059D01*
X134398344Y-108728018D01*
X134399818Y-108719638D01*
X134401114Y-108709921D01*
X134402237Y-108698862D01*
X134403188Y-108686463D01*
X134403975Y-108672720D01*
X134404597Y-108657633D01*
X134405061Y-108641201D01*
X134405370Y-108623422D01*
X134405525Y-108604294D01*
X134405533Y-108583818D01*
X134405396Y-108561990D01*
X134405119Y-108538810D01*
X134404704Y-108514277D01*
X134404155Y-108488389D01*
X134403477Y-108461145D01*
X134402672Y-108432543D01*
X134401745Y-108402583D01*
X134400697Y-108371263D01*
X134399535Y-108338580D01*
X134398262Y-108304536D01*
X134396880Y-108269127D01*
X134395393Y-108232353D01*
X134393806Y-108194212D01*
X134392121Y-108154702D01*
X134390343Y-108113824D01*
X134388475Y-108071575D01*
X134386521Y-108027954D01*
X134384484Y-107982959D01*
X134382369Y-107936589D01*
X134380178Y-107888844D01*
X134377914Y-107839721D01*
X134375584Y-107789219D01*
X134373189Y-107737338D01*
X134370733Y-107684075D01*
X134368221Y-107629429D01*
X134365655Y-107573399D01*
X134363039Y-107515984D01*
X134360377Y-107457183D01*
X134357673Y-107396993D01*
X134354929Y-107335414D01*
X134352151Y-107272444D01*
X134349341Y-107208082D01*
X134346503Y-107142328D01*
X134343641Y-107075178D01*
X134340758Y-107006632D01*
X134337859Y-106936690D01*
X134334946Y-106865348D01*
X134332023Y-106792606D01*
X134329096Y-106718464D01*
X134326165Y-106642919D01*
X134323235Y-106565969D01*
X134320311Y-106487615D01*
X134317395Y-106407854D01*
X134314492Y-106326685D01*
X134311604Y-106244106D01*
X134308736Y-106160117D01*
X134305892Y-106074717D01*
X134303074Y-105987903D01*
X134300286Y-105899675D01*
X134297533Y-105810030D01*
X134294817Y-105718968D01*
X134292143Y-105626487D01*
X134289514Y-105532588D01*
X134286934Y-105437267D01*
X134284406Y-105340523D01*
X134281935Y-105242355D01*
X134279523Y-105142763D01*
X134277174Y-105041743D01*
X134339730Y-104972960D01*
X134399534Y-104907679D01*
X134456601Y-104845818D01*
X134510947Y-104787294D01*
X134562588Y-104732019D01*
X134611540Y-104679913D01*
X134657819Y-104630889D01*
X134701440Y-104584866D01*
X134742417Y-104541759D01*
X134780770Y-104501483D01*
X134816511Y-104463956D01*
X134849658Y-104429092D01*
X134880226Y-104396809D01*
X134908230Y-104367022D01*
X134933688Y-104339648D01*
X134956613Y-104314602D01*
X134977023Y-104291800D01*
X134994932Y-104271159D01*
X135010356Y-104252596D01*
X135023312Y-104236025D01*
X135033815Y-104221363D01*
X135041880Y-104208526D01*
X135041880Y-104208526D01*
G37*
G36*
X127806172Y-102611098D02*
X127805828Y-102625532D01*
X127805548Y-102640816D01*
X127805332Y-102656950D01*
X127805182Y-102673934D01*
X127805093Y-102691769D01*
X127805069Y-102710454D01*
X127805106Y-102729990D01*
X127805205Y-102750377D01*
X127805365Y-102771615D01*
X127805585Y-102793704D01*
X127805865Y-102816646D01*
X127806204Y-102840439D01*
X127806602Y-102865084D01*
X127807058Y-102890582D01*
X127807571Y-102916932D01*
X127808142Y-102944135D01*
X127808768Y-102972191D01*
X127809450Y-103001100D01*
X127810187Y-103030863D01*
X127810978Y-103061478D01*
X127811823Y-103092948D01*
X127812721Y-103125272D01*
X127813672Y-103158450D01*
X127814676Y-103192483D01*
X127815731Y-103227371D01*
X127816836Y-103263113D01*
X127817992Y-103299711D01*
X127819197Y-103337163D01*
X127820452Y-103375471D01*
X127821754Y-103414636D01*
X127823106Y-103454656D01*
X127824503Y-103495532D01*
X127825948Y-103537266D01*
X127827440Y-103579855D01*
X127828976Y-103623301D01*
X127830557Y-103667605D01*
X127832182Y-103712766D01*
X127833851Y-103758784D01*
X127835563Y-103805660D01*
X127837318Y-103853394D01*
X127839114Y-103901987D01*
X127840952Y-103951438D01*
X127842831Y-104001746D01*
X127844749Y-104052915D01*
X127846708Y-104104942D01*
X127848705Y-104157828D01*
X127850740Y-104211574D01*
X127852814Y-104266180D01*
X127854924Y-104321645D01*
X127857070Y-104377971D01*
X127859254Y-104435157D01*
X127861472Y-104493204D01*
X127863724Y-104552111D01*
X127866011Y-104611880D01*
X127868331Y-104672510D01*
X127870685Y-104734001D01*
X127873070Y-104796353D01*
X127875488Y-104859568D01*
X127877937Y-104923645D01*
X127880416Y-104988584D01*
X127882925Y-105054385D01*
X127885464Y-105121050D01*
X127888031Y-105188578D01*
X127890626Y-105256967D01*
X127893249Y-105326222D01*
X127895899Y-105396339D01*
X127898576Y-105467320D01*
X127901277Y-105539166D01*
X127904005Y-105611875D01*
X127906757Y-105685450D01*
X127909533Y-105759889D01*
X127912332Y-105835192D01*
X127915153Y-105911361D01*
X127917997Y-105988395D01*
X127920863Y-106066295D01*
X127923750Y-106145061D01*
X127926658Y-106224693D01*
X127929584Y-106305191D01*
X127932530Y-106386555D01*
X127935496Y-106468786D01*
X127938479Y-106551884D01*
X127941478Y-106635849D01*
X127944495Y-106720681D01*
X127947528Y-106806381D01*
X127950577Y-106892949D01*
X127953642Y-106980384D01*
X127956720Y-107068687D01*
X127959812Y-107157859D01*
X127962918Y-107247900D01*
X127966036Y-107338809D01*
X129394211Y-107651327D01*
X129394208Y-107650736D01*
X129394202Y-107648966D01*
X129394188Y-107646017D01*
X129394169Y-107641888D01*
X129394140Y-107636581D01*
X129394102Y-107630096D01*
X129394053Y-107622432D01*
X129393992Y-107613592D01*
X129393918Y-107603574D01*
X129393829Y-107592380D01*
X129393725Y-107580010D01*
X129393603Y-107566465D01*
X129393465Y-107551744D01*
X129393307Y-107535849D01*
X129393128Y-107518778D01*
X129392929Y-107500535D01*
X129392705Y-107481118D01*
X129392459Y-107460528D01*
X129392187Y-107438766D01*
X129391888Y-107415831D01*
X129391563Y-107391724D01*
X129391208Y-107366447D01*
X129390824Y-107339999D01*
X129390409Y-107312380D01*
X129389960Y-107283591D01*
X129389479Y-107253633D01*
X129388963Y-107222506D01*
X129388412Y-107190209D01*
X129387823Y-107156746D01*
X129387195Y-107122114D01*
X129386528Y-107086314D01*
X129385821Y-107049348D01*
X129385071Y-107011215D01*
X129384279Y-106971917D01*
X129383443Y-106931453D01*
X129382560Y-106889823D01*
X129381632Y-106847029D01*
X129380656Y-106803071D01*
X129379630Y-106757948D01*
X129378554Y-106711663D01*
X129377427Y-106664214D01*
X129376247Y-106615603D01*
X129375014Y-106565829D01*
X129373725Y-106514894D01*
X129372380Y-106462798D01*
X129370978Y-106409541D01*
X129369518Y-106355123D01*
X129367996Y-106299545D01*
X129366416Y-106242808D01*
X129364772Y-106184913D01*
X129363065Y-106125857D01*
X129361293Y-106065645D01*
X129359456Y-106004274D01*
X129357552Y-105941746D01*
X129355579Y-105878061D01*
X129353538Y-105813219D01*
X129351425Y-105747223D01*
X129349242Y-105680070D01*
X129346985Y-105611761D01*
X129344654Y-105542298D01*
X129342248Y-105471680D01*
X129339765Y-105399909D01*
X129337205Y-105326985D01*
X129334566Y-105252907D01*
X129331847Y-105177677D01*
X129329045Y-105101295D01*
X129326162Y-105023761D01*
X129323196Y-104945076D01*
X129320144Y-104865240D01*
X129317007Y-104784253D01*
X129313782Y-104702118D01*
X129310469Y-104618831D01*
X129307066Y-104534397D01*
X129303572Y-104448813D01*
X129299986Y-104362082D01*
X129296308Y-104274202D01*
X129292534Y-104185175D01*
X129288665Y-104095001D01*
X129284700Y-104003681D01*
X129280635Y-103911214D01*
X129276473Y-103817602D01*
X129272210Y-103722845D01*
X129267845Y-103626943D01*
X129263378Y-103529898D01*
X129258806Y-103431708D01*
X129254129Y-103332374D01*
X129249346Y-103231897D01*
X129244456Y-103130278D01*
X129239457Y-103027517D01*
X129234347Y-102923614D01*
X127806172Y-102611098D01*
X127806172Y-102611098D01*
G37*
G36*
X126640207Y-102341866D02*
X123594190Y-101647144D01*
X123591957Y-101744206D01*
X123590570Y-101836289D01*
X123589948Y-101923360D01*
X123590006Y-102005391D01*
X123590660Y-102082351D01*
X123591830Y-102154208D01*
X123593431Y-102220933D01*
X123595380Y-102282496D01*
X123597596Y-102338865D01*
X123599994Y-102390010D01*
X123602492Y-102435902D01*
X123605006Y-102476507D01*
X123607455Y-102511798D01*
X123609755Y-102541744D01*
X123611823Y-102566312D01*
X123613575Y-102585474D01*
X123614929Y-102599200D01*
X123615803Y-102607457D01*
X123616112Y-102610217D01*
X125496165Y-103035707D01*
X125534886Y-103043965D01*
X125572292Y-103055719D01*
X125608240Y-103070916D01*
X125642588Y-103089506D01*
X125675195Y-103111434D01*
X125705917Y-103136649D01*
X125734612Y-103165100D01*
X125761138Y-103196732D01*
X125785354Y-103231494D01*
X125807116Y-103269334D01*
X125826282Y-103310199D01*
X125842711Y-103354038D01*
X125856259Y-103400798D01*
X125866785Y-103450427D01*
X125874146Y-103502872D01*
X125878200Y-103558082D01*
X125878806Y-103616003D01*
X125875820Y-103676584D01*
X125869100Y-103739773D01*
X125858505Y-103805517D01*
X125861665Y-103904229D01*
X125864886Y-104000192D01*
X125868151Y-104093419D01*
X125871448Y-104183923D01*
X125874761Y-104271718D01*
X125878076Y-104356819D01*
X125881377Y-104439236D01*
X125884652Y-104518985D01*
X125887885Y-104596080D01*
X125891061Y-104670533D01*
X125894166Y-104742358D01*
X125897187Y-104811569D01*
X125900107Y-104878178D01*
X125902912Y-104942201D01*
X125905588Y-105003649D01*
X125908120Y-105062537D01*
X125910495Y-105118879D01*
X125912695Y-105172686D01*
X125914710Y-105223974D01*
X125916522Y-105272756D01*
X125918118Y-105319045D01*
X125919483Y-105362854D01*
X125920602Y-105404197D01*
X125921461Y-105443089D01*
X125922046Y-105479541D01*
X125922342Y-105513568D01*
X125922334Y-105545184D01*
X125922007Y-105574400D01*
X125921348Y-105601233D01*
X125920342Y-105625694D01*
X125918974Y-105647797D01*
X125917229Y-105667557D01*
X125915093Y-105684985D01*
X125912552Y-105700096D01*
X125909591Y-105712904D01*
X125906195Y-105723420D01*
X125902350Y-105731661D01*
X123927464Y-105271327D01*
X123861103Y-105328437D01*
X123797305Y-105383920D01*
X123736062Y-105437755D01*
X123677365Y-105489917D01*
X123621206Y-105540383D01*
X123567575Y-105589131D01*
X123516464Y-105636135D01*
X123467865Y-105681372D01*
X123421769Y-105724820D01*
X123378167Y-105766454D01*
X123337052Y-105806251D01*
X123298414Y-105844188D01*
X123262245Y-105880240D01*
X123228537Y-105914385D01*
X123197280Y-105946598D01*
X123168466Y-105976858D01*
X123142087Y-106005139D01*
X123118134Y-106031418D01*
X123096598Y-106055672D01*
X123077471Y-106077877D01*
X123060745Y-106098010D01*
X123046411Y-106116047D01*
X123034460Y-106131966D01*
X123024884Y-106145741D01*
X123017673Y-106157350D01*
X126420735Y-106930201D01*
X126476248Y-106937624D01*
X126530446Y-106941431D01*
X126583376Y-106941756D01*
X126635088Y-106938733D01*
X126685628Y-106932496D01*
X126735049Y-106923178D01*
X126783397Y-106910914D01*
X126830722Y-106895838D01*
X126877072Y-106878084D01*
X126922496Y-106857785D01*
X126967042Y-106835074D01*
X127010759Y-106810088D01*
X127053697Y-106782959D01*
X127095903Y-106753821D01*
X127129387Y-106733865D01*
X127148145Y-106705952D01*
X127160211Y-106670487D01*
X127173619Y-106627875D01*
X127196402Y-106578520D01*
X127224361Y-106429623D01*
X127233393Y-106412111D01*
X127241654Y-106392441D01*
X127249159Y-106370609D01*
X127255919Y-106346608D01*
X127261950Y-106320435D01*
X127267263Y-106292084D01*
X127271871Y-106261552D01*
X127275790Y-106228833D01*
X127279030Y-106193921D01*
X127281607Y-106156812D01*
X127283532Y-106117502D01*
X127284821Y-106075986D01*
X127285484Y-106032259D01*
X127285537Y-105986315D01*
X127284991Y-105938150D01*
X127283863Y-105887760D01*
X127282162Y-105835139D01*
X127279903Y-105780283D01*
X127277099Y-105723186D01*
X127273765Y-105663845D01*
X127269912Y-105602253D01*
X127265555Y-105538407D01*
X127260706Y-105472301D01*
X127255380Y-105403930D01*
X127249587Y-105333292D01*
X127243344Y-105260378D01*
X127236662Y-105185185D01*
X127229554Y-105107709D01*
X127222036Y-105027944D01*
X127214119Y-104945886D01*
X127205815Y-104861530D01*
X127197141Y-104774870D01*
X127197038Y-104698300D01*
X127196671Y-104623183D01*
X127196050Y-104549519D01*
X127195186Y-104477302D01*
X127194088Y-104406529D01*
X127192767Y-104337196D01*
X127191233Y-104269299D01*
X127189497Y-104202835D01*
X127187568Y-104137800D01*
X127185457Y-104074190D01*
X127183172Y-104012002D01*
X127180726Y-103951232D01*
X127178128Y-103891877D01*
X127175388Y-103833932D01*
X127172517Y-103777393D01*
X127169523Y-103722258D01*
X127166418Y-103668522D01*
X127163212Y-103616182D01*
X127159914Y-103565235D01*
X127156536Y-103515675D01*
X127153087Y-103467499D01*
X127149577Y-103420706D01*
X127146017Y-103375290D01*
X127142416Y-103331246D01*
X127138785Y-103288573D01*
X127135135Y-103247267D01*
X127131473Y-103207322D01*
X127127812Y-103168737D01*
X127124162Y-103131506D01*
X127120532Y-103095627D01*
X127116933Y-103061097D01*
X127113375Y-103027909D01*
X127109868Y-102996062D01*
X127106421Y-102965552D01*
X127103046Y-102936376D01*
X127095126Y-102879469D01*
X127085064Y-102826053D01*
X127072808Y-102775977D01*
X127058302Y-102729092D01*
X127041491Y-102685247D01*
X127022321Y-102644295D01*
X127000739Y-102606083D01*
X126976688Y-102570465D01*
X126950116Y-102537288D01*
X126920966Y-102506406D01*
X126889187Y-102477666D01*
X126854721Y-102450920D01*
X126817516Y-102426020D01*
X126777516Y-102402813D01*
X126734668Y-102381151D01*
X126688917Y-102360886D01*
X126640207Y-102341866D01*
X126640207Y-102341866D01*
G37*
G36*
X155932201Y-114430805D02*
X151647677Y-113493254D01*
X151647683Y-113588266D01*
X151647790Y-113680038D01*
X151648011Y-113768545D01*
X151648359Y-113853763D01*
X151648850Y-113935670D01*
X151649495Y-114014240D01*
X151650309Y-114089450D01*
X151651307Y-114161275D01*
X151652502Y-114229693D01*
X151653907Y-114294678D01*
X151655535Y-114356207D01*
X151657402Y-114414257D01*
X151659519Y-114468802D01*
X151661903Y-114519819D01*
X151664564Y-114567285D01*
X151667520Y-114611175D01*
X151670781Y-114651464D01*
X151674363Y-114688130D01*
X151678278Y-114721148D01*
X151682541Y-114750495D01*
X151687166Y-114776146D01*
X151692166Y-114798078D01*
X151697554Y-114816266D01*
X151703345Y-114830686D01*
X151709553Y-114841314D01*
X151716191Y-114848128D01*
X151723272Y-114851103D01*
X151730810Y-114850213D01*
X154324951Y-115431961D01*
X154373858Y-115445559D01*
X154420191Y-115461235D01*
X154463993Y-115478973D01*
X154505311Y-115498758D01*
X154544187Y-115520573D01*
X154580666Y-115544403D01*
X154614791Y-115570230D01*
X154646607Y-115598040D01*
X154676161Y-115627816D01*
X154703493Y-115659541D01*
X154728649Y-115693200D01*
X154751674Y-115728778D01*
X154772610Y-115766256D01*
X154791503Y-115805620D01*
X154808398Y-115846853D01*
X154823337Y-115889939D01*
X154836366Y-115934864D01*
X154847528Y-115981608D01*
X154856868Y-116030157D01*
X154864430Y-116080497D01*
X154870257Y-116132608D01*
X154874396Y-116186477D01*
X154876890Y-116242085D01*
X154877781Y-116299418D01*
X154877117Y-116358460D01*
X154874939Y-116419195D01*
X154871293Y-116481604D01*
X154874230Y-116581577D01*
X154877214Y-116679611D01*
X154880236Y-116775713D01*
X154883291Y-116869882D01*
X154886372Y-116962122D01*
X154889472Y-117052435D01*
X154892586Y-117140823D01*
X154895706Y-117227288D01*
X154898825Y-117311834D01*
X154901937Y-117394461D01*
X154905037Y-117475175D01*
X154908116Y-117553975D01*
X154911169Y-117630865D01*
X154914189Y-117705847D01*
X154917169Y-117778923D01*
X154920103Y-117850096D01*
X154922984Y-117919368D01*
X154925806Y-117986742D01*
X154928563Y-118052218D01*
X154931247Y-118115803D01*
X154933851Y-118177496D01*
X154936370Y-118237300D01*
X154938797Y-118295217D01*
X154941127Y-118351250D01*
X154943350Y-118405401D01*
X154945462Y-118457674D01*
X154947455Y-118508068D01*
X154949323Y-118556589D01*
X154951060Y-118603237D01*
X154952659Y-118648016D01*
X154954113Y-118690928D01*
X154955416Y-118731973D01*
X154956561Y-118771157D01*
X154957542Y-118808480D01*
X154958352Y-118843946D01*
X154958986Y-118877556D01*
X154959434Y-118909313D01*
X154959692Y-118939219D01*
X154959754Y-118967277D01*
X154959611Y-118993490D01*
X154959258Y-119017858D01*
X154958689Y-119040386D01*
X154957896Y-119061074D01*
X154956874Y-119079927D01*
X154955615Y-119096946D01*
X154954113Y-119112133D01*
X154952361Y-119125490D01*
X154950353Y-119137022D01*
X154948082Y-119146727D01*
X154945543Y-119154612D01*
X154942726Y-119160677D01*
X152181211Y-118570488D01*
X152117028Y-118630207D01*
X152054494Y-118688595D01*
X151993604Y-118745644D01*
X151934355Y-118801345D01*
X151876743Y-118855686D01*
X151820766Y-118908660D01*
X151766419Y-118960257D01*
X151713699Y-119010467D01*
X151662605Y-119059282D01*
X151613130Y-119106691D01*
X151565272Y-119152686D01*
X151519027Y-119197258D01*
X151474394Y-119240396D01*
X151431368Y-119282091D01*
X151389944Y-119322335D01*
X151350121Y-119361117D01*
X151311894Y-119398429D01*
X151275261Y-119434261D01*
X151240219Y-119468603D01*
X151206762Y-119501448D01*
X151174888Y-119532783D01*
X151144594Y-119562602D01*
X151115877Y-119590893D01*
X151088732Y-119617650D01*
X151063157Y-119642861D01*
X151039148Y-119666516D01*
X151016701Y-119688608D01*
X150995814Y-119709127D01*
X150976484Y-119728062D01*
X150958704Y-119745405D01*
X150942474Y-119761147D01*
X150927791Y-119775278D01*
X150914650Y-119787789D01*
X150903046Y-119798670D01*
X155639449Y-120849194D01*
X155688291Y-120858919D01*
X155737375Y-120866758D01*
X155786591Y-120872673D01*
X155835832Y-120876625D01*
X155884993Y-120878573D01*
X155933966Y-120878480D01*
X155982644Y-120876305D01*
X156030921Y-120872009D01*
X156078689Y-120865553D01*
X156125843Y-120856898D01*
X156172274Y-120846004D01*
X156217875Y-120832833D01*
X156262542Y-120817344D01*
X156306165Y-120799499D01*
X156348638Y-120779260D01*
X156389855Y-120756584D01*
X156429709Y-120731435D01*
X156468092Y-120703772D01*
X156504898Y-120673556D01*
X156540019Y-120640749D01*
X156573351Y-120605311D01*
X156604785Y-120567202D01*
X156634508Y-120552136D01*
X156661504Y-120529571D01*
X156685769Y-120499506D01*
X156707304Y-120461942D01*
X156726111Y-120416878D01*
X156742186Y-120364314D01*
X156755533Y-120304251D01*
X156856033Y-120128950D01*
X156861196Y-120112377D01*
X156866249Y-120094194D01*
X156871182Y-120074401D01*
X156875982Y-120053000D01*
X156880640Y-120029987D01*
X156885145Y-120005363D01*
X156889485Y-119979128D01*
X156893650Y-119951281D01*
X156897628Y-119921820D01*
X156901408Y-119890748D01*
X156904979Y-119858060D01*
X156908330Y-119823759D01*
X156911451Y-119787843D01*
X156914330Y-119750311D01*
X156916956Y-119711163D01*
X156919318Y-119670398D01*
X156921406Y-119628016D01*
X156923208Y-119584017D01*
X156924713Y-119538400D01*
X156925909Y-119491164D01*
X156926787Y-119442307D01*
X156927334Y-119391832D01*
X156927541Y-119339736D01*
X156927396Y-119286019D01*
X156926888Y-119230680D01*
X156926006Y-119173719D01*
X156924738Y-119115136D01*
X156923075Y-119054929D01*
X156921005Y-118993098D01*
X156918516Y-118929644D01*
X156915598Y-118864564D01*
X156912240Y-118797858D01*
X156908432Y-118729526D01*
X156904160Y-118659568D01*
X156899415Y-118587984D01*
X156894187Y-118514771D01*
X156888462Y-118439929D01*
X156882232Y-118363459D01*
X156875485Y-118285360D01*
X156868209Y-118205631D01*
X156860393Y-118124271D01*
X156852028Y-118041280D01*
X156843100Y-117956658D01*
X156833601Y-117870404D01*
X156823518Y-117782517D01*
X156825431Y-117707328D01*
X156827093Y-117633065D01*
X156828510Y-117559731D01*
X156829686Y-117487327D01*
X156830625Y-117415854D01*
X156831333Y-117345316D01*
X156831812Y-117275713D01*
X156832069Y-117207046D01*
X156832108Y-117139317D01*
X156831932Y-117072528D01*
X156831547Y-117006682D01*
X156830958Y-116941779D01*
X156830168Y-116877821D01*
X156829184Y-116814810D01*
X156828007Y-116752748D01*
X156826644Y-116691635D01*
X156825100Y-116631474D01*
X156823377Y-116572267D01*
X156821482Y-116514015D01*
X156819419Y-116456719D01*
X156817192Y-116400383D01*
X156814806Y-116345007D01*
X156812265Y-116290593D01*
X156809574Y-116237141D01*
X156806737Y-116184655D01*
X156803760Y-116133137D01*
X156800645Y-116082586D01*
X156797400Y-116033005D01*
X156794027Y-115984397D01*
X156790531Y-115936762D01*
X156786916Y-115890103D01*
X156783188Y-115844421D01*
X156779351Y-115799717D01*
X156775409Y-115755993D01*
X156771368Y-115713251D01*
X156767231Y-115671493D01*
X156763003Y-115630720D01*
X156758688Y-115590934D01*
X156754292Y-115552137D01*
X156749818Y-115514330D01*
X156745272Y-115477515D01*
X156740658Y-115441694D01*
X156735979Y-115406867D01*
X156731242Y-115373038D01*
X156726451Y-115340208D01*
X156721609Y-115308378D01*
X156716723Y-115277550D01*
X156711795Y-115247726D01*
X156706831Y-115218906D01*
X156701835Y-115191094D01*
X156680911Y-115136167D01*
X156658847Y-115083228D01*
X156635644Y-115032278D01*
X156611301Y-114983315D01*
X156585818Y-114936341D01*
X156559195Y-114891355D01*
X156531432Y-114848358D01*
X156502529Y-114807349D01*
X156472486Y-114768328D01*
X156441304Y-114731295D01*
X156408982Y-114696251D01*
X156375519Y-114663195D01*
X156340917Y-114632127D01*
X156305175Y-114603048D01*
X156268293Y-114575957D01*
X156230271Y-114550854D01*
X156191110Y-114527739D01*
X156150808Y-114506613D01*
X156109367Y-114487474D01*
X156066785Y-114470325D01*
X156023064Y-114455163D01*
X155978203Y-114441990D01*
X155932201Y-114430805D01*
X155932201Y-114430805D01*
G37*
G36*
X150838756Y-113302152D02*
X145938698Y-113590035D01*
X145980335Y-113591137D01*
X146018111Y-113600146D01*
X147635954Y-113982351D01*
X147647611Y-113988740D01*
X147657905Y-113998840D01*
X147666927Y-114012686D01*
X147674775Y-114030314D01*
X147681539Y-114051755D01*
X147687314Y-114077045D01*
X147692193Y-114106218D01*
X147696270Y-114139309D01*
X147699638Y-114176352D01*
X147702390Y-114217382D01*
X147704622Y-114262433D01*
X147706425Y-114311538D01*
X147707894Y-114364733D01*
X147709121Y-114422051D01*
X147710201Y-114483528D01*
X147711227Y-114549198D01*
X147712292Y-114619095D01*
X147713491Y-114693253D01*
X147714916Y-114771706D01*
X147716661Y-114854489D01*
X147718820Y-114941638D01*
X147721487Y-115033185D01*
X147724754Y-115129165D01*
X145655033Y-114633986D01*
X145639109Y-114625382D01*
X145624809Y-114611866D01*
X145612134Y-114593440D01*
X145601081Y-114570102D01*
X145591652Y-114541853D01*
X145583847Y-114508694D01*
X145577665Y-114470623D01*
X145573108Y-114427642D01*
X145570174Y-114379749D01*
X145568862Y-114326945D01*
X145569176Y-114269231D01*
X145571113Y-114206605D01*
X145574673Y-114139068D01*
X145579858Y-114066621D01*
X145586666Y-113989262D01*
X145595097Y-113906992D01*
X145605153Y-113819811D01*
X145655402Y-113732161D01*
X145702353Y-113692314D01*
X145750542Y-113658518D01*
X145799122Y-113631082D01*
X145847241Y-113610317D01*
X145894049Y-113596531D01*
X145938698Y-113590035D01*
X150838756Y-113302152D01*
X145126057Y-112052085D01*
X145070033Y-112039230D01*
X145014919Y-112028874D01*
X144960695Y-112020964D01*
X144907342Y-112015446D01*
X144854840Y-112012268D01*
X144803170Y-112011376D01*
X144752314Y-112012717D01*
X144702251Y-112016237D01*
X144652961Y-112021885D01*
X144604426Y-112029605D01*
X144556627Y-112039346D01*
X144509543Y-112051055D01*
X144463157Y-112064676D01*
X144417447Y-112080160D01*
X144372395Y-112097450D01*
X144327983Y-112116494D01*
X144284188Y-112137241D01*
X144240995Y-112159636D01*
X144198382Y-112183625D01*
X144156329Y-112209157D01*
X144114819Y-112236176D01*
X144073830Y-112264631D01*
X144033346Y-112294469D01*
X143993345Y-112325636D01*
X143950601Y-112367339D01*
X143914068Y-112407595D01*
X143883158Y-112447429D01*
X143857283Y-112487870D01*
X143835853Y-112529944D01*
X143818279Y-112574678D01*
X143803973Y-112623100D01*
X143792346Y-112676237D01*
X143742097Y-112763887D01*
X143733899Y-112779215D01*
X143726055Y-112795979D01*
X143718562Y-112814174D01*
X143711421Y-112833796D01*
X143704627Y-112854839D01*
X143698181Y-112877300D01*
X143692080Y-112901173D01*
X143686321Y-112926454D01*
X143680905Y-112953139D01*
X143675828Y-112981222D01*
X143671090Y-113010699D01*
X143666688Y-113041565D01*
X143662623Y-113073816D01*
X143658889Y-113107447D01*
X143655487Y-113142452D01*
X143652415Y-113178829D01*
X143649671Y-113216572D01*
X143647253Y-113255675D01*
X143645160Y-113296135D01*
X143643391Y-113337947D01*
X143641942Y-113381107D01*
X143640814Y-113425608D01*
X143640003Y-113471448D01*
X143639508Y-113518621D01*
X143639328Y-113567123D01*
X143639460Y-113616948D01*
X143639903Y-113668093D01*
X143640657Y-113720552D01*
X143641718Y-113774321D01*
X143643085Y-113829395D01*
X143644756Y-113885770D01*
X143646730Y-113943441D01*
X143649004Y-114002403D01*
X143651579Y-114062652D01*
X143654450Y-114124182D01*
X143657618Y-114186990D01*
X143661079Y-114251070D01*
X143664833Y-114316418D01*
X143668877Y-114383030D01*
X143673212Y-114450899D01*
X143677832Y-114520023D01*
X143682739Y-114590395D01*
X143687929Y-114662013D01*
X143693402Y-114734870D01*
X143699155Y-114808963D01*
X143705188Y-114884286D01*
X143711497Y-114960835D01*
X143718082Y-115038606D01*
X143724941Y-115117592D01*
X143732071Y-115197791D01*
X143739472Y-115279196D01*
X143747142Y-115361805D01*
X143755078Y-115445611D01*
X143763280Y-115530610D01*
X143857006Y-118270930D01*
X145809600Y-118670017D01*
X145760459Y-116052191D01*
X147830180Y-116547370D01*
X147831908Y-116552931D01*
X147833824Y-116560658D01*
X147835917Y-116570562D01*
X147838176Y-116582650D01*
X147840591Y-116596934D01*
X147843150Y-116613425D01*
X147845844Y-116632129D01*
X147848660Y-116653060D01*
X147851590Y-116676226D01*
X147854622Y-116701639D01*
X147857745Y-116729305D01*
X147860949Y-116759237D01*
X147864223Y-116791445D01*
X147867556Y-116825937D01*
X147870937Y-116862724D01*
X147874358Y-116901816D01*
X147877804Y-116943224D01*
X147881268Y-116986955D01*
X147884737Y-117033022D01*
X147888201Y-117081433D01*
X147891650Y-117132198D01*
X147895073Y-117185328D01*
X147898457Y-117240833D01*
X147901796Y-117298722D01*
X147905076Y-117359005D01*
X147908287Y-117421692D01*
X147911418Y-117486793D01*
X147914458Y-117554319D01*
X147917398Y-117624278D01*
X147920226Y-117696681D01*
X147922932Y-117771538D01*
X147925504Y-117848860D01*
X147927933Y-117928654D01*
X147930207Y-118010932D01*
X147932316Y-118095704D01*
X147934248Y-118182980D01*
X147935995Y-118272768D01*
X147937544Y-118365081D01*
X147938885Y-118459926D01*
X147940008Y-118557315D01*
X147940902Y-118657257D01*
X147949946Y-118743493D01*
X147956201Y-118821051D01*
X147960197Y-118890364D01*
X147962460Y-118951866D01*
X147963520Y-119005990D01*
X147963904Y-119053168D01*
X147964138Y-119093834D01*
X147964753Y-119128421D01*
X147966275Y-119157362D01*
X147969233Y-119181091D01*
X147974155Y-119200040D01*
X149854207Y-119625530D01*
X149850383Y-119526522D01*
X149846606Y-119428472D01*
X149842874Y-119331382D01*
X149839189Y-119235250D01*
X149835549Y-119140078D01*
X149831953Y-119045863D01*
X149828400Y-118952606D01*
X149824892Y-118860308D01*
X149821426Y-118768966D01*
X149818002Y-118678581D01*
X149814620Y-118589155D01*
X149811279Y-118500686D01*
X149807978Y-118413173D01*
X149804717Y-118326616D01*
X149801495Y-118241016D01*
X149798312Y-118156372D01*
X149795166Y-118072685D01*
X149792059Y-117989952D01*
X149788988Y-117908175D01*
X149785953Y-117827353D01*
X149782954Y-117747487D01*
X149779990Y-117668575D01*
X149777061Y-117590619D01*
X149774166Y-117513615D01*
X149771304Y-117437567D01*
X149768475Y-117362473D01*
X149765677Y-117288332D01*
X149762912Y-117215144D01*
X149760178Y-117142910D01*
X149757474Y-117071629D01*
X149754799Y-117001302D01*
X149752155Y-116931926D01*
X149749538Y-116863504D01*
X149746950Y-116796033D01*
X149744390Y-116729514D01*
X149741856Y-116663948D01*
X149739348Y-116599333D01*
X149736867Y-116535669D01*
X149734410Y-116472956D01*
X149731977Y-116411195D01*
X149729570Y-116350384D01*
X149727185Y-116290523D01*
X149724823Y-116231614D01*
X149722483Y-116173653D01*
X149720165Y-116116643D01*
X149717868Y-116060583D01*
X149715592Y-116005472D01*
X149713334Y-115951310D01*
X149711098Y-115898097D01*
X149708878Y-115845833D01*
X149706678Y-115794518D01*
X149704494Y-115744151D01*
X149702329Y-115694732D01*
X149700179Y-115646261D01*
X149698044Y-115598738D01*
X149695926Y-115552162D01*
X149693821Y-115506533D01*
X149691731Y-115461852D01*
X149689653Y-115418117D01*
X149687590Y-115375330D01*
X149685537Y-115333488D01*
X149683497Y-115292593D01*
X149681468Y-115252643D01*
X149679450Y-115213640D01*
X149677441Y-115175582D01*
X149675441Y-115138469D01*
X149673450Y-115102302D01*
X149671468Y-115067080D01*
X149669493Y-115032802D01*
X149667524Y-114999468D01*
X149665563Y-114967080D01*
X149663607Y-114935634D01*
X149661656Y-114905133D01*
X149659710Y-114875576D01*
X149657768Y-114846962D01*
X149655829Y-114819291D01*
X149653893Y-114792562D01*
X149651960Y-114766778D01*
X149650028Y-114741935D01*
X149648097Y-114718034D01*
X149646166Y-114695076D01*
X149644236Y-114673061D01*
X149642306Y-114651986D01*
X149640373Y-114631853D01*
X149638439Y-114612661D01*
X149636502Y-114594409D01*
X149634563Y-114577100D01*
X149632620Y-114560730D01*
X149630673Y-114545301D01*
X149628721Y-114530813D01*
X149626763Y-114517263D01*
X149624799Y-114504654D01*
X149622831Y-114492985D01*
X149620853Y-114482254D01*
X149618869Y-114472463D01*
X149616875Y-114463611D01*
X149614874Y-114455697D01*
X149612863Y-114448722D01*
X149610841Y-114442685D01*
X149685361Y-114376957D01*
X149757201Y-114313042D01*
X149826397Y-114250955D01*
X149892982Y-114190706D01*
X149956993Y-114132308D01*
X150018463Y-114075775D01*
X150077428Y-114021119D01*
X150133921Y-113968354D01*
X150187978Y-113917490D01*
X150239634Y-113868543D01*
X150288923Y-113821524D01*
X150335879Y-113776445D01*
X150380539Y-113733321D01*
X150422935Y-113692164D01*
X150463103Y-113652985D01*
X150501079Y-113615798D01*
X150536896Y-113580617D01*
X150570590Y-113547454D01*
X150602194Y-113516320D01*
X150631745Y-113487229D01*
X150659275Y-113460194D01*
X150684820Y-113435228D01*
X150708416Y-113412344D01*
X150730097Y-113391554D01*
X150749897Y-113372870D01*
X150767851Y-113356307D01*
X150783994Y-113341875D01*
X150798360Y-113329589D01*
X150810984Y-113319461D01*
X150821902Y-113311504D01*
X150831148Y-113305730D01*
X150838756Y-113302152D01*
X150838756Y-113302152D01*
G37*
G36*
X142866668Y-111487217D02*
X136702092Y-110124177D01*
X136702135Y-110126156D01*
X136702262Y-110132079D01*
X136702466Y-110141928D01*
X136702740Y-110155684D01*
X136703077Y-110173329D01*
X136703470Y-110194844D01*
X136703913Y-110220210D01*
X136704398Y-110249408D01*
X136704919Y-110282420D01*
X136705470Y-110319228D01*
X136706042Y-110359813D01*
X136706629Y-110404155D01*
X136707226Y-110452237D01*
X136707824Y-110504038D01*
X136708419Y-110559542D01*
X136709000Y-110618729D01*
X136709563Y-110681580D01*
X136710101Y-110748078D01*
X136710607Y-110818203D01*
X136711074Y-110891936D01*
X136711496Y-110969259D01*
X136711864Y-111050153D01*
X136712173Y-111134600D01*
X136712417Y-111222581D01*
X136712588Y-111314076D01*
X136712679Y-111409069D01*
X136712683Y-111507539D01*
X138592736Y-111933029D01*
X138600738Y-111931963D01*
X138608020Y-111934854D01*
X138614607Y-111941690D01*
X138620525Y-111952465D01*
X138625797Y-111967167D01*
X138630449Y-111985790D01*
X138634504Y-112008323D01*
X138637989Y-112034759D01*
X138640927Y-112065087D01*
X138643343Y-112099298D01*
X138645263Y-112137384D01*
X138646711Y-112179335D01*
X138647711Y-112225143D01*
X138648290Y-112274799D01*
X138648470Y-112328292D01*
X138648277Y-112385616D01*
X138647737Y-112446761D01*
X138646872Y-112511715D01*
X138645709Y-112580474D01*
X138644272Y-112653026D01*
X138642586Y-112729361D01*
X138640676Y-112809473D01*
X138638565Y-112893351D01*
X138636281Y-112980986D01*
X138633846Y-113072369D01*
X138631285Y-113167493D01*
X138632185Y-113170552D01*
X138633124Y-113174894D01*
X138634102Y-113180522D01*
X138635118Y-113187435D01*
X138636171Y-113195636D01*
X138637260Y-113205125D01*
X138638387Y-113215902D01*
X138639547Y-113227971D01*
X138640743Y-113241332D01*
X138641972Y-113255986D01*
X138643235Y-113271934D01*
X138644530Y-113289178D01*
X138645856Y-113307719D01*
X138647214Y-113327558D01*
X138648603Y-113348694D01*
X138650021Y-113371133D01*
X138651468Y-113394872D01*
X138652944Y-113419914D01*
X138654447Y-113446260D01*
X138655978Y-113473911D01*
X138657534Y-113502869D01*
X138659116Y-113533133D01*
X138660723Y-113564706D01*
X138662354Y-113597591D01*
X138664009Y-113631785D01*
X138665687Y-113667291D01*
X138667387Y-113704112D01*
X138669108Y-113742247D01*
X138670851Y-113781698D01*
X138672613Y-113822466D01*
X138674395Y-113864552D01*
X138676196Y-113907958D01*
X138678014Y-113952684D01*
X138679850Y-113998733D01*
X138681702Y-114046104D01*
X138683571Y-114094799D01*
X138685455Y-114144821D01*
X138687354Y-114196168D01*
X138689267Y-114248843D01*
X138691193Y-114302848D01*
X138693131Y-114358184D01*
X138695081Y-114414850D01*
X138697043Y-114472849D01*
X138699015Y-114532182D01*
X138700997Y-114592849D01*
X138702988Y-114654854D01*
X138704987Y-114718195D01*
X138706994Y-114782875D01*
X138709008Y-114848896D01*
X138711029Y-114916257D01*
X138713056Y-114984960D01*
X138715087Y-115055007D01*
X138717123Y-115126399D01*
X138719162Y-115199136D01*
X138721204Y-115273220D01*
X138723249Y-115348653D01*
X138725296Y-115425435D01*
X138727343Y-115503568D01*
X138729390Y-115583052D01*
X138731436Y-115663889D01*
X138733483Y-115746081D01*
X138735526Y-115829628D01*
X138737568Y-115914532D01*
X138739606Y-116000793D01*
X138741639Y-116088413D01*
X138743669Y-116177394D01*
X138745693Y-116267737D01*
X138747711Y-116359442D01*
X138749723Y-116452510D01*
X138751727Y-116546944D01*
X138753724Y-116642743D01*
X138755711Y-116739911D01*
X138757690Y-116838446D01*
X138759657Y-116938352D01*
X138761615Y-117039629D01*
X138763560Y-117142277D01*
X140738447Y-117602611D01*
X140737762Y-117600249D01*
X140737062Y-117596873D01*
X140736345Y-117592483D01*
X140735609Y-117587079D01*
X140734858Y-117580661D01*
X140734089Y-117573228D01*
X140733302Y-117564779D01*
X140732497Y-117555315D01*
X140731676Y-117544835D01*
X140730836Y-117533338D01*
X140729977Y-117520825D01*
X140729100Y-117507294D01*
X140728207Y-117492746D01*
X140727294Y-117477179D01*
X140726361Y-117460595D01*
X140725411Y-117442992D01*
X140724442Y-117424370D01*
X140723454Y-117404728D01*
X140722447Y-117384067D01*
X140721419Y-117362385D01*
X140720374Y-117339682D01*
X140719308Y-117315959D01*
X140718223Y-117291215D01*
X140717118Y-117265448D01*
X140715993Y-117238660D01*
X140714847Y-117210849D01*
X140713682Y-117182015D01*
X140712496Y-117152159D01*
X140711289Y-117121278D01*
X140710062Y-117089373D01*
X140708814Y-117056444D01*
X140707546Y-117022490D01*
X140706256Y-116987511D01*
X140704945Y-116951507D01*
X140703612Y-116914477D01*
X140702258Y-116876420D01*
X140700883Y-116837337D01*
X140699485Y-116797227D01*
X140698067Y-116756090D01*
X140696625Y-116713924D01*
X140695162Y-116670730D01*
X140693676Y-116626509D01*
X140692168Y-116581257D01*
X140690637Y-116534977D01*
X140689083Y-116487667D01*
X140687507Y-116439327D01*
X140685908Y-116389957D01*
X140684286Y-116339555D01*
X140682640Y-116288123D01*
X140680970Y-116235659D01*
X140679277Y-116182163D01*
X140677561Y-116127635D01*
X140675821Y-116072074D01*
X140674056Y-116015479D01*
X140672268Y-115957852D01*
X140670455Y-115899191D01*
X140668618Y-115839495D01*
X140666757Y-115778764D01*
X140664871Y-115716999D01*
X140662960Y-115654199D01*
X140661024Y-115590363D01*
X140659063Y-115525491D01*
X140657077Y-115459582D01*
X140655065Y-115392636D01*
X140653028Y-115324652D01*
X140650966Y-115255632D01*
X140648877Y-115185574D01*
X140646763Y-115114476D01*
X140644622Y-115042341D01*
X140642456Y-114969166D01*
X140640263Y-114894951D01*
X140638044Y-114819697D01*
X140635798Y-114743402D01*
X140633526Y-114666067D01*
X140631226Y-114587691D01*
X140628900Y-114508273D01*
X140626546Y-114427814D01*
X140624166Y-114346312D01*
X140621757Y-114263768D01*
X140619321Y-114180180D01*
X140616857Y-114095550D01*
X140614367Y-114009876D01*
X140611847Y-113923158D01*
X140609299Y-113835395D01*
X140606724Y-113746588D01*
X140604120Y-113656734D01*
X140601487Y-113565836D01*
X140598826Y-113473892D01*
X140596136Y-113380901D01*
X140593417Y-113286864D01*
X140590669Y-113191780D01*
X140587892Y-113095648D01*
X140585085Y-112998468D01*
X140582249Y-112900240D01*
X140579384Y-112800963D01*
X140576488Y-112700637D01*
X140573563Y-112599263D01*
X140570607Y-112496838D01*
X140567622Y-112393363D01*
X140640164Y-112366960D01*
X142877260Y-112870580D01*
X142877216Y-112868600D01*
X142877089Y-112862678D01*
X142876885Y-112852829D01*
X142876611Y-112839073D01*
X142876274Y-112821428D01*
X142875881Y-112799913D01*
X142875439Y-112774547D01*
X142874953Y-112745348D01*
X142874432Y-112712336D01*
X142873881Y-112675528D01*
X142873309Y-112634943D01*
X142872722Y-112590601D01*
X142872125Y-112542521D01*
X142871527Y-112490718D01*
X142870934Y-112435215D01*
X142870351Y-112376028D01*
X142869788Y-112313176D01*
X142869250Y-112246679D01*
X142868744Y-112176553D01*
X142868277Y-112102821D01*
X142867855Y-112025498D01*
X142867487Y-111944603D01*
X142867177Y-111860156D01*
X142866934Y-111772177D01*
X142866763Y-111680680D01*
X142866672Y-111585688D01*
X142866668Y-111487217D01*
X142866668Y-111487217D01*
G37*
G36*
X134559829Y-109655402D02*
X130347846Y-108691448D01*
X130355344Y-108783733D01*
X130362366Y-108872987D01*
X130368909Y-108959193D01*
X130374964Y-109042335D01*
X130380527Y-109122395D01*
X130385591Y-109199357D01*
X130390150Y-109273205D01*
X130394198Y-109343920D01*
X130397728Y-109411487D01*
X130400735Y-109475889D01*
X130403214Y-109537109D01*
X130405156Y-109595131D01*
X130406557Y-109649937D01*
X130407410Y-109701512D01*
X130407710Y-109749836D01*
X130407449Y-109794897D01*
X130406622Y-109836674D01*
X130405225Y-109875153D01*
X130403248Y-109910315D01*
X130400687Y-109942146D01*
X130397536Y-109970627D01*
X130393789Y-109995741D01*
X130389438Y-110017474D01*
X130384480Y-110035808D01*
X130378906Y-110050724D01*
X130372713Y-110062208D01*
X130365892Y-110070242D01*
X130358438Y-110074810D01*
X133047412Y-110691402D01*
X133089223Y-110711186D01*
X133121577Y-110736338D01*
X133147111Y-110767826D01*
X133168456Y-110806619D01*
X133188249Y-110853683D01*
X133209123Y-110909988D01*
X133158872Y-110997638D01*
X133150228Y-111010243D01*
X133138028Y-111024141D01*
X133122313Y-111039320D01*
X133103123Y-111055763D01*
X133080499Y-111073455D01*
X133054483Y-111092383D01*
X133025114Y-111112531D01*
X132992436Y-111133883D01*
X132956485Y-111156425D01*
X132917307Y-111180144D01*
X132874941Y-111205022D01*
X132829426Y-111231047D01*
X132780805Y-111258201D01*
X132729118Y-111286472D01*
X132674406Y-111315844D01*
X132616711Y-111346302D01*
X132556073Y-111377831D01*
X132492531Y-111410415D01*
X132426130Y-111444042D01*
X132356906Y-111478696D01*
X132284904Y-111514361D01*
X132210164Y-111551022D01*
X132128177Y-111590542D01*
X132048071Y-111629383D01*
X131969839Y-111667552D01*
X131893479Y-111705055D01*
X131818987Y-111741899D01*
X131746359Y-111778092D01*
X131675593Y-111813637D01*
X131606682Y-111848544D01*
X131539625Y-111882819D01*
X131474417Y-111916468D01*
X131411053Y-111949497D01*
X131349532Y-111981914D01*
X131289847Y-112013725D01*
X131231998Y-112044936D01*
X131175977Y-112075554D01*
X131121783Y-112105586D01*
X131069412Y-112135038D01*
X131018859Y-112163918D01*
X130970122Y-112192232D01*
X130923196Y-112219985D01*
X130878076Y-112247185D01*
X130834761Y-112273839D01*
X130793245Y-112299953D01*
X130753525Y-112325534D01*
X130715597Y-112350588D01*
X130679458Y-112375122D01*
X130645103Y-112399142D01*
X130612529Y-112422656D01*
X130581732Y-112445669D01*
X130552708Y-112468189D01*
X130525455Y-112490222D01*
X130499966Y-112511774D01*
X130476239Y-112532853D01*
X130454270Y-112553464D01*
X130434056Y-112573615D01*
X130415591Y-112593312D01*
X130398874Y-112612563D01*
X130383900Y-112631372D01*
X130370664Y-112649747D01*
X130359164Y-112667694D01*
X130349396Y-112685221D01*
X130341354Y-112702333D01*
X130335038Y-112719038D01*
X130308017Y-112744823D01*
X130279824Y-112773310D01*
X130250825Y-112804516D01*
X130221386Y-112838461D01*
X130191872Y-112875162D01*
X130162649Y-112914640D01*
X130134085Y-112956911D01*
X130106544Y-113001995D01*
X130080392Y-113049909D01*
X130055998Y-113100673D01*
X130033723Y-113154305D01*
X130013936Y-113210823D01*
X129997004Y-113270245D01*
X129983290Y-113332590D01*
X129963071Y-113387545D01*
X129944308Y-113441793D01*
X129927000Y-113495339D01*
X129911148Y-113548185D01*
X129896755Y-113600334D01*
X129883822Y-113651791D01*
X129872348Y-113702558D01*
X129862336Y-113752640D01*
X129853788Y-113802037D01*
X129846703Y-113850756D01*
X129841083Y-113898797D01*
X129836931Y-113946166D01*
X129834245Y-113992866D01*
X129833029Y-114038898D01*
X129833283Y-114084268D01*
X129835008Y-114128978D01*
X129838206Y-114173031D01*
X129842879Y-114216431D01*
X129849025Y-114259183D01*
X129856649Y-114301287D01*
X129865749Y-114342748D01*
X129876328Y-114383570D01*
X129888387Y-114423755D01*
X129901926Y-114463307D01*
X129916949Y-114502229D01*
X129933455Y-114540525D01*
X129951445Y-114578197D01*
X129970922Y-114615250D01*
X129991885Y-114651686D01*
X130014337Y-114687509D01*
X130038277Y-114722722D01*
X130063709Y-114757328D01*
X130090633Y-114791331D01*
X130119050Y-114824735D01*
X130148961Y-114857542D01*
X130180369Y-114889754D01*
X130213272Y-114921379D01*
X130247674Y-114952416D01*
X130283575Y-114982869D01*
X130320976Y-115012743D01*
X130359879Y-115042040D01*
X130400285Y-115070764D01*
X130442195Y-115098917D01*
X130485609Y-115126504D01*
X130530531Y-115153527D01*
X130576960Y-115179992D01*
X130624898Y-115205898D01*
X130674346Y-115231252D01*
X130718149Y-115247322D01*
X130762149Y-115263320D01*
X130806546Y-115279173D01*
X130851537Y-115294810D01*
X130897321Y-115310159D01*
X130944095Y-115325147D01*
X130992058Y-115339703D01*
X131041408Y-115353754D01*
X131092342Y-115367228D01*
X131145060Y-115380053D01*
X131199758Y-115392157D01*
X131256636Y-115403468D01*
X131315892Y-115413913D01*
X135600417Y-116351464D01*
X135545240Y-114845608D01*
X132331847Y-114142445D01*
X132266642Y-114127179D01*
X132205083Y-114110688D01*
X132147415Y-114092984D01*
X132093882Y-114074079D01*
X132044731Y-114053986D01*
X132000207Y-114032718D01*
X131960553Y-114010285D01*
X131926016Y-113986702D01*
X131896841Y-113961980D01*
X131873273Y-113936132D01*
X131855557Y-113909169D01*
X131843939Y-113881105D01*
X131838663Y-113851952D01*
X131839975Y-113821722D01*
X131848119Y-113790427D01*
X131863342Y-113758080D01*
X131869085Y-113737503D01*
X131878660Y-113716391D01*
X131892026Y-113694760D01*
X131909144Y-113672622D01*
X131929971Y-113649995D01*
X131954467Y-113626891D01*
X131982592Y-113603327D01*
X132014305Y-113579316D01*
X132049563Y-113554875D01*
X132088327Y-113530019D01*
X132130556Y-113504761D01*
X132176208Y-113479116D01*
X132225243Y-113453100D01*
X132277621Y-113426728D01*
X132333300Y-113400013D01*
X132392239Y-113372972D01*
X132454397Y-113345619D01*
X132519735Y-113317969D01*
X132588210Y-113290037D01*
X132659781Y-113261837D01*
X132734409Y-113233385D01*
X132812052Y-113204695D01*
X132899092Y-113164347D01*
X132984429Y-113124621D01*
X133068061Y-113085523D01*
X133149983Y-113047058D01*
X133230196Y-113009232D01*
X133308694Y-112972047D01*
X133385476Y-112935511D01*
X133460538Y-112899626D01*
X133533879Y-112864399D01*
X133605494Y-112829832D01*
X133675383Y-112795932D01*
X133743541Y-112762704D01*
X133809966Y-112730151D01*
X133874656Y-112698279D01*
X133937607Y-112667092D01*
X133998817Y-112636596D01*
X134058283Y-112606794D01*
X134116003Y-112577692D01*
X134171974Y-112549294D01*
X134226191Y-112521606D01*
X134278655Y-112494631D01*
X134329362Y-112468376D01*
X134378308Y-112442844D01*
X134425491Y-112418040D01*
X134470909Y-112393968D01*
X134514558Y-112370635D01*
X134556436Y-112348043D01*
X134596540Y-112326200D01*
X134634868Y-112305108D01*
X134671417Y-112284773D01*
X134706183Y-112265200D01*
X134739165Y-112246392D01*
X134770359Y-112228355D01*
X134799764Y-112211094D01*
X134827375Y-112194615D01*
X134853191Y-112178920D01*
X134877208Y-112164015D01*
X134899424Y-112149904D01*
X134919836Y-112136594D01*
X134938443Y-112124088D01*
X134955240Y-112112391D01*
X134970225Y-112101507D01*
X134983395Y-112091442D01*
X134994748Y-112082201D01*
X135004280Y-112073787D01*
X135011989Y-112066206D01*
X135017873Y-112059463D01*
X135021929Y-112053562D01*
X135076929Y-112020722D01*
X135128537Y-111986692D01*
X135176874Y-111951569D01*
X135222060Y-111915451D01*
X135264215Y-111878438D01*
X135303461Y-111840629D01*
X135339918Y-111802123D01*
X135373705Y-111763017D01*
X135404944Y-111723414D01*
X135433756Y-111683408D01*
X135460259Y-111643101D01*
X135484577Y-111602591D01*
X135506827Y-111561977D01*
X135527131Y-111521357D01*
X135545611Y-111480830D01*
X135562386Y-111440497D01*
X135577576Y-111400454D01*
X135591302Y-111360801D01*
X135569010Y-111299554D01*
X135589281Y-111251377D01*
X135608039Y-111203752D01*
X135625281Y-111156686D01*
X135641000Y-111110184D01*
X135655190Y-111064250D01*
X135667847Y-111018891D01*
X135678964Y-110974110D01*
X135688537Y-110929913D01*
X135696558Y-110886307D01*
X135703024Y-110843295D01*
X135707929Y-110800882D01*
X135711266Y-110759075D01*
X135713030Y-110717878D01*
X135713216Y-110677295D01*
X135711819Y-110637334D01*
X135708832Y-110597997D01*
X135704250Y-110559291D01*
X135698068Y-110521222D01*
X135690279Y-110483793D01*
X135680879Y-110447010D01*
X135669862Y-110410879D01*
X135657222Y-110375405D01*
X135642954Y-110340591D01*
X135627052Y-110306445D01*
X135609510Y-110272971D01*
X135590325Y-110240173D01*
X135569488Y-110208058D01*
X135546995Y-110176631D01*
X135522841Y-110145897D01*
X135497020Y-110115860D01*
X135469526Y-110086525D01*
X135440353Y-110057899D01*
X135409497Y-110029986D01*
X135376952Y-110002793D01*
X135342711Y-109976321D01*
X135306770Y-109950579D01*
X135269124Y-109925571D01*
X135229765Y-109901302D01*
X135188691Y-109877777D01*
X135145893Y-109855001D01*
X135101366Y-109832981D01*
X135055106Y-109811718D01*
X135007106Y-109791222D01*
X134957362Y-109771496D01*
X134905868Y-109752544D01*
X134852617Y-109734373D01*
X134797605Y-109716987D01*
X134740825Y-109700392D01*
X134682273Y-109684593D01*
X134621943Y-109669595D01*
X134559829Y-109655402D01*
X134559829Y-109655402D01*
G37*
M02*
