G04 #@! TF.FileFunction,Legend,Top*
%FSLAX46Y46*%
G04 Gerber Fmt 4.6, Leading zero omitted, Abs format (unit mm)*
G04 Created by KiCad (PCBNEW 4.0.7) date Monday, 02 July 2018 'PMt' 22:06:39*
%MOMM*%
%LPD*%
G01*
G04 APERTURE LIST*
%ADD10C,0.100000*%
%ADD11C,0.300000*%
%ADD12C,0.200000*%
%ADD13C,0.127000*%
%ADD14C,0.150000*%
%ADD15C,0.120000*%
%ADD16C,0.381000*%
%ADD17C,0.010000*%
%ADD18C,0.165100*%
%ADD19C,0.065024*%
G04 APERTURE END LIST*
D10*
D11*
X122657144Y-126278571D02*
X123014287Y-127278571D01*
X123371429Y-126278571D01*
X124228572Y-125778571D02*
X124371429Y-125778571D01*
X124514286Y-125850000D01*
X124585715Y-125921429D01*
X124657144Y-126064286D01*
X124728572Y-126350000D01*
X124728572Y-126707143D01*
X124657144Y-126992857D01*
X124585715Y-127135714D01*
X124514286Y-127207143D01*
X124371429Y-127278571D01*
X124228572Y-127278571D01*
X124085715Y-127207143D01*
X124014286Y-127135714D01*
X123942858Y-126992857D01*
X123871429Y-126707143D01*
X123871429Y-126350000D01*
X123942858Y-126064286D01*
X124014286Y-125921429D01*
X124085715Y-125850000D01*
X124228572Y-125778571D01*
X125371429Y-127135714D02*
X125442857Y-127207143D01*
X125371429Y-127278571D01*
X125300000Y-127207143D01*
X125371429Y-127135714D01*
X125371429Y-127278571D01*
X125942858Y-125778571D02*
X126871429Y-125778571D01*
X126371429Y-126350000D01*
X126585715Y-126350000D01*
X126728572Y-126421429D01*
X126800001Y-126492857D01*
X126871429Y-126635714D01*
X126871429Y-126992857D01*
X126800001Y-127135714D01*
X126728572Y-127207143D01*
X126585715Y-127278571D01*
X126157143Y-127278571D01*
X126014286Y-127207143D01*
X125942858Y-127135714D01*
D12*
X147947619Y-117711905D02*
X147947619Y-118330953D01*
X147566667Y-117997619D01*
X147566667Y-118140477D01*
X147519048Y-118235715D01*
X147471429Y-118283334D01*
X147376190Y-118330953D01*
X147138095Y-118330953D01*
X147042857Y-118283334D01*
X146995238Y-118235715D01*
X146947619Y-118140477D01*
X146947619Y-117854762D01*
X146995238Y-117759524D01*
X147042857Y-117711905D01*
X147947619Y-118616667D02*
X146947619Y-118950000D01*
X147947619Y-119283334D01*
X147947619Y-119521429D02*
X147947619Y-120140477D01*
X147566667Y-119807143D01*
X147566667Y-119950001D01*
X147519048Y-120045239D01*
X147471429Y-120092858D01*
X147376190Y-120140477D01*
X147138095Y-120140477D01*
X147042857Y-120092858D01*
X146995238Y-120045239D01*
X146947619Y-119950001D01*
X146947619Y-119664286D01*
X146995238Y-119569048D01*
X147042857Y-119521429D01*
X144595238Y-117630953D02*
X144547619Y-117773810D01*
X144547619Y-118011906D01*
X144595238Y-118107144D01*
X144642857Y-118154763D01*
X144738095Y-118202382D01*
X144833333Y-118202382D01*
X144928571Y-118154763D01*
X144976190Y-118107144D01*
X145023810Y-118011906D01*
X145071429Y-117821429D01*
X145119048Y-117726191D01*
X145166667Y-117678572D01*
X145261905Y-117630953D01*
X145357143Y-117630953D01*
X145452381Y-117678572D01*
X145500000Y-117726191D01*
X145547619Y-117821429D01*
X145547619Y-118059525D01*
X145500000Y-118202382D01*
X145547619Y-118535715D02*
X144547619Y-118773810D01*
X145261905Y-118964287D01*
X144547619Y-119154763D01*
X145547619Y-119392858D01*
X144547619Y-119773810D02*
X145547619Y-119773810D01*
X145547619Y-120011905D01*
X145500000Y-120154763D01*
X145404762Y-120250001D01*
X145309524Y-120297620D01*
X145119048Y-120345239D01*
X144976190Y-120345239D01*
X144785714Y-120297620D01*
X144690476Y-120250001D01*
X144595238Y-120154763D01*
X144547619Y-120011905D01*
X144547619Y-119773810D01*
X144547619Y-120773810D02*
X145547619Y-120773810D01*
X145547619Y-121440476D02*
X145547619Y-121630953D01*
X145500000Y-121726191D01*
X145404762Y-121821429D01*
X145214286Y-121869048D01*
X144880952Y-121869048D01*
X144690476Y-121821429D01*
X144595238Y-121726191D01*
X144547619Y-121630953D01*
X144547619Y-121440476D01*
X144595238Y-121345238D01*
X144690476Y-121250000D01*
X144880952Y-121202381D01*
X145214286Y-121202381D01*
X145404762Y-121250000D01*
X145500000Y-121345238D01*
X145547619Y-121440476D01*
X141995238Y-117638095D02*
X141947619Y-117780952D01*
X141947619Y-118019048D01*
X141995238Y-118114286D01*
X142042857Y-118161905D01*
X142138095Y-118209524D01*
X142233333Y-118209524D01*
X142328571Y-118161905D01*
X142376190Y-118114286D01*
X142423810Y-118019048D01*
X142471429Y-117828571D01*
X142519048Y-117733333D01*
X142566667Y-117685714D01*
X142661905Y-117638095D01*
X142757143Y-117638095D01*
X142852381Y-117685714D01*
X142900000Y-117733333D01*
X142947619Y-117828571D01*
X142947619Y-118066667D01*
X142900000Y-118209524D01*
X142947619Y-118542857D02*
X141947619Y-118780952D01*
X142661905Y-118971429D01*
X141947619Y-119161905D01*
X142947619Y-119400000D01*
X142042857Y-120352381D02*
X141995238Y-120304762D01*
X141947619Y-120161905D01*
X141947619Y-120066667D01*
X141995238Y-119923809D01*
X142090476Y-119828571D01*
X142185714Y-119780952D01*
X142376190Y-119733333D01*
X142519048Y-119733333D01*
X142709524Y-119780952D01*
X142804762Y-119828571D01*
X142900000Y-119923809D01*
X142947619Y-120066667D01*
X142947619Y-120161905D01*
X142900000Y-120304762D01*
X142852381Y-120352381D01*
X141947619Y-121257143D02*
X141947619Y-120780952D01*
X142947619Y-120780952D01*
X141947619Y-121590476D02*
X142947619Y-121590476D01*
X141947619Y-122161905D02*
X142519048Y-121733333D01*
X142947619Y-122161905D02*
X142376190Y-121590476D01*
X140300000Y-118188096D02*
X140347619Y-118092858D01*
X140347619Y-117950001D01*
X140300000Y-117807143D01*
X140204762Y-117711905D01*
X140109524Y-117664286D01*
X139919048Y-117616667D01*
X139776190Y-117616667D01*
X139585714Y-117664286D01*
X139490476Y-117711905D01*
X139395238Y-117807143D01*
X139347619Y-117950001D01*
X139347619Y-118045239D01*
X139395238Y-118188096D01*
X139442857Y-118235715D01*
X139776190Y-118235715D01*
X139776190Y-118045239D01*
X139347619Y-118664286D02*
X140347619Y-118664286D01*
X139347619Y-119235715D01*
X140347619Y-119235715D01*
X139347619Y-119711905D02*
X140347619Y-119711905D01*
X140347619Y-119950000D01*
X140300000Y-120092858D01*
X140204762Y-120188096D01*
X140109524Y-120235715D01*
X139919048Y-120283334D01*
X139776190Y-120283334D01*
X139585714Y-120235715D01*
X139490476Y-120188096D01*
X139395238Y-120092858D01*
X139347619Y-119950000D01*
X139347619Y-119711905D01*
X135500000Y-124000000D02*
G75*
G03X134000000Y-122500000I-1500000J0D01*
G01*
X136000000Y-124000000D02*
G75*
G03X134000000Y-122000000I-2000000J0D01*
G01*
X135000000Y-124000000D02*
G75*
G03X134000000Y-123000000I-1000000J0D01*
G01*
D11*
X123535715Y-124928571D02*
X122821429Y-124928571D01*
X122821429Y-123428571D01*
X124250001Y-124928571D02*
X124107143Y-124857143D01*
X124035715Y-124785714D01*
X123964286Y-124642857D01*
X123964286Y-124214286D01*
X124035715Y-124071429D01*
X124107143Y-124000000D01*
X124250001Y-123928571D01*
X124464286Y-123928571D01*
X124607143Y-124000000D01*
X124678572Y-124071429D01*
X124750001Y-124214286D01*
X124750001Y-124642857D01*
X124678572Y-124785714D01*
X124607143Y-124857143D01*
X124464286Y-124928571D01*
X124250001Y-124928571D01*
X126250001Y-124928571D02*
X125750001Y-124214286D01*
X125392858Y-124928571D02*
X125392858Y-123428571D01*
X125964286Y-123428571D01*
X126107144Y-123500000D01*
X126178572Y-123571429D01*
X126250001Y-123714286D01*
X126250001Y-123928571D01*
X126178572Y-124071429D01*
X126107144Y-124142857D01*
X125964286Y-124214286D01*
X125392858Y-124214286D01*
X127535715Y-124928571D02*
X127535715Y-124142857D01*
X127464286Y-124000000D01*
X127321429Y-123928571D01*
X127035715Y-123928571D01*
X126892858Y-124000000D01*
X127535715Y-124857143D02*
X127392858Y-124928571D01*
X127035715Y-124928571D01*
X126892858Y-124857143D01*
X126821429Y-124714286D01*
X126821429Y-124571429D01*
X126892858Y-124428571D01*
X127035715Y-124357143D01*
X127392858Y-124357143D01*
X127535715Y-124285714D01*
X129321429Y-124857143D02*
X129535715Y-124928571D01*
X129892858Y-124928571D01*
X130035715Y-124857143D01*
X130107144Y-124785714D01*
X130178572Y-124642857D01*
X130178572Y-124500000D01*
X130107144Y-124357143D01*
X130035715Y-124285714D01*
X129892858Y-124214286D01*
X129607144Y-124142857D01*
X129464286Y-124071429D01*
X129392858Y-124000000D01*
X129321429Y-123857143D01*
X129321429Y-123714286D01*
X129392858Y-123571429D01*
X129464286Y-123500000D01*
X129607144Y-123428571D01*
X129964286Y-123428571D01*
X130178572Y-123500000D01*
X130607143Y-123928571D02*
X131178572Y-123928571D01*
X130821429Y-123428571D02*
X130821429Y-124714286D01*
X130892857Y-124857143D01*
X131035715Y-124928571D01*
X131178572Y-124928571D01*
X131678572Y-124928571D02*
X131678572Y-123928571D01*
X131678572Y-123428571D02*
X131607143Y-123500000D01*
X131678572Y-123571429D01*
X131750000Y-123500000D01*
X131678572Y-123428571D01*
X131678572Y-123571429D01*
X133035715Y-124857143D02*
X132892858Y-124928571D01*
X132607144Y-124928571D01*
X132464286Y-124857143D01*
X132392858Y-124785714D01*
X132321429Y-124642857D01*
X132321429Y-124214286D01*
X132392858Y-124071429D01*
X132464286Y-124000000D01*
X132607144Y-123928571D01*
X132892858Y-123928571D01*
X133035715Y-124000000D01*
X133678572Y-124928571D02*
X133678572Y-123428571D01*
X133821429Y-124357143D02*
X134250000Y-124928571D01*
X134250000Y-123928571D02*
X133678572Y-124500000D01*
D13*
X111100000Y-104492000D02*
X111100000Y-112492000D01*
X117700000Y-105572000D02*
X117700000Y-106722000D01*
X117700000Y-110202000D02*
X117700000Y-111422000D01*
X115940000Y-104492000D02*
X114610000Y-104492000D01*
X115930000Y-112492000D02*
X114600000Y-112492000D01*
X112350000Y-104492000D02*
X111100000Y-104492000D01*
X112400000Y-112492000D02*
X111100000Y-112492000D01*
D14*
X133845000Y-108292000D02*
X134845000Y-108292000D01*
X134845000Y-106592000D02*
X133845000Y-106592000D01*
X150295000Y-110492000D02*
X150295000Y-111492000D01*
X151995000Y-111492000D02*
X151995000Y-110492000D01*
X133845000Y-111942000D02*
X134845000Y-111942000D01*
X134845000Y-110242000D02*
X133845000Y-110242000D01*
X121695000Y-106192000D02*
X121695000Y-105192000D01*
X119995000Y-105192000D02*
X119995000Y-106192000D01*
X129595000Y-105292000D02*
X129595000Y-106292000D01*
X131295000Y-106292000D02*
X131295000Y-105292000D01*
D15*
X127650000Y-100750000D02*
X124450000Y-100750000D01*
X124450000Y-99250000D02*
X127650000Y-99250000D01*
X124450000Y-99250000D02*
X124450000Y-100750000D01*
X127650000Y-117750000D02*
X124450000Y-117750000D01*
X124450000Y-116250000D02*
X127650000Y-116250000D01*
X124450000Y-116250000D02*
X124450000Y-117750000D01*
X138535000Y-114662000D02*
X138535000Y-117322000D01*
X146215000Y-114662000D02*
X138535000Y-114662000D01*
X146215000Y-117322000D02*
X138535000Y-117322000D01*
X146215000Y-114662000D02*
X146215000Y-117322000D01*
X147485000Y-114662000D02*
X148815000Y-114662000D01*
X148815000Y-114662000D02*
X148815000Y-115992000D01*
D14*
X133550000Y-99125000D02*
X134750000Y-99125000D01*
X134750000Y-100875000D02*
X133550000Y-100875000D01*
X133750000Y-116125000D02*
X134950000Y-116125000D01*
X134950000Y-117875000D02*
X133750000Y-117875000D01*
X135275000Y-103492000D02*
G75*
G03X135275000Y-103492000I-750000J0D01*
G01*
X136175000Y-102392000D02*
X136175000Y-102092000D01*
X136175000Y-102092000D02*
X132875000Y-102092000D01*
X132875000Y-102092000D02*
X132875000Y-102392000D01*
X136175000Y-104592000D02*
X136175000Y-104892000D01*
X136175000Y-104892000D02*
X132875000Y-104892000D01*
X132875000Y-104892000D02*
X132875000Y-104592000D01*
X140370000Y-110667000D02*
X140595000Y-110667000D01*
X140370000Y-103417000D02*
X140695000Y-103417000D01*
X147620000Y-103417000D02*
X147295000Y-103417000D01*
X147620000Y-110667000D02*
X147295000Y-110667000D01*
X140370000Y-110667000D02*
X140370000Y-110342000D01*
X147620000Y-110667000D02*
X147620000Y-110342000D01*
X147620000Y-103417000D02*
X147620000Y-103742000D01*
X140370000Y-103417000D02*
X140370000Y-103742000D01*
X140595000Y-110667000D02*
X140595000Y-112092000D01*
D12*
X152445000Y-117492000D02*
X152445000Y-101492000D01*
X168445000Y-101492000D02*
X168445000Y-117492000D01*
X153736550Y-119242000D02*
G75*
G03X153736550Y-119242000I-291550J0D01*
G01*
D16*
G36*
X153245000Y-119514600D02*
X153245000Y-118992000D01*
X153629640Y-118992000D01*
X153629640Y-119514600D01*
X153245000Y-119514600D01*
G37*
X153245000Y-119514600D02*
X153245000Y-118992000D01*
X153629640Y-118992000D01*
X153629640Y-119514600D01*
X153245000Y-119514600D01*
D15*
X122235000Y-109752000D02*
X123495000Y-109752000D01*
X129055000Y-109752000D02*
X127795000Y-109752000D01*
X122235000Y-105992000D02*
X122235000Y-109752000D01*
X129055000Y-103742000D02*
X129055000Y-109752000D01*
D17*
G36*
X161238048Y-124884469D02*
X161292678Y-124884584D01*
X161341279Y-124884798D01*
X161382972Y-124885106D01*
X161416877Y-124885503D01*
X161442114Y-124885985D01*
X161457803Y-124886546D01*
X161463067Y-124887166D01*
X161461093Y-124894025D01*
X161455663Y-124909457D01*
X161447512Y-124931556D01*
X161437375Y-124958412D01*
X161425988Y-124988118D01*
X161414086Y-125018766D01*
X161402405Y-125048447D01*
X161391679Y-125075254D01*
X161382645Y-125097279D01*
X161376993Y-125110481D01*
X161360230Y-125148273D01*
X161099793Y-125149992D01*
X161038766Y-125150408D01*
X160987984Y-125150814D01*
X160946400Y-125151261D01*
X160912969Y-125151800D01*
X160886647Y-125152483D01*
X160866388Y-125153360D01*
X160851148Y-125154484D01*
X160839881Y-125155905D01*
X160831542Y-125157675D01*
X160825086Y-125159846D01*
X160819469Y-125162467D01*
X160816778Y-125163894D01*
X160793416Y-125179106D01*
X160773188Y-125198526D01*
X160754966Y-125223783D01*
X160737626Y-125256510D01*
X160720044Y-125298336D01*
X160715189Y-125311185D01*
X160707358Y-125331822D01*
X160695940Y-125361251D01*
X160681595Y-125397803D01*
X160664981Y-125439812D01*
X160646760Y-125485608D01*
X160627589Y-125533525D01*
X160608616Y-125580688D01*
X160590241Y-125626395D01*
X160573110Y-125669310D01*
X160557712Y-125708193D01*
X160544531Y-125741804D01*
X160534053Y-125768901D01*
X160526765Y-125788245D01*
X160523152Y-125798595D01*
X160522928Y-125799411D01*
X160519220Y-125814933D01*
X161021359Y-125814933D01*
X161076339Y-125932055D01*
X161092845Y-125967406D01*
X161108337Y-126000935D01*
X161121953Y-126030746D01*
X161132829Y-126054946D01*
X161140102Y-126071640D01*
X161141888Y-126075988D01*
X161152457Y-126102800D01*
X160685462Y-126102550D01*
X160601915Y-126102497D01*
X160528908Y-126102423D01*
X160465694Y-126102311D01*
X160411523Y-126102143D01*
X160365648Y-126101902D01*
X160327319Y-126101572D01*
X160295789Y-126101135D01*
X160270309Y-126100574D01*
X160250131Y-126099872D01*
X160234507Y-126099012D01*
X160222687Y-126097977D01*
X160213924Y-126096749D01*
X160207469Y-126095313D01*
X160202574Y-126093650D01*
X160198490Y-126091743D01*
X160197878Y-126091423D01*
X160168128Y-126069531D01*
X160144680Y-126039458D01*
X160128464Y-126002954D01*
X160120414Y-125961767D01*
X160119689Y-125944633D01*
X160121465Y-125919238D01*
X160126944Y-125888459D01*
X160136352Y-125851603D01*
X160149915Y-125807977D01*
X160167860Y-125756886D01*
X160190413Y-125697637D01*
X160217799Y-125629535D01*
X160239071Y-125578358D01*
X160255246Y-125539239D01*
X160273025Y-125495214D01*
X160290616Y-125450785D01*
X160306226Y-125410451D01*
X160311425Y-125396709D01*
X160336735Y-125330405D01*
X160362653Y-125264678D01*
X160388289Y-125201694D01*
X160412750Y-125143617D01*
X160435146Y-125092615D01*
X160448729Y-125063103D01*
X160477270Y-125010395D01*
X160508715Y-124967763D01*
X160544005Y-124934165D01*
X160584081Y-124908560D01*
X160591714Y-124904796D01*
X160630511Y-124886422D01*
X161046789Y-124884772D01*
X161114224Y-124884558D01*
X161178270Y-124884459D01*
X161238048Y-124884469D01*
X161238048Y-124884469D01*
G37*
X161238048Y-124884469D02*
X161292678Y-124884584D01*
X161341279Y-124884798D01*
X161382972Y-124885106D01*
X161416877Y-124885503D01*
X161442114Y-124885985D01*
X161457803Y-124886546D01*
X161463067Y-124887166D01*
X161461093Y-124894025D01*
X161455663Y-124909457D01*
X161447512Y-124931556D01*
X161437375Y-124958412D01*
X161425988Y-124988118D01*
X161414086Y-125018766D01*
X161402405Y-125048447D01*
X161391679Y-125075254D01*
X161382645Y-125097279D01*
X161376993Y-125110481D01*
X161360230Y-125148273D01*
X161099793Y-125149992D01*
X161038766Y-125150408D01*
X160987984Y-125150814D01*
X160946400Y-125151261D01*
X160912969Y-125151800D01*
X160886647Y-125152483D01*
X160866388Y-125153360D01*
X160851148Y-125154484D01*
X160839881Y-125155905D01*
X160831542Y-125157675D01*
X160825086Y-125159846D01*
X160819469Y-125162467D01*
X160816778Y-125163894D01*
X160793416Y-125179106D01*
X160773188Y-125198526D01*
X160754966Y-125223783D01*
X160737626Y-125256510D01*
X160720044Y-125298336D01*
X160715189Y-125311185D01*
X160707358Y-125331822D01*
X160695940Y-125361251D01*
X160681595Y-125397803D01*
X160664981Y-125439812D01*
X160646760Y-125485608D01*
X160627589Y-125533525D01*
X160608616Y-125580688D01*
X160590241Y-125626395D01*
X160573110Y-125669310D01*
X160557712Y-125708193D01*
X160544531Y-125741804D01*
X160534053Y-125768901D01*
X160526765Y-125788245D01*
X160523152Y-125798595D01*
X160522928Y-125799411D01*
X160519220Y-125814933D01*
X161021359Y-125814933D01*
X161076339Y-125932055D01*
X161092845Y-125967406D01*
X161108337Y-126000935D01*
X161121953Y-126030746D01*
X161132829Y-126054946D01*
X161140102Y-126071640D01*
X161141888Y-126075988D01*
X161152457Y-126102800D01*
X160685462Y-126102550D01*
X160601915Y-126102497D01*
X160528908Y-126102423D01*
X160465694Y-126102311D01*
X160411523Y-126102143D01*
X160365648Y-126101902D01*
X160327319Y-126101572D01*
X160295789Y-126101135D01*
X160270309Y-126100574D01*
X160250131Y-126099872D01*
X160234507Y-126099012D01*
X160222687Y-126097977D01*
X160213924Y-126096749D01*
X160207469Y-126095313D01*
X160202574Y-126093650D01*
X160198490Y-126091743D01*
X160197878Y-126091423D01*
X160168128Y-126069531D01*
X160144680Y-126039458D01*
X160128464Y-126002954D01*
X160120414Y-125961767D01*
X160119689Y-125944633D01*
X160121465Y-125919238D01*
X160126944Y-125888459D01*
X160136352Y-125851603D01*
X160149915Y-125807977D01*
X160167860Y-125756886D01*
X160190413Y-125697637D01*
X160217799Y-125629535D01*
X160239071Y-125578358D01*
X160255246Y-125539239D01*
X160273025Y-125495214D01*
X160290616Y-125450785D01*
X160306226Y-125410451D01*
X160311425Y-125396709D01*
X160336735Y-125330405D01*
X160362653Y-125264678D01*
X160388289Y-125201694D01*
X160412750Y-125143617D01*
X160435146Y-125092615D01*
X160448729Y-125063103D01*
X160477270Y-125010395D01*
X160508715Y-124967763D01*
X160544005Y-124934165D01*
X160584081Y-124908560D01*
X160591714Y-124904796D01*
X160630511Y-124886422D01*
X161046789Y-124884772D01*
X161114224Y-124884558D01*
X161178270Y-124884459D01*
X161238048Y-124884469D01*
G36*
X161991604Y-124884512D02*
X162081446Y-124884699D01*
X162155922Y-124884912D01*
X162247790Y-124885213D01*
X162329057Y-124885513D01*
X162400409Y-124885826D01*
X162462536Y-124886166D01*
X162516124Y-124886545D01*
X162561861Y-124886978D01*
X162600434Y-124887477D01*
X162632531Y-124888056D01*
X162658840Y-124888729D01*
X162680048Y-124889509D01*
X162696842Y-124890410D01*
X162709911Y-124891445D01*
X162719942Y-124892628D01*
X162727622Y-124893971D01*
X162733638Y-124895490D01*
X162736135Y-124896284D01*
X162772439Y-124914287D01*
X162802406Y-124940922D01*
X162825079Y-124974894D01*
X162839502Y-125014910D01*
X162843857Y-125041918D01*
X162844487Y-125063724D01*
X162842427Y-125088488D01*
X162837413Y-125117055D01*
X162829176Y-125150274D01*
X162817453Y-125188988D01*
X162801978Y-125234046D01*
X162782483Y-125286293D01*
X162758705Y-125346575D01*
X162730376Y-125415738D01*
X162714577Y-125453546D01*
X162701817Y-125484323D01*
X162685671Y-125523910D01*
X162666826Y-125570588D01*
X162645970Y-125622640D01*
X162623788Y-125678347D01*
X162600969Y-125735991D01*
X162578198Y-125793853D01*
X162561115Y-125837511D01*
X162458698Y-126099977D01*
X162276971Y-126101467D01*
X162221939Y-126101747D01*
X162176292Y-126101616D01*
X162140418Y-126101083D01*
X162114706Y-126100157D01*
X162099547Y-126098847D01*
X162095244Y-126097387D01*
X162097248Y-126091110D01*
X162102975Y-126075444D01*
X162111999Y-126051501D01*
X162123895Y-126020391D01*
X162138237Y-125983223D01*
X162154598Y-125941109D01*
X162172554Y-125895159D01*
X162183487Y-125867297D01*
X162202274Y-125819431D01*
X162219821Y-125774594D01*
X162235686Y-125733926D01*
X162249427Y-125698565D01*
X162260603Y-125669652D01*
X162268770Y-125648324D01*
X162273487Y-125635722D01*
X162274457Y-125632900D01*
X162274610Y-125630223D01*
X162272702Y-125628077D01*
X162267631Y-125626404D01*
X162258298Y-125625146D01*
X162243601Y-125624243D01*
X162222441Y-125623638D01*
X162193716Y-125623272D01*
X162156327Y-125623088D01*
X162109173Y-125623025D01*
X162088199Y-125623022D01*
X161899215Y-125623022D01*
X161867853Y-125697811D01*
X161856878Y-125724256D01*
X161842743Y-125758736D01*
X161826445Y-125798791D01*
X161808983Y-125841961D01*
X161791356Y-125885785D01*
X161779274Y-125915987D01*
X161763634Y-125954964D01*
X161748791Y-125991542D01*
X161735421Y-126024091D01*
X161724198Y-126050981D01*
X161715796Y-126070583D01*
X161710981Y-126081087D01*
X161699904Y-126102800D01*
X161522218Y-126102800D01*
X161466748Y-126102620D01*
X161421286Y-126102088D01*
X161386102Y-126101212D01*
X161361464Y-126100001D01*
X161347641Y-126098463D01*
X161344533Y-126097110D01*
X161346577Y-126091084D01*
X161352459Y-126075526D01*
X161361803Y-126051380D01*
X161374233Y-126019587D01*
X161389374Y-125981091D01*
X161406850Y-125936833D01*
X161426286Y-125887755D01*
X161447306Y-125834801D01*
X161469534Y-125778912D01*
X161492595Y-125721030D01*
X161516114Y-125662098D01*
X161539714Y-125603059D01*
X161563020Y-125544854D01*
X161585657Y-125488426D01*
X161607249Y-125434717D01*
X161627419Y-125384669D01*
X161638249Y-125357883D01*
X162004974Y-125357883D01*
X162195453Y-125356397D01*
X162385933Y-125354911D01*
X162403869Y-125318222D01*
X162414834Y-125293332D01*
X162426014Y-125264029D01*
X162434571Y-125238002D01*
X162440891Y-125214971D01*
X162443703Y-125199677D01*
X162443301Y-125189226D01*
X162440282Y-125181291D01*
X162435464Y-125172989D01*
X162430027Y-125166398D01*
X162422681Y-125161303D01*
X162412136Y-125157490D01*
X162397102Y-125154743D01*
X162376290Y-125152849D01*
X162348408Y-125151592D01*
X162312169Y-125150759D01*
X162266280Y-125150135D01*
X162251993Y-125149973D01*
X162095475Y-125148236D01*
X162084109Y-125166907D01*
X162075733Y-125182917D01*
X162064224Y-125208318D01*
X162050122Y-125241828D01*
X162033970Y-125282163D01*
X162018397Y-125322530D01*
X162004974Y-125357883D01*
X161638249Y-125357883D01*
X161645794Y-125339225D01*
X161661997Y-125299328D01*
X161675652Y-125265918D01*
X161681497Y-125251723D01*
X161724128Y-125148535D01*
X161664153Y-125022203D01*
X161647616Y-124987124D01*
X161632826Y-124955275D01*
X161620441Y-124928116D01*
X161611122Y-124907109D01*
X161605530Y-124893712D01*
X161604178Y-124889525D01*
X161607421Y-124888408D01*
X161617431Y-124887437D01*
X161634630Y-124886609D01*
X161659436Y-124885920D01*
X161692271Y-124885366D01*
X161733556Y-124884945D01*
X161783711Y-124884653D01*
X161843157Y-124884485D01*
X161912315Y-124884440D01*
X161991604Y-124884512D01*
X161991604Y-124884512D01*
G37*
X161991604Y-124884512D02*
X162081446Y-124884699D01*
X162155922Y-124884912D01*
X162247790Y-124885213D01*
X162329057Y-124885513D01*
X162400409Y-124885826D01*
X162462536Y-124886166D01*
X162516124Y-124886545D01*
X162561861Y-124886978D01*
X162600434Y-124887477D01*
X162632531Y-124888056D01*
X162658840Y-124888729D01*
X162680048Y-124889509D01*
X162696842Y-124890410D01*
X162709911Y-124891445D01*
X162719942Y-124892628D01*
X162727622Y-124893971D01*
X162733638Y-124895490D01*
X162736135Y-124896284D01*
X162772439Y-124914287D01*
X162802406Y-124940922D01*
X162825079Y-124974894D01*
X162839502Y-125014910D01*
X162843857Y-125041918D01*
X162844487Y-125063724D01*
X162842427Y-125088488D01*
X162837413Y-125117055D01*
X162829176Y-125150274D01*
X162817453Y-125188988D01*
X162801978Y-125234046D01*
X162782483Y-125286293D01*
X162758705Y-125346575D01*
X162730376Y-125415738D01*
X162714577Y-125453546D01*
X162701817Y-125484323D01*
X162685671Y-125523910D01*
X162666826Y-125570588D01*
X162645970Y-125622640D01*
X162623788Y-125678347D01*
X162600969Y-125735991D01*
X162578198Y-125793853D01*
X162561115Y-125837511D01*
X162458698Y-126099977D01*
X162276971Y-126101467D01*
X162221939Y-126101747D01*
X162176292Y-126101616D01*
X162140418Y-126101083D01*
X162114706Y-126100157D01*
X162099547Y-126098847D01*
X162095244Y-126097387D01*
X162097248Y-126091110D01*
X162102975Y-126075444D01*
X162111999Y-126051501D01*
X162123895Y-126020391D01*
X162138237Y-125983223D01*
X162154598Y-125941109D01*
X162172554Y-125895159D01*
X162183487Y-125867297D01*
X162202274Y-125819431D01*
X162219821Y-125774594D01*
X162235686Y-125733926D01*
X162249427Y-125698565D01*
X162260603Y-125669652D01*
X162268770Y-125648324D01*
X162273487Y-125635722D01*
X162274457Y-125632900D01*
X162274610Y-125630223D01*
X162272702Y-125628077D01*
X162267631Y-125626404D01*
X162258298Y-125625146D01*
X162243601Y-125624243D01*
X162222441Y-125623638D01*
X162193716Y-125623272D01*
X162156327Y-125623088D01*
X162109173Y-125623025D01*
X162088199Y-125623022D01*
X161899215Y-125623022D01*
X161867853Y-125697811D01*
X161856878Y-125724256D01*
X161842743Y-125758736D01*
X161826445Y-125798791D01*
X161808983Y-125841961D01*
X161791356Y-125885785D01*
X161779274Y-125915987D01*
X161763634Y-125954964D01*
X161748791Y-125991542D01*
X161735421Y-126024091D01*
X161724198Y-126050981D01*
X161715796Y-126070583D01*
X161710981Y-126081087D01*
X161699904Y-126102800D01*
X161522218Y-126102800D01*
X161466748Y-126102620D01*
X161421286Y-126102088D01*
X161386102Y-126101212D01*
X161361464Y-126100001D01*
X161347641Y-126098463D01*
X161344533Y-126097110D01*
X161346577Y-126091084D01*
X161352459Y-126075526D01*
X161361803Y-126051380D01*
X161374233Y-126019587D01*
X161389374Y-125981091D01*
X161406850Y-125936833D01*
X161426286Y-125887755D01*
X161447306Y-125834801D01*
X161469534Y-125778912D01*
X161492595Y-125721030D01*
X161516114Y-125662098D01*
X161539714Y-125603059D01*
X161563020Y-125544854D01*
X161585657Y-125488426D01*
X161607249Y-125434717D01*
X161627419Y-125384669D01*
X161638249Y-125357883D01*
X162004974Y-125357883D01*
X162195453Y-125356397D01*
X162385933Y-125354911D01*
X162403869Y-125318222D01*
X162414834Y-125293332D01*
X162426014Y-125264029D01*
X162434571Y-125238002D01*
X162440891Y-125214971D01*
X162443703Y-125199677D01*
X162443301Y-125189226D01*
X162440282Y-125181291D01*
X162435464Y-125172989D01*
X162430027Y-125166398D01*
X162422681Y-125161303D01*
X162412136Y-125157490D01*
X162397102Y-125154743D01*
X162376290Y-125152849D01*
X162348408Y-125151592D01*
X162312169Y-125150759D01*
X162266280Y-125150135D01*
X162251993Y-125149973D01*
X162095475Y-125148236D01*
X162084109Y-125166907D01*
X162075733Y-125182917D01*
X162064224Y-125208318D01*
X162050122Y-125241828D01*
X162033970Y-125282163D01*
X162018397Y-125322530D01*
X162004974Y-125357883D01*
X161638249Y-125357883D01*
X161645794Y-125339225D01*
X161661997Y-125299328D01*
X161675652Y-125265918D01*
X161681497Y-125251723D01*
X161724128Y-125148535D01*
X161664153Y-125022203D01*
X161647616Y-124987124D01*
X161632826Y-124955275D01*
X161620441Y-124928116D01*
X161611122Y-124907109D01*
X161605530Y-124893712D01*
X161604178Y-124889525D01*
X161607421Y-124888408D01*
X161617431Y-124887437D01*
X161634630Y-124886609D01*
X161659436Y-124885920D01*
X161692271Y-124885366D01*
X161733556Y-124884945D01*
X161783711Y-124884653D01*
X161843157Y-124884485D01*
X161912315Y-124884440D01*
X161991604Y-124884512D01*
G36*
X163755374Y-124883101D02*
X163822832Y-124883233D01*
X163887829Y-124883459D01*
X163949452Y-124883780D01*
X164006786Y-124884198D01*
X164058917Y-124884713D01*
X164104930Y-124885326D01*
X164143912Y-124886038D01*
X164174947Y-124886850D01*
X164197123Y-124887762D01*
X164209524Y-124888777D01*
X164211911Y-124889498D01*
X164209955Y-124896219D01*
X164204462Y-124911933D01*
X164195993Y-124935116D01*
X164185111Y-124964244D01*
X164172378Y-124997792D01*
X164163028Y-125022143D01*
X164114145Y-125148888D01*
X163760546Y-125148888D01*
X163745454Y-125178522D01*
X163738093Y-125194315D01*
X163727915Y-125217989D01*
X163716042Y-125246847D01*
X163703596Y-125278188D01*
X163697939Y-125292822D01*
X163683802Y-125329324D01*
X163668042Y-125369348D01*
X163652408Y-125408488D01*
X163638650Y-125442339D01*
X163636295Y-125448044D01*
X163628575Y-125466927D01*
X163617221Y-125495035D01*
X163602744Y-125531092D01*
X163585652Y-125573824D01*
X163566455Y-125621953D01*
X163545661Y-125674203D01*
X163523781Y-125729300D01*
X163501324Y-125785967D01*
X163492095Y-125809288D01*
X163377116Y-126099977D01*
X163004534Y-126102951D01*
X163010030Y-126087353D01*
X163012913Y-126079863D01*
X163019678Y-126062678D01*
X163030011Y-126036583D01*
X163043599Y-126002364D01*
X163060129Y-125960807D01*
X163079290Y-125912698D01*
X163100767Y-125858822D01*
X163124248Y-125799965D01*
X163149419Y-125736912D01*
X163175969Y-125670449D01*
X163198310Y-125614555D01*
X163225575Y-125546237D01*
X163251550Y-125480915D01*
X163275940Y-125419347D01*
X163298447Y-125362294D01*
X163318775Y-125310515D01*
X163336627Y-125264770D01*
X163351707Y-125225819D01*
X163363717Y-125194422D01*
X163372362Y-125171338D01*
X163377345Y-125157327D01*
X163378481Y-125153122D01*
X163372431Y-125152149D01*
X163356372Y-125151255D01*
X163331587Y-125150466D01*
X163299357Y-125149809D01*
X163260961Y-125149309D01*
X163217682Y-125148994D01*
X163172620Y-125148888D01*
X162969372Y-125148888D01*
X162973231Y-125136188D01*
X162975990Y-125128292D01*
X162982035Y-125111676D01*
X162990676Y-125088190D01*
X163001227Y-125059682D01*
X163013000Y-125028001D01*
X163025307Y-124994993D01*
X163037461Y-124962509D01*
X163048773Y-124932394D01*
X163058556Y-124906499D01*
X163064593Y-124890655D01*
X163070502Y-124889562D01*
X163086749Y-124888550D01*
X163112421Y-124887620D01*
X163146604Y-124886774D01*
X163188383Y-124886013D01*
X163236844Y-124885336D01*
X163291073Y-124884746D01*
X163350155Y-124884242D01*
X163413176Y-124883827D01*
X163479223Y-124883500D01*
X163547380Y-124883263D01*
X163616734Y-124883117D01*
X163686370Y-124883063D01*
X163755374Y-124883101D01*
X163755374Y-124883101D01*
G37*
X163755374Y-124883101D02*
X163822832Y-124883233D01*
X163887829Y-124883459D01*
X163949452Y-124883780D01*
X164006786Y-124884198D01*
X164058917Y-124884713D01*
X164104930Y-124885326D01*
X164143912Y-124886038D01*
X164174947Y-124886850D01*
X164197123Y-124887762D01*
X164209524Y-124888777D01*
X164211911Y-124889498D01*
X164209955Y-124896219D01*
X164204462Y-124911933D01*
X164195993Y-124935116D01*
X164185111Y-124964244D01*
X164172378Y-124997792D01*
X164163028Y-125022143D01*
X164114145Y-125148888D01*
X163760546Y-125148888D01*
X163745454Y-125178522D01*
X163738093Y-125194315D01*
X163727915Y-125217989D01*
X163716042Y-125246847D01*
X163703596Y-125278188D01*
X163697939Y-125292822D01*
X163683802Y-125329324D01*
X163668042Y-125369348D01*
X163652408Y-125408488D01*
X163638650Y-125442339D01*
X163636295Y-125448044D01*
X163628575Y-125466927D01*
X163617221Y-125495035D01*
X163602744Y-125531092D01*
X163585652Y-125573824D01*
X163566455Y-125621953D01*
X163545661Y-125674203D01*
X163523781Y-125729300D01*
X163501324Y-125785967D01*
X163492095Y-125809288D01*
X163377116Y-126099977D01*
X163004534Y-126102951D01*
X163010030Y-126087353D01*
X163012913Y-126079863D01*
X163019678Y-126062678D01*
X163030011Y-126036583D01*
X163043599Y-126002364D01*
X163060129Y-125960807D01*
X163079290Y-125912698D01*
X163100767Y-125858822D01*
X163124248Y-125799965D01*
X163149419Y-125736912D01*
X163175969Y-125670449D01*
X163198310Y-125614555D01*
X163225575Y-125546237D01*
X163251550Y-125480915D01*
X163275940Y-125419347D01*
X163298447Y-125362294D01*
X163318775Y-125310515D01*
X163336627Y-125264770D01*
X163351707Y-125225819D01*
X163363717Y-125194422D01*
X163372362Y-125171338D01*
X163377345Y-125157327D01*
X163378481Y-125153122D01*
X163372431Y-125152149D01*
X163356372Y-125151255D01*
X163331587Y-125150466D01*
X163299357Y-125149809D01*
X163260961Y-125149309D01*
X163217682Y-125148994D01*
X163172620Y-125148888D01*
X162969372Y-125148888D01*
X162973231Y-125136188D01*
X162975990Y-125128292D01*
X162982035Y-125111676D01*
X162990676Y-125088190D01*
X163001227Y-125059682D01*
X163013000Y-125028001D01*
X163025307Y-124994993D01*
X163037461Y-124962509D01*
X163048773Y-124932394D01*
X163058556Y-124906499D01*
X163064593Y-124890655D01*
X163070502Y-124889562D01*
X163086749Y-124888550D01*
X163112421Y-124887620D01*
X163146604Y-124886774D01*
X163188383Y-124886013D01*
X163236844Y-124885336D01*
X163291073Y-124884746D01*
X163350155Y-124884242D01*
X163413176Y-124883827D01*
X163479223Y-124883500D01*
X163547380Y-124883263D01*
X163616734Y-124883117D01*
X163686370Y-124883063D01*
X163755374Y-124883101D01*
G36*
X165198718Y-124884699D02*
X165248882Y-124884872D01*
X165292225Y-124885141D01*
X165327884Y-124885501D01*
X165354996Y-124885947D01*
X165372699Y-124886477D01*
X165380131Y-124887084D01*
X165380311Y-124887201D01*
X165378310Y-124893399D01*
X165372704Y-124908536D01*
X165364083Y-124931072D01*
X165353040Y-124959467D01*
X165340167Y-124992181D01*
X165333022Y-125010198D01*
X165319220Y-125044975D01*
X165306707Y-125076623D01*
X165296129Y-125103502D01*
X165288131Y-125123970D01*
X165283358Y-125136386D01*
X165282399Y-125139011D01*
X165280996Y-125141373D01*
X165277873Y-125143327D01*
X165272043Y-125144912D01*
X165262522Y-125146166D01*
X165248323Y-125147127D01*
X165228463Y-125147835D01*
X165201955Y-125148327D01*
X165167813Y-125148642D01*
X165125054Y-125148818D01*
X165072691Y-125148895D01*
X165029121Y-125148909D01*
X164969298Y-125148936D01*
X164919712Y-125149033D01*
X164879314Y-125149244D01*
X164847053Y-125149611D01*
X164821877Y-125150177D01*
X164802737Y-125150985D01*
X164788581Y-125152077D01*
X164778359Y-125153497D01*
X164771019Y-125155286D01*
X164765512Y-125157489D01*
X164761337Y-125159809D01*
X164748349Y-125169648D01*
X164741059Y-125180579D01*
X164739911Y-125193428D01*
X164745348Y-125209019D01*
X164757812Y-125228176D01*
X164777746Y-125251723D01*
X164805594Y-125280485D01*
X164841798Y-125315286D01*
X164848016Y-125321115D01*
X164895800Y-125366648D01*
X164940644Y-125411052D01*
X164981397Y-125453113D01*
X165016912Y-125491615D01*
X165046037Y-125525346D01*
X165067622Y-125553089D01*
X165067657Y-125553137D01*
X165091533Y-125594299D01*
X165110277Y-125642812D01*
X165122771Y-125695471D01*
X165126156Y-125720642D01*
X165128329Y-125770326D01*
X165125437Y-125821146D01*
X165117947Y-125870341D01*
X165106327Y-125915147D01*
X165091046Y-125952802D01*
X165084956Y-125963721D01*
X165060784Y-125995840D01*
X165029356Y-126026773D01*
X164994477Y-126053086D01*
X164971144Y-126066387D01*
X164958052Y-126072798D01*
X164946218Y-126078409D01*
X164934833Y-126083274D01*
X164923086Y-126087445D01*
X164910167Y-126090976D01*
X164895266Y-126093921D01*
X164877571Y-126096332D01*
X164856272Y-126098262D01*
X164830560Y-126099766D01*
X164799623Y-126100895D01*
X164762651Y-126101704D01*
X164718834Y-126102246D01*
X164667362Y-126102573D01*
X164607423Y-126102739D01*
X164538208Y-126102797D01*
X164458906Y-126102801D01*
X164416747Y-126102800D01*
X164344682Y-126102739D01*
X164276568Y-126102563D01*
X164213201Y-126102280D01*
X164155379Y-126101899D01*
X164103898Y-126101428D01*
X164059552Y-126100878D01*
X164023140Y-126100255D01*
X163995456Y-126099570D01*
X163977297Y-126098831D01*
X163969460Y-126098046D01*
X163969200Y-126097872D01*
X163971152Y-126091476D01*
X163976652Y-126076001D01*
X163985162Y-126052889D01*
X163996145Y-126023587D01*
X164009066Y-125989537D01*
X164022167Y-125955349D01*
X164075134Y-125817755D01*
X164402011Y-125814933D01*
X164471307Y-125814315D01*
X164530207Y-125813731D01*
X164579605Y-125813145D01*
X164620393Y-125812526D01*
X164653464Y-125811838D01*
X164679712Y-125811047D01*
X164700029Y-125810121D01*
X164715308Y-125809024D01*
X164726443Y-125807723D01*
X164734326Y-125806184D01*
X164739850Y-125804374D01*
X164743909Y-125802258D01*
X164744412Y-125801934D01*
X164759185Y-125789945D01*
X164767220Y-125776989D01*
X164768137Y-125762156D01*
X164761556Y-125744535D01*
X164747094Y-125723217D01*
X164724372Y-125697290D01*
X164693007Y-125665846D01*
X164683759Y-125657004D01*
X164661102Y-125635292D01*
X164632361Y-125607429D01*
X164599419Y-125575258D01*
X164564160Y-125540624D01*
X164528467Y-125505373D01*
X164496442Y-125473559D01*
X164458074Y-125435015D01*
X164427040Y-125403100D01*
X164402402Y-125376766D01*
X164383217Y-125354965D01*
X164368546Y-125336650D01*
X164357447Y-125320771D01*
X164353385Y-125314170D01*
X164330849Y-125270884D01*
X164316521Y-125230088D01*
X164309294Y-125187894D01*
X164307867Y-125154308D01*
X164311600Y-125094410D01*
X164323001Y-125042628D01*
X164342369Y-124998523D01*
X164370001Y-124961657D01*
X164406198Y-124931593D01*
X164451258Y-124907893D01*
X164484289Y-124896046D01*
X164490937Y-124894331D01*
X164499505Y-124892830D01*
X164510770Y-124891522D01*
X164525509Y-124890390D01*
X164544500Y-124889416D01*
X164568521Y-124888580D01*
X164598350Y-124887865D01*
X164634763Y-124887252D01*
X164678538Y-124886722D01*
X164730454Y-124886256D01*
X164791288Y-124885838D01*
X164861817Y-124885447D01*
X164942818Y-124885065D01*
X164947100Y-124885046D01*
X165015924Y-124884795D01*
X165081376Y-124884656D01*
X165142596Y-124884626D01*
X165198718Y-124884699D01*
X165198718Y-124884699D01*
G37*
X165198718Y-124884699D02*
X165248882Y-124884872D01*
X165292225Y-124885141D01*
X165327884Y-124885501D01*
X165354996Y-124885947D01*
X165372699Y-124886477D01*
X165380131Y-124887084D01*
X165380311Y-124887201D01*
X165378310Y-124893399D01*
X165372704Y-124908536D01*
X165364083Y-124931072D01*
X165353040Y-124959467D01*
X165340167Y-124992181D01*
X165333022Y-125010198D01*
X165319220Y-125044975D01*
X165306707Y-125076623D01*
X165296129Y-125103502D01*
X165288131Y-125123970D01*
X165283358Y-125136386D01*
X165282399Y-125139011D01*
X165280996Y-125141373D01*
X165277873Y-125143327D01*
X165272043Y-125144912D01*
X165262522Y-125146166D01*
X165248323Y-125147127D01*
X165228463Y-125147835D01*
X165201955Y-125148327D01*
X165167813Y-125148642D01*
X165125054Y-125148818D01*
X165072691Y-125148895D01*
X165029121Y-125148909D01*
X164969298Y-125148936D01*
X164919712Y-125149033D01*
X164879314Y-125149244D01*
X164847053Y-125149611D01*
X164821877Y-125150177D01*
X164802737Y-125150985D01*
X164788581Y-125152077D01*
X164778359Y-125153497D01*
X164771019Y-125155286D01*
X164765512Y-125157489D01*
X164761337Y-125159809D01*
X164748349Y-125169648D01*
X164741059Y-125180579D01*
X164739911Y-125193428D01*
X164745348Y-125209019D01*
X164757812Y-125228176D01*
X164777746Y-125251723D01*
X164805594Y-125280485D01*
X164841798Y-125315286D01*
X164848016Y-125321115D01*
X164895800Y-125366648D01*
X164940644Y-125411052D01*
X164981397Y-125453113D01*
X165016912Y-125491615D01*
X165046037Y-125525346D01*
X165067622Y-125553089D01*
X165067657Y-125553137D01*
X165091533Y-125594299D01*
X165110277Y-125642812D01*
X165122771Y-125695471D01*
X165126156Y-125720642D01*
X165128329Y-125770326D01*
X165125437Y-125821146D01*
X165117947Y-125870341D01*
X165106327Y-125915147D01*
X165091046Y-125952802D01*
X165084956Y-125963721D01*
X165060784Y-125995840D01*
X165029356Y-126026773D01*
X164994477Y-126053086D01*
X164971144Y-126066387D01*
X164958052Y-126072798D01*
X164946218Y-126078409D01*
X164934833Y-126083274D01*
X164923086Y-126087445D01*
X164910167Y-126090976D01*
X164895266Y-126093921D01*
X164877571Y-126096332D01*
X164856272Y-126098262D01*
X164830560Y-126099766D01*
X164799623Y-126100895D01*
X164762651Y-126101704D01*
X164718834Y-126102246D01*
X164667362Y-126102573D01*
X164607423Y-126102739D01*
X164538208Y-126102797D01*
X164458906Y-126102801D01*
X164416747Y-126102800D01*
X164344682Y-126102739D01*
X164276568Y-126102563D01*
X164213201Y-126102280D01*
X164155379Y-126101899D01*
X164103898Y-126101428D01*
X164059552Y-126100878D01*
X164023140Y-126100255D01*
X163995456Y-126099570D01*
X163977297Y-126098831D01*
X163969460Y-126098046D01*
X163969200Y-126097872D01*
X163971152Y-126091476D01*
X163976652Y-126076001D01*
X163985162Y-126052889D01*
X163996145Y-126023587D01*
X164009066Y-125989537D01*
X164022167Y-125955349D01*
X164075134Y-125817755D01*
X164402011Y-125814933D01*
X164471307Y-125814315D01*
X164530207Y-125813731D01*
X164579605Y-125813145D01*
X164620393Y-125812526D01*
X164653464Y-125811838D01*
X164679712Y-125811047D01*
X164700029Y-125810121D01*
X164715308Y-125809024D01*
X164726443Y-125807723D01*
X164734326Y-125806184D01*
X164739850Y-125804374D01*
X164743909Y-125802258D01*
X164744412Y-125801934D01*
X164759185Y-125789945D01*
X164767220Y-125776989D01*
X164768137Y-125762156D01*
X164761556Y-125744535D01*
X164747094Y-125723217D01*
X164724372Y-125697290D01*
X164693007Y-125665846D01*
X164683759Y-125657004D01*
X164661102Y-125635292D01*
X164632361Y-125607429D01*
X164599419Y-125575258D01*
X164564160Y-125540624D01*
X164528467Y-125505373D01*
X164496442Y-125473559D01*
X164458074Y-125435015D01*
X164427040Y-125403100D01*
X164402402Y-125376766D01*
X164383217Y-125354965D01*
X164368546Y-125336650D01*
X164357447Y-125320771D01*
X164353385Y-125314170D01*
X164330849Y-125270884D01*
X164316521Y-125230088D01*
X164309294Y-125187894D01*
X164307867Y-125154308D01*
X164311600Y-125094410D01*
X164323001Y-125042628D01*
X164342369Y-124998523D01*
X164370001Y-124961657D01*
X164406198Y-124931593D01*
X164451258Y-124907893D01*
X164484289Y-124896046D01*
X164490937Y-124894331D01*
X164499505Y-124892830D01*
X164510770Y-124891522D01*
X164525509Y-124890390D01*
X164544500Y-124889416D01*
X164568521Y-124888580D01*
X164598350Y-124887865D01*
X164634763Y-124887252D01*
X164678538Y-124886722D01*
X164730454Y-124886256D01*
X164791288Y-124885838D01*
X164861817Y-124885447D01*
X164942818Y-124885065D01*
X164947100Y-124885046D01*
X165015924Y-124884795D01*
X165081376Y-124884656D01*
X165142596Y-124884626D01*
X165198718Y-124884699D01*
G36*
X160061188Y-123868905D02*
X160058557Y-123876336D01*
X160052131Y-123893309D01*
X160042282Y-123918875D01*
X160029379Y-123952084D01*
X160013794Y-123991987D01*
X159995899Y-124037633D01*
X159976063Y-124088074D01*
X159954657Y-124142359D01*
X159932054Y-124199538D01*
X159931625Y-124200622D01*
X159805395Y-124519533D01*
X159993587Y-124521019D01*
X160038398Y-124521460D01*
X160079391Y-124522030D01*
X160115259Y-124522698D01*
X160144692Y-124523433D01*
X160166381Y-124524203D01*
X160179018Y-124524978D01*
X160181778Y-124525513D01*
X160179745Y-124531478D01*
X160174116Y-124546108D01*
X160165590Y-124567632D01*
X160154868Y-124594276D01*
X160145537Y-124617213D01*
X160133201Y-124647748D01*
X160122187Y-124675656D01*
X160113308Y-124698828D01*
X160107376Y-124715155D01*
X160105414Y-124721374D01*
X160101532Y-124736844D01*
X159452884Y-124736844D01*
X159456632Y-124724144D01*
X159459269Y-124717033D01*
X159465783Y-124700251D01*
X159475852Y-124674607D01*
X159489156Y-124640912D01*
X159505372Y-124599973D01*
X159524181Y-124552600D01*
X159545261Y-124499601D01*
X159568291Y-124441787D01*
X159592950Y-124379966D01*
X159618917Y-124314947D01*
X159630772Y-124285288D01*
X159801164Y-123859133D01*
X159932842Y-123857616D01*
X160064521Y-123856099D01*
X160061188Y-123868905D01*
X160061188Y-123868905D01*
G37*
X160061188Y-123868905D02*
X160058557Y-123876336D01*
X160052131Y-123893309D01*
X160042282Y-123918875D01*
X160029379Y-123952084D01*
X160013794Y-123991987D01*
X159995899Y-124037633D01*
X159976063Y-124088074D01*
X159954657Y-124142359D01*
X159932054Y-124199538D01*
X159931625Y-124200622D01*
X159805395Y-124519533D01*
X159993587Y-124521019D01*
X160038398Y-124521460D01*
X160079391Y-124522030D01*
X160115259Y-124522698D01*
X160144692Y-124523433D01*
X160166381Y-124524203D01*
X160179018Y-124524978D01*
X160181778Y-124525513D01*
X160179745Y-124531478D01*
X160174116Y-124546108D01*
X160165590Y-124567632D01*
X160154868Y-124594276D01*
X160145537Y-124617213D01*
X160133201Y-124647748D01*
X160122187Y-124675656D01*
X160113308Y-124698828D01*
X160107376Y-124715155D01*
X160105414Y-124721374D01*
X160101532Y-124736844D01*
X159452884Y-124736844D01*
X159456632Y-124724144D01*
X159459269Y-124717033D01*
X159465783Y-124700251D01*
X159475852Y-124674607D01*
X159489156Y-124640912D01*
X159505372Y-124599973D01*
X159524181Y-124552600D01*
X159545261Y-124499601D01*
X159568291Y-124441787D01*
X159592950Y-124379966D01*
X159618917Y-124314947D01*
X159630772Y-124285288D01*
X159801164Y-123859133D01*
X159932842Y-123857616D01*
X160064521Y-123856099D01*
X160061188Y-123868905D01*
G36*
X164520214Y-123862167D02*
X164586284Y-123862556D01*
X164641463Y-123863207D01*
X164685671Y-123864119D01*
X164718825Y-123865289D01*
X164740845Y-123866716D01*
X164750955Y-123868185D01*
X164782619Y-123882226D01*
X164807659Y-123904316D01*
X164824703Y-123932695D01*
X164832381Y-123965602D01*
X164832676Y-123973141D01*
X164832058Y-123984537D01*
X164829887Y-123998287D01*
X164825853Y-124015286D01*
X164819649Y-124036426D01*
X164810963Y-124062601D01*
X164799487Y-124094705D01*
X164784912Y-124133631D01*
X164766927Y-124180272D01*
X164745224Y-124235521D01*
X164719494Y-124300273D01*
X164718758Y-124302117D01*
X164689062Y-124376051D01*
X164662808Y-124440185D01*
X164639556Y-124495316D01*
X164618863Y-124542244D01*
X164600289Y-124581768D01*
X164583393Y-124614686D01*
X164567735Y-124641797D01*
X164552872Y-124663902D01*
X164538364Y-124681797D01*
X164523770Y-124696282D01*
X164508648Y-124708157D01*
X164492559Y-124718220D01*
X164487538Y-124720972D01*
X164463089Y-124734022D01*
X164175222Y-124735023D01*
X164106280Y-124735147D01*
X164044833Y-124735019D01*
X163991473Y-124734650D01*
X163946790Y-124734048D01*
X163911373Y-124733221D01*
X163885814Y-124732180D01*
X163870702Y-124730932D01*
X163867600Y-124730345D01*
X163840115Y-124716850D01*
X163818012Y-124694716D01*
X163802512Y-124665798D01*
X163794835Y-124631951D01*
X163794222Y-124618827D01*
X163794677Y-124605671D01*
X163796258Y-124591584D01*
X163799295Y-124575593D01*
X163804114Y-124556723D01*
X163811043Y-124534000D01*
X163820410Y-124506451D01*
X163823303Y-124498496D01*
X164100111Y-124498496D01*
X164106193Y-124509628D01*
X164119584Y-124516629D01*
X164141287Y-124520451D01*
X164172301Y-124522043D01*
X164212161Y-124522355D01*
X164252139Y-124521952D01*
X164282605Y-124520652D01*
X164305313Y-124518321D01*
X164322013Y-124514825D01*
X164325803Y-124513635D01*
X164344982Y-124504821D01*
X164362042Y-124493306D01*
X164366199Y-124489463D01*
X164374171Y-124477828D01*
X164385577Y-124456232D01*
X164400116Y-124425368D01*
X164417486Y-124385928D01*
X164437388Y-124338605D01*
X164459519Y-124284091D01*
X164483579Y-124223079D01*
X164496280Y-124190242D01*
X164509420Y-124155888D01*
X164518877Y-124130385D01*
X164525072Y-124112069D01*
X164528426Y-124099275D01*
X164529360Y-124090337D01*
X164528295Y-124083591D01*
X164525652Y-124077372D01*
X164525101Y-124076296D01*
X164515237Y-124063640D01*
X164503508Y-124056412D01*
X164503409Y-124056387D01*
X164493562Y-124055398D01*
X164474602Y-124054743D01*
X164448703Y-124054452D01*
X164418035Y-124054554D01*
X164393839Y-124054894D01*
X164358107Y-124055672D01*
X164331809Y-124056628D01*
X164313092Y-124057983D01*
X164300100Y-124059961D01*
X164290980Y-124062783D01*
X164283877Y-124066673D01*
X164281449Y-124068384D01*
X164263225Y-124086036D01*
X164245290Y-124110594D01*
X164230380Y-124137945D01*
X164223545Y-124155466D01*
X164218856Y-124168737D01*
X164210678Y-124190276D01*
X164199856Y-124217925D01*
X164187234Y-124249528D01*
X164173954Y-124282198D01*
X164159572Y-124317629D01*
X164145405Y-124353168D01*
X164132526Y-124386080D01*
X164122005Y-124413633D01*
X164115711Y-124430814D01*
X164105872Y-124460039D01*
X164100338Y-124482283D01*
X164100111Y-124498496D01*
X163823303Y-124498496D01*
X163832542Y-124473101D01*
X163847767Y-124432975D01*
X163866413Y-124385102D01*
X163888806Y-124328505D01*
X163908299Y-124279644D01*
X163937430Y-124207153D01*
X163963014Y-124144435D01*
X163985483Y-124090698D01*
X164005271Y-124045152D01*
X164022814Y-124007006D01*
X164038543Y-123975468D01*
X164052893Y-123949749D01*
X164066298Y-123929056D01*
X164079191Y-123912600D01*
X164092007Y-123899589D01*
X164105178Y-123889232D01*
X164119139Y-123880738D01*
X164130067Y-123875266D01*
X164158289Y-123862065D01*
X164443333Y-123862042D01*
X164520214Y-123862167D01*
X164520214Y-123862167D01*
G37*
X164520214Y-123862167D02*
X164586284Y-123862556D01*
X164641463Y-123863207D01*
X164685671Y-123864119D01*
X164718825Y-123865289D01*
X164740845Y-123866716D01*
X164750955Y-123868185D01*
X164782619Y-123882226D01*
X164807659Y-123904316D01*
X164824703Y-123932695D01*
X164832381Y-123965602D01*
X164832676Y-123973141D01*
X164832058Y-123984537D01*
X164829887Y-123998287D01*
X164825853Y-124015286D01*
X164819649Y-124036426D01*
X164810963Y-124062601D01*
X164799487Y-124094705D01*
X164784912Y-124133631D01*
X164766927Y-124180272D01*
X164745224Y-124235521D01*
X164719494Y-124300273D01*
X164718758Y-124302117D01*
X164689062Y-124376051D01*
X164662808Y-124440185D01*
X164639556Y-124495316D01*
X164618863Y-124542244D01*
X164600289Y-124581768D01*
X164583393Y-124614686D01*
X164567735Y-124641797D01*
X164552872Y-124663902D01*
X164538364Y-124681797D01*
X164523770Y-124696282D01*
X164508648Y-124708157D01*
X164492559Y-124718220D01*
X164487538Y-124720972D01*
X164463089Y-124734022D01*
X164175222Y-124735023D01*
X164106280Y-124735147D01*
X164044833Y-124735019D01*
X163991473Y-124734650D01*
X163946790Y-124734048D01*
X163911373Y-124733221D01*
X163885814Y-124732180D01*
X163870702Y-124730932D01*
X163867600Y-124730345D01*
X163840115Y-124716850D01*
X163818012Y-124694716D01*
X163802512Y-124665798D01*
X163794835Y-124631951D01*
X163794222Y-124618827D01*
X163794677Y-124605671D01*
X163796258Y-124591584D01*
X163799295Y-124575593D01*
X163804114Y-124556723D01*
X163811043Y-124534000D01*
X163820410Y-124506451D01*
X163823303Y-124498496D01*
X164100111Y-124498496D01*
X164106193Y-124509628D01*
X164119584Y-124516629D01*
X164141287Y-124520451D01*
X164172301Y-124522043D01*
X164212161Y-124522355D01*
X164252139Y-124521952D01*
X164282605Y-124520652D01*
X164305313Y-124518321D01*
X164322013Y-124514825D01*
X164325803Y-124513635D01*
X164344982Y-124504821D01*
X164362042Y-124493306D01*
X164366199Y-124489463D01*
X164374171Y-124477828D01*
X164385577Y-124456232D01*
X164400116Y-124425368D01*
X164417486Y-124385928D01*
X164437388Y-124338605D01*
X164459519Y-124284091D01*
X164483579Y-124223079D01*
X164496280Y-124190242D01*
X164509420Y-124155888D01*
X164518877Y-124130385D01*
X164525072Y-124112069D01*
X164528426Y-124099275D01*
X164529360Y-124090337D01*
X164528295Y-124083591D01*
X164525652Y-124077372D01*
X164525101Y-124076296D01*
X164515237Y-124063640D01*
X164503508Y-124056412D01*
X164503409Y-124056387D01*
X164493562Y-124055398D01*
X164474602Y-124054743D01*
X164448703Y-124054452D01*
X164418035Y-124054554D01*
X164393839Y-124054894D01*
X164358107Y-124055672D01*
X164331809Y-124056628D01*
X164313092Y-124057983D01*
X164300100Y-124059961D01*
X164290980Y-124062783D01*
X164283877Y-124066673D01*
X164281449Y-124068384D01*
X164263225Y-124086036D01*
X164245290Y-124110594D01*
X164230380Y-124137945D01*
X164223545Y-124155466D01*
X164218856Y-124168737D01*
X164210678Y-124190276D01*
X164199856Y-124217925D01*
X164187234Y-124249528D01*
X164173954Y-124282198D01*
X164159572Y-124317629D01*
X164145405Y-124353168D01*
X164132526Y-124386080D01*
X164122005Y-124413633D01*
X164115711Y-124430814D01*
X164105872Y-124460039D01*
X164100338Y-124482283D01*
X164100111Y-124498496D01*
X163823303Y-124498496D01*
X163832542Y-124473101D01*
X163847767Y-124432975D01*
X163866413Y-124385102D01*
X163888806Y-124328505D01*
X163908299Y-124279644D01*
X163937430Y-124207153D01*
X163963014Y-124144435D01*
X163985483Y-124090698D01*
X164005271Y-124045152D01*
X164022814Y-124007006D01*
X164038543Y-123975468D01*
X164052893Y-123949749D01*
X164066298Y-123929056D01*
X164079191Y-123912600D01*
X164092007Y-123899589D01*
X164105178Y-123889232D01*
X164119139Y-123880738D01*
X164130067Y-123875266D01*
X164158289Y-123862065D01*
X164443333Y-123862042D01*
X164520214Y-123862167D01*
G36*
X165442241Y-123861989D02*
X165502109Y-123862108D01*
X165553079Y-123862364D01*
X165595947Y-123862808D01*
X165631510Y-123863491D01*
X165660565Y-123864464D01*
X165683909Y-123865778D01*
X165702339Y-123867486D01*
X165716651Y-123869637D01*
X165727643Y-123872284D01*
X165736111Y-123875477D01*
X165742852Y-123879268D01*
X165748663Y-123883708D01*
X165754340Y-123888849D01*
X165757550Y-123891858D01*
X165775542Y-123912828D01*
X165786933Y-123936781D01*
X165791734Y-123964878D01*
X165789958Y-123998281D01*
X165781617Y-124038151D01*
X165766724Y-124085649D01*
X165759826Y-124104666D01*
X165752076Y-124124996D01*
X165740620Y-124154442D01*
X165725994Y-124191660D01*
X165708730Y-124235304D01*
X165689363Y-124284027D01*
X165668426Y-124336485D01*
X165646455Y-124391331D01*
X165623981Y-124447220D01*
X165619346Y-124458722D01*
X165507311Y-124736577D01*
X165376078Y-124736710D01*
X165328766Y-124736538D01*
X165292364Y-124735901D01*
X165266501Y-124734784D01*
X165250807Y-124733169D01*
X165244911Y-124731040D01*
X165244844Y-124730751D01*
X165246877Y-124724541D01*
X165252731Y-124708780D01*
X165262044Y-124684401D01*
X165274452Y-124652336D01*
X165289590Y-124613519D01*
X165307095Y-124568883D01*
X165326604Y-124519360D01*
X165347752Y-124465884D01*
X165369022Y-124412288D01*
X165391445Y-124355649D01*
X165412567Y-124301843D01*
X165432020Y-124251834D01*
X165449440Y-124206587D01*
X165464458Y-124167065D01*
X165476708Y-124134233D01*
X165485825Y-124109055D01*
X165491440Y-124092494D01*
X165493200Y-124085679D01*
X165492304Y-124075865D01*
X165488771Y-124068285D01*
X165481330Y-124062656D01*
X165468712Y-124058696D01*
X165449648Y-124056121D01*
X165422868Y-124054647D01*
X165387102Y-124053992D01*
X165350632Y-124053866D01*
X165233154Y-124053866D01*
X165221311Y-124080677D01*
X165217087Y-124090721D01*
X165209080Y-124110233D01*
X165197701Y-124138198D01*
X165183358Y-124173603D01*
X165166461Y-124215434D01*
X165147420Y-124262676D01*
X165126645Y-124314316D01*
X165104546Y-124369340D01*
X165083926Y-124420755D01*
X164958384Y-124734022D01*
X164827220Y-124735538D01*
X164696056Y-124737055D01*
X164699974Y-124721427D01*
X164702726Y-124713533D01*
X164709325Y-124696108D01*
X164719399Y-124670095D01*
X164732576Y-124636436D01*
X164748486Y-124596072D01*
X164766757Y-124549944D01*
X164787017Y-124498995D01*
X164808896Y-124444165D01*
X164832022Y-124386397D01*
X164835751Y-124377098D01*
X164967612Y-124048396D01*
X164929210Y-123967730D01*
X164915730Y-123939156D01*
X164903790Y-123913365D01*
X164894338Y-123892441D01*
X164888322Y-123878465D01*
X164886824Y-123874509D01*
X164882839Y-123861955D01*
X165372678Y-123861955D01*
X165442241Y-123861989D01*
X165442241Y-123861989D01*
G37*
X165442241Y-123861989D02*
X165502109Y-123862108D01*
X165553079Y-123862364D01*
X165595947Y-123862808D01*
X165631510Y-123863491D01*
X165660565Y-123864464D01*
X165683909Y-123865778D01*
X165702339Y-123867486D01*
X165716651Y-123869637D01*
X165727643Y-123872284D01*
X165736111Y-123875477D01*
X165742852Y-123879268D01*
X165748663Y-123883708D01*
X165754340Y-123888849D01*
X165757550Y-123891858D01*
X165775542Y-123912828D01*
X165786933Y-123936781D01*
X165791734Y-123964878D01*
X165789958Y-123998281D01*
X165781617Y-124038151D01*
X165766724Y-124085649D01*
X165759826Y-124104666D01*
X165752076Y-124124996D01*
X165740620Y-124154442D01*
X165725994Y-124191660D01*
X165708730Y-124235304D01*
X165689363Y-124284027D01*
X165668426Y-124336485D01*
X165646455Y-124391331D01*
X165623981Y-124447220D01*
X165619346Y-124458722D01*
X165507311Y-124736577D01*
X165376078Y-124736710D01*
X165328766Y-124736538D01*
X165292364Y-124735901D01*
X165266501Y-124734784D01*
X165250807Y-124733169D01*
X165244911Y-124731040D01*
X165244844Y-124730751D01*
X165246877Y-124724541D01*
X165252731Y-124708780D01*
X165262044Y-124684401D01*
X165274452Y-124652336D01*
X165289590Y-124613519D01*
X165307095Y-124568883D01*
X165326604Y-124519360D01*
X165347752Y-124465884D01*
X165369022Y-124412288D01*
X165391445Y-124355649D01*
X165412567Y-124301843D01*
X165432020Y-124251834D01*
X165449440Y-124206587D01*
X165464458Y-124167065D01*
X165476708Y-124134233D01*
X165485825Y-124109055D01*
X165491440Y-124092494D01*
X165493200Y-124085679D01*
X165492304Y-124075865D01*
X165488771Y-124068285D01*
X165481330Y-124062656D01*
X165468712Y-124058696D01*
X165449648Y-124056121D01*
X165422868Y-124054647D01*
X165387102Y-124053992D01*
X165350632Y-124053866D01*
X165233154Y-124053866D01*
X165221311Y-124080677D01*
X165217087Y-124090721D01*
X165209080Y-124110233D01*
X165197701Y-124138198D01*
X165183358Y-124173603D01*
X165166461Y-124215434D01*
X165147420Y-124262676D01*
X165126645Y-124314316D01*
X165104546Y-124369340D01*
X165083926Y-124420755D01*
X164958384Y-124734022D01*
X164827220Y-124735538D01*
X164696056Y-124737055D01*
X164699974Y-124721427D01*
X164702726Y-124713533D01*
X164709325Y-124696108D01*
X164719399Y-124670095D01*
X164732576Y-124636436D01*
X164748486Y-124596072D01*
X164766757Y-124549944D01*
X164787017Y-124498995D01*
X164808896Y-124444165D01*
X164832022Y-124386397D01*
X164835751Y-124377098D01*
X164967612Y-124048396D01*
X164929210Y-123967730D01*
X164915730Y-123939156D01*
X164903790Y-123913365D01*
X164894338Y-123892441D01*
X164888322Y-123878465D01*
X164886824Y-123874509D01*
X164882839Y-123861955D01*
X165372678Y-123861955D01*
X165442241Y-123861989D01*
G36*
X159213048Y-123856362D02*
X159279538Y-123856510D01*
X159341819Y-123856748D01*
X159399040Y-123857067D01*
X159450352Y-123857459D01*
X159494904Y-123857917D01*
X159531846Y-123858433D01*
X159560328Y-123858998D01*
X159579500Y-123859605D01*
X159588512Y-123860245D01*
X159589111Y-123860461D01*
X159587177Y-123866843D01*
X159581816Y-123881958D01*
X159573684Y-123904016D01*
X159563442Y-123931228D01*
X159553833Y-123956381D01*
X159518555Y-124048150D01*
X159282546Y-124048186D01*
X159046536Y-124048222D01*
X159029946Y-124084811D01*
X159018661Y-124110716D01*
X159006826Y-124139438D01*
X158999509Y-124158188D01*
X158985661Y-124194977D01*
X159168853Y-124194977D01*
X159221612Y-124195072D01*
X159263989Y-124195380D01*
X159296889Y-124195934D01*
X159321218Y-124196771D01*
X159337882Y-124197924D01*
X159347786Y-124199427D01*
X159351836Y-124201315D01*
X159352044Y-124201952D01*
X159350098Y-124209389D01*
X159344725Y-124225364D01*
X159336627Y-124247910D01*
X159326502Y-124275058D01*
X159319928Y-124292263D01*
X159287813Y-124375600D01*
X158912831Y-124375600D01*
X158894600Y-124419344D01*
X158884399Y-124444477D01*
X158874463Y-124470046D01*
X158866779Y-124490929D01*
X158866155Y-124492722D01*
X158855941Y-124522355D01*
X159071537Y-124522495D01*
X159287133Y-124522636D01*
X159332289Y-124621677D01*
X159346421Y-124652729D01*
X159358941Y-124680345D01*
X159369094Y-124702848D01*
X159376122Y-124718560D01*
X159379268Y-124725806D01*
X159379326Y-124725959D01*
X159374131Y-124726930D01*
X159358164Y-124727819D01*
X159331944Y-124728618D01*
X159295988Y-124729322D01*
X159250813Y-124729924D01*
X159196936Y-124730417D01*
X159134876Y-124730795D01*
X159065148Y-124731053D01*
X158988272Y-124731184D01*
X158948937Y-124731200D01*
X158516667Y-124731200D01*
X158516667Y-124715006D01*
X158518734Y-124706935D01*
X158524686Y-124689384D01*
X158534153Y-124663325D01*
X158546760Y-124629731D01*
X158562135Y-124589577D01*
X158579907Y-124543836D01*
X158599702Y-124493482D01*
X158621148Y-124439488D01*
X158641370Y-124389039D01*
X158664089Y-124332555D01*
X158685662Y-124278825D01*
X158705699Y-124228827D01*
X158723810Y-124183541D01*
X158739604Y-124143945D01*
X158752690Y-124111017D01*
X158762679Y-124085736D01*
X158769180Y-124069081D01*
X158771709Y-124062326D01*
X158773350Y-124055029D01*
X158773030Y-124046584D01*
X158770170Y-124035259D01*
X158764189Y-124019325D01*
X158754506Y-123997050D01*
X158740540Y-123966704D01*
X158737316Y-123959802D01*
X158723964Y-123930739D01*
X158712501Y-123904804D01*
X158703733Y-123883899D01*
X158698464Y-123869927D01*
X158697289Y-123865264D01*
X158698074Y-123863621D01*
X158700908Y-123862189D01*
X158706511Y-123860956D01*
X158715602Y-123859905D01*
X158728899Y-123859024D01*
X158747123Y-123858297D01*
X158770991Y-123857710D01*
X158801223Y-123857249D01*
X158838538Y-123856899D01*
X158883655Y-123856646D01*
X158937293Y-123856475D01*
X159000171Y-123856371D01*
X159073009Y-123856322D01*
X159143200Y-123856311D01*
X159213048Y-123856362D01*
X159213048Y-123856362D01*
G37*
X159213048Y-123856362D02*
X159279538Y-123856510D01*
X159341819Y-123856748D01*
X159399040Y-123857067D01*
X159450352Y-123857459D01*
X159494904Y-123857917D01*
X159531846Y-123858433D01*
X159560328Y-123858998D01*
X159579500Y-123859605D01*
X159588512Y-123860245D01*
X159589111Y-123860461D01*
X159587177Y-123866843D01*
X159581816Y-123881958D01*
X159573684Y-123904016D01*
X159563442Y-123931228D01*
X159553833Y-123956381D01*
X159518555Y-124048150D01*
X159282546Y-124048186D01*
X159046536Y-124048222D01*
X159029946Y-124084811D01*
X159018661Y-124110716D01*
X159006826Y-124139438D01*
X158999509Y-124158188D01*
X158985661Y-124194977D01*
X159168853Y-124194977D01*
X159221612Y-124195072D01*
X159263989Y-124195380D01*
X159296889Y-124195934D01*
X159321218Y-124196771D01*
X159337882Y-124197924D01*
X159347786Y-124199427D01*
X159351836Y-124201315D01*
X159352044Y-124201952D01*
X159350098Y-124209389D01*
X159344725Y-124225364D01*
X159336627Y-124247910D01*
X159326502Y-124275058D01*
X159319928Y-124292263D01*
X159287813Y-124375600D01*
X158912831Y-124375600D01*
X158894600Y-124419344D01*
X158884399Y-124444477D01*
X158874463Y-124470046D01*
X158866779Y-124490929D01*
X158866155Y-124492722D01*
X158855941Y-124522355D01*
X159071537Y-124522495D01*
X159287133Y-124522636D01*
X159332289Y-124621677D01*
X159346421Y-124652729D01*
X159358941Y-124680345D01*
X159369094Y-124702848D01*
X159376122Y-124718560D01*
X159379268Y-124725806D01*
X159379326Y-124725959D01*
X159374131Y-124726930D01*
X159358164Y-124727819D01*
X159331944Y-124728618D01*
X159295988Y-124729322D01*
X159250813Y-124729924D01*
X159196936Y-124730417D01*
X159134876Y-124730795D01*
X159065148Y-124731053D01*
X158988272Y-124731184D01*
X158948937Y-124731200D01*
X158516667Y-124731200D01*
X158516667Y-124715006D01*
X158518734Y-124706935D01*
X158524686Y-124689384D01*
X158534153Y-124663325D01*
X158546760Y-124629731D01*
X158562135Y-124589577D01*
X158579907Y-124543836D01*
X158599702Y-124493482D01*
X158621148Y-124439488D01*
X158641370Y-124389039D01*
X158664089Y-124332555D01*
X158685662Y-124278825D01*
X158705699Y-124228827D01*
X158723810Y-124183541D01*
X158739604Y-124143945D01*
X158752690Y-124111017D01*
X158762679Y-124085736D01*
X158769180Y-124069081D01*
X158771709Y-124062326D01*
X158773350Y-124055029D01*
X158773030Y-124046584D01*
X158770170Y-124035259D01*
X158764189Y-124019325D01*
X158754506Y-123997050D01*
X158740540Y-123966704D01*
X158737316Y-123959802D01*
X158723964Y-123930739D01*
X158712501Y-123904804D01*
X158703733Y-123883899D01*
X158698464Y-123869927D01*
X158697289Y-123865264D01*
X158698074Y-123863621D01*
X158700908Y-123862189D01*
X158706511Y-123860956D01*
X158715602Y-123859905D01*
X158728899Y-123859024D01*
X158747123Y-123858297D01*
X158770991Y-123857710D01*
X158801223Y-123857249D01*
X158838538Y-123856899D01*
X158883655Y-123856646D01*
X158937293Y-123856475D01*
X159000171Y-123856371D01*
X159073009Y-123856322D01*
X159143200Y-123856311D01*
X159213048Y-123856362D01*
G36*
X160914039Y-123856382D02*
X160997210Y-123856597D01*
X161069131Y-123856955D01*
X161129822Y-123857456D01*
X161179301Y-123858102D01*
X161217588Y-123858892D01*
X161244702Y-123859826D01*
X161260662Y-123860904D01*
X161265511Y-123862042D01*
X161263568Y-123868971D01*
X161258183Y-123884567D01*
X161250027Y-123906985D01*
X161239769Y-123934377D01*
X161230765Y-123957937D01*
X161196019Y-124048101D01*
X160958447Y-124049572D01*
X160720874Y-124051044D01*
X160691563Y-124123011D01*
X160662253Y-124194977D01*
X161029855Y-124194977D01*
X161026723Y-124210500D01*
X161023562Y-124221312D01*
X161017067Y-124240196D01*
X161008100Y-124264747D01*
X160997525Y-124292557D01*
X160994312Y-124300811D01*
X160965032Y-124375600D01*
X160780118Y-124375600D01*
X160726343Y-124375703D01*
X160682945Y-124376037D01*
X160649018Y-124376635D01*
X160623651Y-124377529D01*
X160605936Y-124378755D01*
X160594964Y-124380346D01*
X160589827Y-124382334D01*
X160589515Y-124382655D01*
X160585329Y-124390429D01*
X160578103Y-124406431D01*
X160568840Y-124428348D01*
X160558546Y-124453869D01*
X160558249Y-124454622D01*
X160532673Y-124519533D01*
X160748403Y-124521009D01*
X160964133Y-124522486D01*
X161010400Y-124623227D01*
X161024628Y-124654383D01*
X161037083Y-124681994D01*
X161047047Y-124704438D01*
X161053800Y-124720094D01*
X161056625Y-124727342D01*
X161056667Y-124727584D01*
X161051165Y-124728157D01*
X161035236Y-124728702D01*
X161009739Y-124729212D01*
X160975535Y-124729680D01*
X160933484Y-124730098D01*
X160884447Y-124730460D01*
X160829285Y-124730758D01*
X160768858Y-124730985D01*
X160704027Y-124731134D01*
X160635652Y-124731198D01*
X160621432Y-124731200D01*
X160186198Y-124731200D01*
X160190091Y-124715677D01*
X160192845Y-124707776D01*
X160199442Y-124690355D01*
X160209506Y-124664365D01*
X160222662Y-124630758D01*
X160238536Y-124590484D01*
X160256751Y-124544496D01*
X160276934Y-124493744D01*
X160298709Y-124439181D01*
X160321701Y-124381756D01*
X160323347Y-124377652D01*
X160346289Y-124320327D01*
X160367932Y-124265995D01*
X160387913Y-124215581D01*
X160405872Y-124170008D01*
X160421448Y-124130199D01*
X160434279Y-124097079D01*
X160444004Y-124071570D01*
X160450262Y-124054596D01*
X160452692Y-124047081D01*
X160452711Y-124046894D01*
X160450373Y-124039206D01*
X160443912Y-124023285D01*
X160434158Y-124001044D01*
X160421941Y-123974395D01*
X160413200Y-123955882D01*
X160399839Y-123927400D01*
X160388410Y-123902086D01*
X160379742Y-123881856D01*
X160374668Y-123868627D01*
X160373689Y-123864718D01*
X160374724Y-123863168D01*
X160378301Y-123861817D01*
X160385128Y-123860652D01*
X160395910Y-123859660D01*
X160411354Y-123858828D01*
X160432169Y-123858142D01*
X160459059Y-123857589D01*
X160492734Y-123857155D01*
X160533898Y-123856827D01*
X160583259Y-123856593D01*
X160641525Y-123856438D01*
X160709402Y-123856349D01*
X160787596Y-123856313D01*
X160819600Y-123856311D01*
X160914039Y-123856382D01*
X160914039Y-123856382D01*
G37*
X160914039Y-123856382D02*
X160997210Y-123856597D01*
X161069131Y-123856955D01*
X161129822Y-123857456D01*
X161179301Y-123858102D01*
X161217588Y-123858892D01*
X161244702Y-123859826D01*
X161260662Y-123860904D01*
X161265511Y-123862042D01*
X161263568Y-123868971D01*
X161258183Y-123884567D01*
X161250027Y-123906985D01*
X161239769Y-123934377D01*
X161230765Y-123957937D01*
X161196019Y-124048101D01*
X160958447Y-124049572D01*
X160720874Y-124051044D01*
X160691563Y-124123011D01*
X160662253Y-124194977D01*
X161029855Y-124194977D01*
X161026723Y-124210500D01*
X161023562Y-124221312D01*
X161017067Y-124240196D01*
X161008100Y-124264747D01*
X160997525Y-124292557D01*
X160994312Y-124300811D01*
X160965032Y-124375600D01*
X160780118Y-124375600D01*
X160726343Y-124375703D01*
X160682945Y-124376037D01*
X160649018Y-124376635D01*
X160623651Y-124377529D01*
X160605936Y-124378755D01*
X160594964Y-124380346D01*
X160589827Y-124382334D01*
X160589515Y-124382655D01*
X160585329Y-124390429D01*
X160578103Y-124406431D01*
X160568840Y-124428348D01*
X160558546Y-124453869D01*
X160558249Y-124454622D01*
X160532673Y-124519533D01*
X160748403Y-124521009D01*
X160964133Y-124522486D01*
X161010400Y-124623227D01*
X161024628Y-124654383D01*
X161037083Y-124681994D01*
X161047047Y-124704438D01*
X161053800Y-124720094D01*
X161056625Y-124727342D01*
X161056667Y-124727584D01*
X161051165Y-124728157D01*
X161035236Y-124728702D01*
X161009739Y-124729212D01*
X160975535Y-124729680D01*
X160933484Y-124730098D01*
X160884447Y-124730460D01*
X160829285Y-124730758D01*
X160768858Y-124730985D01*
X160704027Y-124731134D01*
X160635652Y-124731198D01*
X160621432Y-124731200D01*
X160186198Y-124731200D01*
X160190091Y-124715677D01*
X160192845Y-124707776D01*
X160199442Y-124690355D01*
X160209506Y-124664365D01*
X160222662Y-124630758D01*
X160238536Y-124590484D01*
X160256751Y-124544496D01*
X160276934Y-124493744D01*
X160298709Y-124439181D01*
X160321701Y-124381756D01*
X160323347Y-124377652D01*
X160346289Y-124320327D01*
X160367932Y-124265995D01*
X160387913Y-124215581D01*
X160405872Y-124170008D01*
X160421448Y-124130199D01*
X160434279Y-124097079D01*
X160444004Y-124071570D01*
X160450262Y-124054596D01*
X160452692Y-124047081D01*
X160452711Y-124046894D01*
X160450373Y-124039206D01*
X160443912Y-124023285D01*
X160434158Y-124001044D01*
X160421941Y-123974395D01*
X160413200Y-123955882D01*
X160399839Y-123927400D01*
X160388410Y-123902086D01*
X160379742Y-123881856D01*
X160374668Y-123868627D01*
X160373689Y-123864718D01*
X160374724Y-123863168D01*
X160378301Y-123861817D01*
X160385128Y-123860652D01*
X160395910Y-123859660D01*
X160411354Y-123858828D01*
X160432169Y-123858142D01*
X160459059Y-123857589D01*
X160492734Y-123857155D01*
X160533898Y-123856827D01*
X160583259Y-123856593D01*
X160641525Y-123856438D01*
X160709402Y-123856349D01*
X160787596Y-123856313D01*
X160819600Y-123856311D01*
X160914039Y-123856382D01*
G36*
X161825168Y-123862154D02*
X161888233Y-123862441D01*
X161941303Y-123862935D01*
X161984141Y-123863632D01*
X162016510Y-123864527D01*
X162038174Y-123865617D01*
X162048896Y-123866897D01*
X162050089Y-123867549D01*
X162048105Y-123874436D01*
X162042617Y-123889936D01*
X162034317Y-123912185D01*
X162023896Y-123939317D01*
X162015526Y-123960683D01*
X161980964Y-124048222D01*
X161805271Y-124048253D01*
X161749653Y-124048479D01*
X161701944Y-124049122D01*
X161662877Y-124050156D01*
X161633186Y-124051561D01*
X161613605Y-124053311D01*
X161607000Y-124054522D01*
X161582525Y-124066567D01*
X161559672Y-124087611D01*
X161540596Y-124115378D01*
X161532173Y-124133512D01*
X161527231Y-124146069D01*
X161518701Y-124167616D01*
X161507179Y-124196657D01*
X161493258Y-124231695D01*
X161477532Y-124271235D01*
X161460596Y-124313780D01*
X161449462Y-124341733D01*
X161378617Y-124519533D01*
X161739499Y-124525177D01*
X161759881Y-124567511D01*
X161774926Y-124599171D01*
X161789594Y-124630777D01*
X161803097Y-124660556D01*
X161814651Y-124686734D01*
X161823468Y-124707538D01*
X161828764Y-124721196D01*
X161829955Y-124725590D01*
X161824344Y-124726913D01*
X161807638Y-124728060D01*
X161780032Y-124729027D01*
X161741719Y-124729812D01*
X161692892Y-124730412D01*
X161633745Y-124730822D01*
X161564472Y-124731041D01*
X161503989Y-124731076D01*
X161434891Y-124731033D01*
X161376162Y-124730943D01*
X161326879Y-124730777D01*
X161286123Y-124730507D01*
X161252972Y-124730104D01*
X161226505Y-124729539D01*
X161205802Y-124728784D01*
X161189942Y-124727810D01*
X161178003Y-124726589D01*
X161169065Y-124725092D01*
X161162206Y-124723290D01*
X161156507Y-124721156D01*
X161154406Y-124720230D01*
X161128266Y-124702793D01*
X161110071Y-124677682D01*
X161099654Y-124644605D01*
X161097086Y-124621228D01*
X161097132Y-124602525D01*
X161099355Y-124582019D01*
X161104126Y-124558497D01*
X161111814Y-124530747D01*
X161122789Y-124497555D01*
X161137421Y-124457709D01*
X161156081Y-124409995D01*
X161178036Y-124355885D01*
X161194538Y-124315431D01*
X161213393Y-124268766D01*
X161232868Y-124220206D01*
X161251231Y-124174065D01*
X161262050Y-124146650D01*
X161284127Y-124091233D01*
X161303147Y-124045348D01*
X161319689Y-124007840D01*
X161334328Y-123977552D01*
X161347641Y-123953330D01*
X161360205Y-123934017D01*
X161372597Y-123918457D01*
X161379565Y-123911062D01*
X161389785Y-123900743D01*
X161398816Y-123891987D01*
X161407638Y-123884666D01*
X161417227Y-123878651D01*
X161428563Y-123873813D01*
X161442622Y-123870025D01*
X161460382Y-123867157D01*
X161482821Y-123865082D01*
X161510918Y-123863670D01*
X161545650Y-123862793D01*
X161587995Y-123862323D01*
X161638930Y-123862132D01*
X161699434Y-123862090D01*
X161752344Y-123862079D01*
X161825168Y-123862154D01*
X161825168Y-123862154D01*
G37*
X161825168Y-123862154D02*
X161888233Y-123862441D01*
X161941303Y-123862935D01*
X161984141Y-123863632D01*
X162016510Y-123864527D01*
X162038174Y-123865617D01*
X162048896Y-123866897D01*
X162050089Y-123867549D01*
X162048105Y-123874436D01*
X162042617Y-123889936D01*
X162034317Y-123912185D01*
X162023896Y-123939317D01*
X162015526Y-123960683D01*
X161980964Y-124048222D01*
X161805271Y-124048253D01*
X161749653Y-124048479D01*
X161701944Y-124049122D01*
X161662877Y-124050156D01*
X161633186Y-124051561D01*
X161613605Y-124053311D01*
X161607000Y-124054522D01*
X161582525Y-124066567D01*
X161559672Y-124087611D01*
X161540596Y-124115378D01*
X161532173Y-124133512D01*
X161527231Y-124146069D01*
X161518701Y-124167616D01*
X161507179Y-124196657D01*
X161493258Y-124231695D01*
X161477532Y-124271235D01*
X161460596Y-124313780D01*
X161449462Y-124341733D01*
X161378617Y-124519533D01*
X161739499Y-124525177D01*
X161759881Y-124567511D01*
X161774926Y-124599171D01*
X161789594Y-124630777D01*
X161803097Y-124660556D01*
X161814651Y-124686734D01*
X161823468Y-124707538D01*
X161828764Y-124721196D01*
X161829955Y-124725590D01*
X161824344Y-124726913D01*
X161807638Y-124728060D01*
X161780032Y-124729027D01*
X161741719Y-124729812D01*
X161692892Y-124730412D01*
X161633745Y-124730822D01*
X161564472Y-124731041D01*
X161503989Y-124731076D01*
X161434891Y-124731033D01*
X161376162Y-124730943D01*
X161326879Y-124730777D01*
X161286123Y-124730507D01*
X161252972Y-124730104D01*
X161226505Y-124729539D01*
X161205802Y-124728784D01*
X161189942Y-124727810D01*
X161178003Y-124726589D01*
X161169065Y-124725092D01*
X161162206Y-124723290D01*
X161156507Y-124721156D01*
X161154406Y-124720230D01*
X161128266Y-124702793D01*
X161110071Y-124677682D01*
X161099654Y-124644605D01*
X161097086Y-124621228D01*
X161097132Y-124602525D01*
X161099355Y-124582019D01*
X161104126Y-124558497D01*
X161111814Y-124530747D01*
X161122789Y-124497555D01*
X161137421Y-124457709D01*
X161156081Y-124409995D01*
X161178036Y-124355885D01*
X161194538Y-124315431D01*
X161213393Y-124268766D01*
X161232868Y-124220206D01*
X161251231Y-124174065D01*
X161262050Y-124146650D01*
X161284127Y-124091233D01*
X161303147Y-124045348D01*
X161319689Y-124007840D01*
X161334328Y-123977552D01*
X161347641Y-123953330D01*
X161360205Y-123934017D01*
X161372597Y-123918457D01*
X161379565Y-123911062D01*
X161389785Y-123900743D01*
X161398816Y-123891987D01*
X161407638Y-123884666D01*
X161417227Y-123878651D01*
X161428563Y-123873813D01*
X161442622Y-123870025D01*
X161460382Y-123867157D01*
X161482821Y-123865082D01*
X161510918Y-123863670D01*
X161545650Y-123862793D01*
X161587995Y-123862323D01*
X161638930Y-123862132D01*
X161699434Y-123862090D01*
X161752344Y-123862079D01*
X161825168Y-123862154D01*
G36*
X162786601Y-123857373D02*
X162828006Y-123857618D01*
X162861551Y-123858011D01*
X162887921Y-123858565D01*
X162907802Y-123859287D01*
X162921880Y-123860188D01*
X162930839Y-123861279D01*
X162935366Y-123862569D01*
X162936267Y-123863635D01*
X162934298Y-123871166D01*
X162928852Y-123887261D01*
X162920623Y-123909993D01*
X162910302Y-123937435D01*
X162902400Y-123957911D01*
X162891115Y-123986958D01*
X162881424Y-124012091D01*
X162874006Y-124031533D01*
X162869540Y-124043508D01*
X162868533Y-124046504D01*
X162863155Y-124046999D01*
X162848085Y-124047438D01*
X162824920Y-124047799D01*
X162795257Y-124048062D01*
X162760694Y-124048203D01*
X162742155Y-124048222D01*
X162615776Y-124048222D01*
X162603147Y-124075033D01*
X162595876Y-124091407D01*
X162586005Y-124114902D01*
X162574954Y-124142089D01*
X162566320Y-124163933D01*
X162559020Y-124182525D01*
X162548103Y-124210143D01*
X162534147Y-124245333D01*
X162517730Y-124286642D01*
X162499429Y-124332615D01*
X162479823Y-124381799D01*
X162459491Y-124432739D01*
X162448492Y-124460266D01*
X162428844Y-124509492D01*
X162410325Y-124556022D01*
X162393394Y-124598695D01*
X162378508Y-124636350D01*
X162366127Y-124667824D01*
X162356709Y-124691958D01*
X162350712Y-124707589D01*
X162348794Y-124712855D01*
X162342724Y-124731200D01*
X162210518Y-124731200D01*
X162164998Y-124730964D01*
X162128450Y-124730272D01*
X162101444Y-124729149D01*
X162084548Y-124727618D01*
X162078332Y-124725705D01*
X162078311Y-124725576D01*
X162080357Y-124719477D01*
X162086256Y-124703812D01*
X162095649Y-124679492D01*
X162108180Y-124647426D01*
X162123490Y-124608522D01*
X162141221Y-124563691D01*
X162161015Y-124513840D01*
X162182515Y-124459881D01*
X162205361Y-124402721D01*
X162208867Y-124393965D01*
X162231962Y-124336250D01*
X162253841Y-124281484D01*
X162274135Y-124230593D01*
X162292478Y-124184502D01*
X162308502Y-124144137D01*
X162321840Y-124110422D01*
X162332124Y-124084283D01*
X162338988Y-124066646D01*
X162342065Y-124058435D01*
X162342170Y-124058100D01*
X162342364Y-124055084D01*
X162340232Y-124052751D01*
X162334522Y-124051014D01*
X162323985Y-124049786D01*
X162307371Y-124048980D01*
X162283430Y-124048509D01*
X162250912Y-124048285D01*
X162208567Y-124048223D01*
X162200325Y-124048222D01*
X162156125Y-124048174D01*
X162121941Y-124047974D01*
X162096502Y-124047533D01*
X162078535Y-124046765D01*
X162066768Y-124045584D01*
X162059929Y-124043900D01*
X162056745Y-124041629D01*
X162055946Y-124038683D01*
X162055948Y-124038344D01*
X162057972Y-124029889D01*
X162063420Y-124012962D01*
X162071591Y-123989599D01*
X162081780Y-123961833D01*
X162088612Y-123943800D01*
X162121061Y-123859133D01*
X162528664Y-123857685D01*
X162608367Y-123857433D01*
X162677467Y-123857290D01*
X162736650Y-123857267D01*
X162786601Y-123857373D01*
X162786601Y-123857373D01*
G37*
X162786601Y-123857373D02*
X162828006Y-123857618D01*
X162861551Y-123858011D01*
X162887921Y-123858565D01*
X162907802Y-123859287D01*
X162921880Y-123860188D01*
X162930839Y-123861279D01*
X162935366Y-123862569D01*
X162936267Y-123863635D01*
X162934298Y-123871166D01*
X162928852Y-123887261D01*
X162920623Y-123909993D01*
X162910302Y-123937435D01*
X162902400Y-123957911D01*
X162891115Y-123986958D01*
X162881424Y-124012091D01*
X162874006Y-124031533D01*
X162869540Y-124043508D01*
X162868533Y-124046504D01*
X162863155Y-124046999D01*
X162848085Y-124047438D01*
X162824920Y-124047799D01*
X162795257Y-124048062D01*
X162760694Y-124048203D01*
X162742155Y-124048222D01*
X162615776Y-124048222D01*
X162603147Y-124075033D01*
X162595876Y-124091407D01*
X162586005Y-124114902D01*
X162574954Y-124142089D01*
X162566320Y-124163933D01*
X162559020Y-124182525D01*
X162548103Y-124210143D01*
X162534147Y-124245333D01*
X162517730Y-124286642D01*
X162499429Y-124332615D01*
X162479823Y-124381799D01*
X162459491Y-124432739D01*
X162448492Y-124460266D01*
X162428844Y-124509492D01*
X162410325Y-124556022D01*
X162393394Y-124598695D01*
X162378508Y-124636350D01*
X162366127Y-124667824D01*
X162356709Y-124691958D01*
X162350712Y-124707589D01*
X162348794Y-124712855D01*
X162342724Y-124731200D01*
X162210518Y-124731200D01*
X162164998Y-124730964D01*
X162128450Y-124730272D01*
X162101444Y-124729149D01*
X162084548Y-124727618D01*
X162078332Y-124725705D01*
X162078311Y-124725576D01*
X162080357Y-124719477D01*
X162086256Y-124703812D01*
X162095649Y-124679492D01*
X162108180Y-124647426D01*
X162123490Y-124608522D01*
X162141221Y-124563691D01*
X162161015Y-124513840D01*
X162182515Y-124459881D01*
X162205361Y-124402721D01*
X162208867Y-124393965D01*
X162231962Y-124336250D01*
X162253841Y-124281484D01*
X162274135Y-124230593D01*
X162292478Y-124184502D01*
X162308502Y-124144137D01*
X162321840Y-124110422D01*
X162332124Y-124084283D01*
X162338988Y-124066646D01*
X162342065Y-124058435D01*
X162342170Y-124058100D01*
X162342364Y-124055084D01*
X162340232Y-124052751D01*
X162334522Y-124051014D01*
X162323985Y-124049786D01*
X162307371Y-124048980D01*
X162283430Y-124048509D01*
X162250912Y-124048285D01*
X162208567Y-124048223D01*
X162200325Y-124048222D01*
X162156125Y-124048174D01*
X162121941Y-124047974D01*
X162096502Y-124047533D01*
X162078535Y-124046765D01*
X162066768Y-124045584D01*
X162059929Y-124043900D01*
X162056745Y-124041629D01*
X162055946Y-124038683D01*
X162055948Y-124038344D01*
X162057972Y-124029889D01*
X162063420Y-124012962D01*
X162071591Y-123989599D01*
X162081780Y-123961833D01*
X162088612Y-123943800D01*
X162121061Y-123859133D01*
X162528664Y-123857685D01*
X162608367Y-123857433D01*
X162677467Y-123857290D01*
X162736650Y-123857267D01*
X162786601Y-123857373D01*
G36*
X163241060Y-123856829D02*
X163303396Y-123856984D01*
X163375921Y-123857247D01*
X163415041Y-123857410D01*
X163814793Y-123859133D01*
X163847818Y-123876066D01*
X163877005Y-123896012D01*
X163896213Y-123921063D01*
X163905804Y-123951797D01*
X163907111Y-123970784D01*
X163904427Y-123994325D01*
X163896565Y-124026854D01*
X163883811Y-124067478D01*
X163866452Y-124115306D01*
X163844772Y-124169445D01*
X163839166Y-124182786D01*
X163823860Y-124217074D01*
X163810001Y-124242555D01*
X163795660Y-124261196D01*
X163778911Y-124274961D01*
X163757827Y-124285818D01*
X163730479Y-124295732D01*
X163727508Y-124296689D01*
X163707499Y-124303087D01*
X163691200Y-124308296D01*
X163682120Y-124311194D01*
X163682093Y-124311203D01*
X163680304Y-124315884D01*
X163686913Y-124326546D01*
X163696827Y-124338003D01*
X163713053Y-124358982D01*
X163721427Y-124379440D01*
X163722937Y-124387319D01*
X163723538Y-124402714D01*
X163722476Y-124428023D01*
X163719870Y-124462009D01*
X163715844Y-124503440D01*
X163710517Y-124551079D01*
X163704011Y-124603693D01*
X163696446Y-124660047D01*
X163695592Y-124666151D01*
X163692117Y-124691066D01*
X163689313Y-124711469D01*
X163687500Y-124725009D01*
X163686978Y-124729360D01*
X163681596Y-124729883D01*
X163666501Y-124730348D01*
X163643268Y-124730734D01*
X163613474Y-124731016D01*
X163578694Y-124731174D01*
X163557155Y-124731200D01*
X163511008Y-124730954D01*
X163474550Y-124730230D01*
X163448186Y-124729045D01*
X163432318Y-124727417D01*
X163427333Y-124725486D01*
X163428286Y-124718585D01*
X163430968Y-124702113D01*
X163435117Y-124677609D01*
X163440468Y-124646613D01*
X163446760Y-124610665D01*
X163452915Y-124575876D01*
X163460892Y-124530733D01*
X163466903Y-124495259D01*
X163470980Y-124468011D01*
X163473153Y-124447547D01*
X163473453Y-124432424D01*
X163471912Y-124421202D01*
X163468561Y-124412436D01*
X163463431Y-124404686D01*
X163456777Y-124396766D01*
X163452739Y-124393346D01*
X163446393Y-124390810D01*
X163436178Y-124389030D01*
X163420531Y-124387878D01*
X163397887Y-124387223D01*
X163366685Y-124386938D01*
X163336903Y-124386888D01*
X163225645Y-124386888D01*
X163208852Y-124424988D01*
X163202043Y-124440979D01*
X163191904Y-124465503D01*
X163179237Y-124496591D01*
X163164840Y-124532269D01*
X163149516Y-124570568D01*
X163138957Y-124597144D01*
X163085855Y-124731200D01*
X162823531Y-124731200D01*
X162836154Y-124698031D01*
X162840878Y-124685841D01*
X162849272Y-124664416D01*
X162860841Y-124635013D01*
X162875089Y-124598889D01*
X162891521Y-124557299D01*
X162909639Y-124511502D01*
X162928948Y-124462754D01*
X162941911Y-124430060D01*
X163035044Y-124195258D01*
X163280578Y-124194994D01*
X163340162Y-124194899D01*
X163389537Y-124194726D01*
X163429780Y-124194433D01*
X163461970Y-124193978D01*
X163487186Y-124193317D01*
X163506506Y-124192409D01*
X163521010Y-124191211D01*
X163531776Y-124189682D01*
X163539882Y-124187777D01*
X163546407Y-124185456D01*
X163548689Y-124184459D01*
X163565440Y-124175785D01*
X163576995Y-124166075D01*
X163585783Y-124152288D01*
X163594230Y-124131386D01*
X163596696Y-124124335D01*
X163602532Y-124107364D01*
X163606813Y-124093122D01*
X163608712Y-124081370D01*
X163607400Y-124071869D01*
X163602046Y-124064381D01*
X163591823Y-124058665D01*
X163575901Y-124054483D01*
X163553451Y-124051596D01*
X163523644Y-124049765D01*
X163485651Y-124048751D01*
X163438643Y-124048314D01*
X163381791Y-124048217D01*
X163332726Y-124048222D01*
X163096645Y-124048222D01*
X163055967Y-123960152D01*
X163042578Y-123930707D01*
X163031044Y-123904464D01*
X163022149Y-123883279D01*
X163016677Y-123869010D01*
X163015289Y-123863885D01*
X163016436Y-123862296D01*
X163020373Y-123860935D01*
X163027838Y-123859791D01*
X163039571Y-123858850D01*
X163056314Y-123858102D01*
X163078805Y-123857535D01*
X163107785Y-123857136D01*
X163143995Y-123856893D01*
X163188173Y-123856795D01*
X163241060Y-123856829D01*
X163241060Y-123856829D01*
G37*
X163241060Y-123856829D02*
X163303396Y-123856984D01*
X163375921Y-123857247D01*
X163415041Y-123857410D01*
X163814793Y-123859133D01*
X163847818Y-123876066D01*
X163877005Y-123896012D01*
X163896213Y-123921063D01*
X163905804Y-123951797D01*
X163907111Y-123970784D01*
X163904427Y-123994325D01*
X163896565Y-124026854D01*
X163883811Y-124067478D01*
X163866452Y-124115306D01*
X163844772Y-124169445D01*
X163839166Y-124182786D01*
X163823860Y-124217074D01*
X163810001Y-124242555D01*
X163795660Y-124261196D01*
X163778911Y-124274961D01*
X163757827Y-124285818D01*
X163730479Y-124295732D01*
X163727508Y-124296689D01*
X163707499Y-124303087D01*
X163691200Y-124308296D01*
X163682120Y-124311194D01*
X163682093Y-124311203D01*
X163680304Y-124315884D01*
X163686913Y-124326546D01*
X163696827Y-124338003D01*
X163713053Y-124358982D01*
X163721427Y-124379440D01*
X163722937Y-124387319D01*
X163723538Y-124402714D01*
X163722476Y-124428023D01*
X163719870Y-124462009D01*
X163715844Y-124503440D01*
X163710517Y-124551079D01*
X163704011Y-124603693D01*
X163696446Y-124660047D01*
X163695592Y-124666151D01*
X163692117Y-124691066D01*
X163689313Y-124711469D01*
X163687500Y-124725009D01*
X163686978Y-124729360D01*
X163681596Y-124729883D01*
X163666501Y-124730348D01*
X163643268Y-124730734D01*
X163613474Y-124731016D01*
X163578694Y-124731174D01*
X163557155Y-124731200D01*
X163511008Y-124730954D01*
X163474550Y-124730230D01*
X163448186Y-124729045D01*
X163432318Y-124727417D01*
X163427333Y-124725486D01*
X163428286Y-124718585D01*
X163430968Y-124702113D01*
X163435117Y-124677609D01*
X163440468Y-124646613D01*
X163446760Y-124610665D01*
X163452915Y-124575876D01*
X163460892Y-124530733D01*
X163466903Y-124495259D01*
X163470980Y-124468011D01*
X163473153Y-124447547D01*
X163473453Y-124432424D01*
X163471912Y-124421202D01*
X163468561Y-124412436D01*
X163463431Y-124404686D01*
X163456777Y-124396766D01*
X163452739Y-124393346D01*
X163446393Y-124390810D01*
X163436178Y-124389030D01*
X163420531Y-124387878D01*
X163397887Y-124387223D01*
X163366685Y-124386938D01*
X163336903Y-124386888D01*
X163225645Y-124386888D01*
X163208852Y-124424988D01*
X163202043Y-124440979D01*
X163191904Y-124465503D01*
X163179237Y-124496591D01*
X163164840Y-124532269D01*
X163149516Y-124570568D01*
X163138957Y-124597144D01*
X163085855Y-124731200D01*
X162823531Y-124731200D01*
X162836154Y-124698031D01*
X162840878Y-124685841D01*
X162849272Y-124664416D01*
X162860841Y-124635013D01*
X162875089Y-124598889D01*
X162891521Y-124557299D01*
X162909639Y-124511502D01*
X162928948Y-124462754D01*
X162941911Y-124430060D01*
X163035044Y-124195258D01*
X163280578Y-124194994D01*
X163340162Y-124194899D01*
X163389537Y-124194726D01*
X163429780Y-124194433D01*
X163461970Y-124193978D01*
X163487186Y-124193317D01*
X163506506Y-124192409D01*
X163521010Y-124191211D01*
X163531776Y-124189682D01*
X163539882Y-124187777D01*
X163546407Y-124185456D01*
X163548689Y-124184459D01*
X163565440Y-124175785D01*
X163576995Y-124166075D01*
X163585783Y-124152288D01*
X163594230Y-124131386D01*
X163596696Y-124124335D01*
X163602532Y-124107364D01*
X163606813Y-124093122D01*
X163608712Y-124081370D01*
X163607400Y-124071869D01*
X163602046Y-124064381D01*
X163591823Y-124058665D01*
X163575901Y-124054483D01*
X163553451Y-124051596D01*
X163523644Y-124049765D01*
X163485651Y-124048751D01*
X163438643Y-124048314D01*
X163381791Y-124048217D01*
X163332726Y-124048222D01*
X163096645Y-124048222D01*
X163055967Y-123960152D01*
X163042578Y-123930707D01*
X163031044Y-123904464D01*
X163022149Y-123883279D01*
X163016677Y-123869010D01*
X163015289Y-123863885D01*
X163016436Y-123862296D01*
X163020373Y-123860935D01*
X163027838Y-123859791D01*
X163039571Y-123858850D01*
X163056314Y-123858102D01*
X163078805Y-123857535D01*
X163107785Y-123857136D01*
X163143995Y-123856893D01*
X163188173Y-123856795D01*
X163241060Y-123856829D01*
G36*
X166126945Y-123856474D02*
X166160055Y-123856933D01*
X166187527Y-123857640D01*
X166207795Y-123858547D01*
X166219294Y-123859608D01*
X166221333Y-123860309D01*
X166219284Y-123866042D01*
X166213344Y-123881474D01*
X166203821Y-123905821D01*
X166191026Y-123938306D01*
X166175267Y-123978145D01*
X166156855Y-124024560D01*
X166136099Y-124076768D01*
X166113308Y-124133990D01*
X166088792Y-124195446D01*
X166062861Y-124260353D01*
X166047902Y-124297753D01*
X165874471Y-124731200D01*
X165743102Y-124731200D01*
X165705948Y-124731034D01*
X165672869Y-124730570D01*
X165645431Y-124729854D01*
X165625200Y-124728937D01*
X165613744Y-124727865D01*
X165611733Y-124727161D01*
X165613780Y-124721420D01*
X165619715Y-124705980D01*
X165629229Y-124681623D01*
X165642013Y-124649129D01*
X165657756Y-124609279D01*
X165676151Y-124562854D01*
X165696887Y-124510636D01*
X165719656Y-124453404D01*
X165744148Y-124391941D01*
X165770054Y-124327026D01*
X165784960Y-124289716D01*
X165958187Y-123856311D01*
X166089760Y-123856311D01*
X166126945Y-123856474D01*
X166126945Y-123856474D01*
G37*
X166126945Y-123856474D02*
X166160055Y-123856933D01*
X166187527Y-123857640D01*
X166207795Y-123858547D01*
X166219294Y-123859608D01*
X166221333Y-123860309D01*
X166219284Y-123866042D01*
X166213344Y-123881474D01*
X166203821Y-123905821D01*
X166191026Y-123938306D01*
X166175267Y-123978145D01*
X166156855Y-124024560D01*
X166136099Y-124076768D01*
X166113308Y-124133990D01*
X166088792Y-124195446D01*
X166062861Y-124260353D01*
X166047902Y-124297753D01*
X165874471Y-124731200D01*
X165743102Y-124731200D01*
X165705948Y-124731034D01*
X165672869Y-124730570D01*
X165645431Y-124729854D01*
X165625200Y-124728937D01*
X165613744Y-124727865D01*
X165611733Y-124727161D01*
X165613780Y-124721420D01*
X165619715Y-124705980D01*
X165629229Y-124681623D01*
X165642013Y-124649129D01*
X165657756Y-124609279D01*
X165676151Y-124562854D01*
X165696887Y-124510636D01*
X165719656Y-124453404D01*
X165744148Y-124391941D01*
X165770054Y-124327026D01*
X165784960Y-124289716D01*
X165958187Y-123856311D01*
X166089760Y-123856311D01*
X166126945Y-123856474D01*
G36*
X166690511Y-123861955D02*
X166983333Y-123861955D01*
X166983333Y-123877869D01*
X166981290Y-123888750D01*
X166975681Y-123907672D01*
X166967287Y-123932260D01*
X166956890Y-123960138D01*
X166953178Y-123969591D01*
X166923022Y-124045400D01*
X166734455Y-124048222D01*
X166675713Y-124049263D01*
X166627784Y-124050476D01*
X166590194Y-124051884D01*
X166562469Y-124053509D01*
X166544133Y-124055375D01*
X166534713Y-124057503D01*
X166534113Y-124057803D01*
X166515965Y-124072191D01*
X166497314Y-124093384D01*
X166481235Y-124117479D01*
X166472280Y-124136255D01*
X166467689Y-124148196D01*
X166459483Y-124169123D01*
X166448252Y-124197542D01*
X166434587Y-124231965D01*
X166419081Y-124270899D01*
X166402325Y-124312854D01*
X166392460Y-124337502D01*
X166375803Y-124379250D01*
X166360577Y-124417727D01*
X166347276Y-124451663D01*
X166336392Y-124479787D01*
X166328418Y-124500830D01*
X166323847Y-124513520D01*
X166322933Y-124516713D01*
X166328517Y-124518449D01*
X166345033Y-124519881D01*
X166372128Y-124520998D01*
X166409451Y-124521789D01*
X166456646Y-124522242D01*
X166501126Y-124522355D01*
X166679319Y-124522355D01*
X166716226Y-124599966D01*
X166730157Y-124629563D01*
X166743225Y-124657875D01*
X166754229Y-124682259D01*
X166761967Y-124700073D01*
X166763729Y-124704388D01*
X166774324Y-124731200D01*
X166448440Y-124730690D01*
X166388301Y-124730510D01*
X166331150Y-124730171D01*
X166278053Y-124729691D01*
X166230079Y-124729089D01*
X166188295Y-124728380D01*
X166153770Y-124727584D01*
X166127570Y-124726717D01*
X166110763Y-124725796D01*
X166104878Y-124725057D01*
X166086312Y-124715105D01*
X166067552Y-124697607D01*
X166051489Y-124675877D01*
X166041011Y-124653230D01*
X166040393Y-124651086D01*
X166036958Y-124633464D01*
X166036096Y-124614098D01*
X166038101Y-124591891D01*
X166043265Y-124565750D01*
X166051881Y-124534580D01*
X166064240Y-124497285D01*
X166080636Y-124452771D01*
X166101360Y-124399944D01*
X166119250Y-124355844D01*
X166136152Y-124314306D01*
X166154891Y-124267775D01*
X166173800Y-124220419D01*
X166191213Y-124176404D01*
X166201617Y-124149822D01*
X166223441Y-124094494D01*
X166242264Y-124048680D01*
X166258689Y-124011196D01*
X166273317Y-123980856D01*
X166286751Y-123956476D01*
X166299594Y-123936872D01*
X166312448Y-123920858D01*
X166324125Y-123908910D01*
X166334701Y-123898884D01*
X166343986Y-123890393D01*
X166352973Y-123883312D01*
X166362657Y-123877512D01*
X166374033Y-123872865D01*
X166388094Y-123869245D01*
X166405835Y-123866525D01*
X166428251Y-123864576D01*
X166456335Y-123863271D01*
X166491081Y-123862483D01*
X166533485Y-123862084D01*
X166584541Y-123861947D01*
X166645242Y-123861945D01*
X166690511Y-123861955D01*
X166690511Y-123861955D01*
G37*
X166690511Y-123861955D02*
X166983333Y-123861955D01*
X166983333Y-123877869D01*
X166981290Y-123888750D01*
X166975681Y-123907672D01*
X166967287Y-123932260D01*
X166956890Y-123960138D01*
X166953178Y-123969591D01*
X166923022Y-124045400D01*
X166734455Y-124048222D01*
X166675713Y-124049263D01*
X166627784Y-124050476D01*
X166590194Y-124051884D01*
X166562469Y-124053509D01*
X166544133Y-124055375D01*
X166534713Y-124057503D01*
X166534113Y-124057803D01*
X166515965Y-124072191D01*
X166497314Y-124093384D01*
X166481235Y-124117479D01*
X166472280Y-124136255D01*
X166467689Y-124148196D01*
X166459483Y-124169123D01*
X166448252Y-124197542D01*
X166434587Y-124231965D01*
X166419081Y-124270899D01*
X166402325Y-124312854D01*
X166392460Y-124337502D01*
X166375803Y-124379250D01*
X166360577Y-124417727D01*
X166347276Y-124451663D01*
X166336392Y-124479787D01*
X166328418Y-124500830D01*
X166323847Y-124513520D01*
X166322933Y-124516713D01*
X166328517Y-124518449D01*
X166345033Y-124519881D01*
X166372128Y-124520998D01*
X166409451Y-124521789D01*
X166456646Y-124522242D01*
X166501126Y-124522355D01*
X166679319Y-124522355D01*
X166716226Y-124599966D01*
X166730157Y-124629563D01*
X166743225Y-124657875D01*
X166754229Y-124682259D01*
X166761967Y-124700073D01*
X166763729Y-124704388D01*
X166774324Y-124731200D01*
X166448440Y-124730690D01*
X166388301Y-124730510D01*
X166331150Y-124730171D01*
X166278053Y-124729691D01*
X166230079Y-124729089D01*
X166188295Y-124728380D01*
X166153770Y-124727584D01*
X166127570Y-124726717D01*
X166110763Y-124725796D01*
X166104878Y-124725057D01*
X166086312Y-124715105D01*
X166067552Y-124697607D01*
X166051489Y-124675877D01*
X166041011Y-124653230D01*
X166040393Y-124651086D01*
X166036958Y-124633464D01*
X166036096Y-124614098D01*
X166038101Y-124591891D01*
X166043265Y-124565750D01*
X166051881Y-124534580D01*
X166064240Y-124497285D01*
X166080636Y-124452771D01*
X166101360Y-124399944D01*
X166119250Y-124355844D01*
X166136152Y-124314306D01*
X166154891Y-124267775D01*
X166173800Y-124220419D01*
X166191213Y-124176404D01*
X166201617Y-124149822D01*
X166223441Y-124094494D01*
X166242264Y-124048680D01*
X166258689Y-124011196D01*
X166273317Y-123980856D01*
X166286751Y-123956476D01*
X166299594Y-123936872D01*
X166312448Y-123920858D01*
X166324125Y-123908910D01*
X166334701Y-123898884D01*
X166343986Y-123890393D01*
X166352973Y-123883312D01*
X166362657Y-123877512D01*
X166374033Y-123872865D01*
X166388094Y-123869245D01*
X166405835Y-123866525D01*
X166428251Y-123864576D01*
X166456335Y-123863271D01*
X166491081Y-123862483D01*
X166533485Y-123862084D01*
X166584541Y-123861947D01*
X166645242Y-123861945D01*
X166690511Y-123861955D01*
G36*
X164739366Y-119397796D02*
X164769084Y-119400125D01*
X164792335Y-119404996D01*
X164811513Y-119413218D01*
X164829009Y-119425600D01*
X164847216Y-119442951D01*
X164852479Y-119448502D01*
X164875948Y-119478343D01*
X164895863Y-119514380D01*
X164912730Y-119557892D01*
X164927053Y-119610158D01*
X164938133Y-119665432D01*
X164941237Y-119685663D01*
X164943646Y-119707566D01*
X164945434Y-119732815D01*
X164946676Y-119763083D01*
X164947446Y-119800045D01*
X164947817Y-119845375D01*
X164947880Y-119885444D01*
X164947566Y-119944075D01*
X164946572Y-119997595D01*
X164944741Y-120048212D01*
X164941915Y-120098134D01*
X164937940Y-120149569D01*
X164932659Y-120204724D01*
X164925914Y-120265807D01*
X164917551Y-120335026D01*
X164914109Y-120362400D01*
X164910689Y-120389133D01*
X164907280Y-120415176D01*
X164903731Y-120441550D01*
X164899893Y-120469274D01*
X164895613Y-120499370D01*
X164890742Y-120532859D01*
X164885129Y-120570761D01*
X164878623Y-120614097D01*
X164871073Y-120663887D01*
X164862330Y-120721153D01*
X164852241Y-120786915D01*
X164840656Y-120862193D01*
X164832867Y-120912733D01*
X164803274Y-121104644D01*
X164838713Y-121160816D01*
X164870103Y-121214312D01*
X164901663Y-121274887D01*
X164931500Y-121338518D01*
X164957718Y-121401187D01*
X164976818Y-121453934D01*
X164987211Y-121487587D01*
X164997582Y-121524849D01*
X165007396Y-121563395D01*
X165016117Y-121600901D01*
X165023209Y-121635042D01*
X165028138Y-121663492D01*
X165030367Y-121683928D01*
X165030442Y-121686731D01*
X165032074Y-121701263D01*
X165035238Y-121710382D01*
X165038749Y-121711008D01*
X165047303Y-121708904D01*
X165061542Y-121703794D01*
X165082105Y-121695400D01*
X165109633Y-121683442D01*
X165144766Y-121667644D01*
X165188146Y-121647727D01*
X165240412Y-121623413D01*
X165300187Y-121595374D01*
X165514747Y-121494430D01*
X165720375Y-121494430D01*
X165726069Y-121519618D01*
X165739483Y-121541300D01*
X165758841Y-121557988D01*
X165782365Y-121568191D01*
X165808278Y-121570422D01*
X165834802Y-121563192D01*
X165837293Y-121561957D01*
X165860127Y-121544726D01*
X165874412Y-121522616D01*
X165880402Y-121497816D01*
X165878351Y-121472515D01*
X165868514Y-121448900D01*
X165851144Y-121429162D01*
X165826495Y-121415487D01*
X165820062Y-121413494D01*
X165793413Y-121411752D01*
X165767371Y-121419520D01*
X165744729Y-121435232D01*
X165728279Y-121457325D01*
X165724181Y-121467224D01*
X165720375Y-121494430D01*
X165514747Y-121494430D01*
X165560427Y-121472939D01*
X165566989Y-121441192D01*
X165582186Y-121393641D01*
X165606271Y-121351295D01*
X165637892Y-121315082D01*
X165675702Y-121285928D01*
X165718350Y-121264758D01*
X165764486Y-121252500D01*
X165812762Y-121250080D01*
X165840537Y-121253424D01*
X165890980Y-121268045D01*
X165935580Y-121291649D01*
X165973450Y-121323183D01*
X166003706Y-121361593D01*
X166025463Y-121405825D01*
X166037834Y-121454826D01*
X166040435Y-121491288D01*
X166035118Y-121542664D01*
X166019791Y-121590177D01*
X165995390Y-121632725D01*
X165962850Y-121669206D01*
X165923107Y-121698520D01*
X165877098Y-121719564D01*
X165838128Y-121729416D01*
X165789364Y-121732461D01*
X165741136Y-121724576D01*
X165693652Y-121706173D01*
X165659860Y-121689444D01*
X165352163Y-121833870D01*
X165296845Y-121859923D01*
X165244488Y-121884753D01*
X165196003Y-121907916D01*
X165152299Y-121928968D01*
X165114289Y-121947468D01*
X165082883Y-121962971D01*
X165058991Y-121975035D01*
X165043525Y-121983215D01*
X165037411Y-121987048D01*
X165032251Y-121998903D01*
X165030301Y-122013067D01*
X165029142Y-122025447D01*
X165026041Y-122045868D01*
X165021488Y-122071347D01*
X165016744Y-122095244D01*
X165011556Y-122120677D01*
X165007475Y-122141634D01*
X165004917Y-122155908D01*
X165004288Y-122161285D01*
X165009957Y-122161628D01*
X165026013Y-122162260D01*
X165051560Y-122163151D01*
X165085702Y-122164273D01*
X165127542Y-122165599D01*
X165176182Y-122167101D01*
X165230727Y-122168750D01*
X165290280Y-122170519D01*
X165353943Y-122172378D01*
X165408518Y-122173950D01*
X165485773Y-122176149D01*
X165552521Y-122178012D01*
X165609543Y-122179543D01*
X165657615Y-122180744D01*
X165697516Y-122181621D01*
X165730025Y-122182174D01*
X165755919Y-122182409D01*
X165775976Y-122182329D01*
X165790976Y-122181936D01*
X165801695Y-122181234D01*
X165808913Y-122180226D01*
X165813407Y-122178916D01*
X165815955Y-122177308D01*
X165817175Y-122175705D01*
X165831660Y-122155979D01*
X165852925Y-122134418D01*
X165877565Y-122114053D01*
X165902172Y-122097914D01*
X165908049Y-122094832D01*
X165956984Y-122076491D01*
X166006405Y-122068684D01*
X166054988Y-122070977D01*
X166101406Y-122082932D01*
X166144337Y-122104112D01*
X166182454Y-122134083D01*
X166214433Y-122172407D01*
X166231121Y-122201227D01*
X166240266Y-122220164D01*
X166246322Y-122235018D01*
X166249924Y-122249029D01*
X166251709Y-122265439D01*
X166252315Y-122287489D01*
X166252378Y-122309440D01*
X166252186Y-122338216D01*
X166251239Y-122358898D01*
X166248976Y-122374680D01*
X166244839Y-122388757D01*
X166238269Y-122404322D01*
X166234267Y-122412878D01*
X166207676Y-122456658D01*
X166173810Y-122492700D01*
X166134056Y-122520507D01*
X166089803Y-122539580D01*
X166042439Y-122549420D01*
X165993352Y-122549529D01*
X165943928Y-122539408D01*
X165914045Y-122527923D01*
X165891265Y-122514426D01*
X165865538Y-122494367D01*
X165840118Y-122470621D01*
X165818257Y-122446060D01*
X165812071Y-122437833D01*
X165800822Y-122422000D01*
X165422644Y-122411105D01*
X165335267Y-122408598D01*
X165258482Y-122406428D01*
X165191601Y-122404594D01*
X165133932Y-122403095D01*
X165084785Y-122401930D01*
X165043470Y-122401098D01*
X165009295Y-122400599D01*
X164981572Y-122400431D01*
X164959608Y-122400592D01*
X164942715Y-122401083D01*
X164930200Y-122401902D01*
X164921375Y-122403048D01*
X164915548Y-122404520D01*
X164912029Y-122406317D01*
X164910127Y-122408438D01*
X164909313Y-122410346D01*
X164905361Y-122419012D01*
X164896944Y-122435197D01*
X164885263Y-122456658D01*
X164871519Y-122481150D01*
X164870247Y-122483382D01*
X164834451Y-122546116D01*
X165247034Y-122740412D01*
X165659618Y-122934708D01*
X165691090Y-122918715D01*
X165738923Y-122900321D01*
X165788006Y-122892366D01*
X165836828Y-122894492D01*
X165883879Y-122906339D01*
X165927646Y-122927550D01*
X165966621Y-122957765D01*
X165995349Y-122990953D01*
X166014636Y-123021377D01*
X166027451Y-123051116D01*
X166034809Y-123083648D01*
X166037727Y-123122453D01*
X166037889Y-123136644D01*
X166037622Y-123163360D01*
X166036290Y-123182644D01*
X166033096Y-123198347D01*
X166027243Y-123214322D01*
X166017933Y-123234423D01*
X166017451Y-123235422D01*
X165990554Y-123279417D01*
X165957027Y-123315416D01*
X165918241Y-123343153D01*
X165875563Y-123362362D01*
X165830362Y-123372778D01*
X165784007Y-123374133D01*
X165737866Y-123366163D01*
X165693308Y-123348600D01*
X165651701Y-123321180D01*
X165638049Y-123309166D01*
X165607914Y-123275398D01*
X165585629Y-123237581D01*
X165569404Y-123192618D01*
X165568224Y-123188280D01*
X165558111Y-123150269D01*
X165530388Y-123137206D01*
X165722097Y-123137206D01*
X165727097Y-123161977D01*
X165740285Y-123184597D01*
X165761069Y-123202328D01*
X165786037Y-123211415D01*
X165813493Y-123211528D01*
X165839231Y-123202785D01*
X165843732Y-123200031D01*
X165864629Y-123180398D01*
X165876587Y-123157025D01*
X165880203Y-123131965D01*
X165876076Y-123107268D01*
X165864805Y-123084988D01*
X165846988Y-123067175D01*
X165823223Y-123055881D01*
X165800822Y-123052918D01*
X165773068Y-123057658D01*
X165750772Y-123070509D01*
X165734481Y-123089419D01*
X165724740Y-123112336D01*
X165722097Y-123137206D01*
X165530388Y-123137206D01*
X164690657Y-122741533D01*
X164602273Y-122829256D01*
X164544149Y-122885319D01*
X164489063Y-122934728D01*
X164433732Y-122980169D01*
X164374873Y-123024324D01*
X164309204Y-123069878D01*
X164302222Y-123074556D01*
X164166925Y-123158329D01*
X164024403Y-123233819D01*
X163875332Y-123300802D01*
X163720390Y-123359056D01*
X163560253Y-123408360D01*
X163395600Y-123448489D01*
X163227106Y-123479222D01*
X163055450Y-123500337D01*
X162989889Y-123505766D01*
X162948028Y-123508337D01*
X162899875Y-123510574D01*
X162848203Y-123512410D01*
X162795782Y-123513775D01*
X162745385Y-123514603D01*
X162699782Y-123514826D01*
X162661747Y-123514375D01*
X162651222Y-123514063D01*
X162469490Y-123502667D01*
X162291990Y-123481674D01*
X162119091Y-123451195D01*
X161951162Y-123411342D01*
X161788572Y-123362226D01*
X161631692Y-123303960D01*
X161480891Y-123236654D01*
X161336537Y-123160421D01*
X161199001Y-123075373D01*
X161197778Y-123074556D01*
X161131257Y-123028718D01*
X161071872Y-122984544D01*
X161016339Y-122939350D01*
X160961375Y-122890452D01*
X160903697Y-122835167D01*
X160897727Y-122829256D01*
X160809343Y-122741533D01*
X159941889Y-123150269D01*
X159931776Y-123188280D01*
X159915993Y-123234008D01*
X159894304Y-123272322D01*
X159864921Y-123306319D01*
X159861951Y-123309166D01*
X159821707Y-123340109D01*
X159778030Y-123361101D01*
X159732289Y-123372407D01*
X159685853Y-123374295D01*
X159640091Y-123367031D01*
X159596371Y-123350879D01*
X159556062Y-123326107D01*
X159520533Y-123292980D01*
X159491152Y-123251764D01*
X159482548Y-123235422D01*
X159473075Y-123215062D01*
X159467092Y-123198990D01*
X159463801Y-123183354D01*
X159462407Y-123164300D01*
X159462111Y-123137976D01*
X159462111Y-123137748D01*
X159618702Y-123137748D01*
X159624719Y-123161168D01*
X159637547Y-123182004D01*
X159655766Y-123198666D01*
X159677954Y-123209568D01*
X159702690Y-123213121D01*
X159728551Y-123207737D01*
X159735702Y-123204462D01*
X159756227Y-123188343D01*
X159770510Y-123166138D01*
X159777746Y-123140814D01*
X159777130Y-123115333D01*
X159767857Y-123092662D01*
X159766562Y-123090850D01*
X159743537Y-123067543D01*
X159718033Y-123054694D01*
X159691539Y-123052318D01*
X159665547Y-123060431D01*
X159641547Y-123079048D01*
X159632791Y-123089504D01*
X159620919Y-123113330D01*
X159618702Y-123137748D01*
X159462111Y-123137748D01*
X159462111Y-123136644D01*
X159463832Y-123095121D01*
X159469670Y-123060974D01*
X159480643Y-123030725D01*
X159497765Y-123000896D01*
X159504650Y-122990953D01*
X159538249Y-122953225D01*
X159577950Y-122924191D01*
X159622243Y-122904209D01*
X159669618Y-122893638D01*
X159718562Y-122892837D01*
X159767566Y-122902164D01*
X159808910Y-122918715D01*
X159840382Y-122934708D01*
X160252965Y-122740412D01*
X160665549Y-122546116D01*
X160629753Y-122483382D01*
X160615884Y-122458730D01*
X160603973Y-122436912D01*
X160595219Y-122420170D01*
X160590825Y-122410750D01*
X160590687Y-122410346D01*
X160589576Y-122407969D01*
X160587394Y-122405916D01*
X160583451Y-122404186D01*
X160577057Y-122402782D01*
X160567520Y-122401705D01*
X160554150Y-122400954D01*
X160536257Y-122400532D01*
X160513151Y-122400438D01*
X160484141Y-122400676D01*
X160448536Y-122401244D01*
X160405647Y-122402145D01*
X160354782Y-122403379D01*
X160295251Y-122404948D01*
X160226364Y-122406852D01*
X160147430Y-122409092D01*
X160077355Y-122411105D01*
X159699178Y-122422000D01*
X159687929Y-122437833D01*
X159668074Y-122462003D01*
X159643525Y-122486360D01*
X159617536Y-122508031D01*
X159593359Y-122524142D01*
X159585954Y-122527923D01*
X159537012Y-122544566D01*
X159487554Y-122550673D01*
X159438968Y-122546742D01*
X159392642Y-122533273D01*
X159349964Y-122510765D01*
X159312323Y-122479715D01*
X159281105Y-122440622D01*
X159265733Y-122412878D01*
X159257853Y-122395552D01*
X159252664Y-122381187D01*
X159249607Y-122366587D01*
X159248123Y-122348560D01*
X159247652Y-122323911D01*
X159247622Y-122309440D01*
X159247623Y-122309096D01*
X159403890Y-122309096D01*
X159404464Y-122320199D01*
X159408163Y-122338177D01*
X159416224Y-122352592D01*
X159430290Y-122367378D01*
X159445476Y-122380229D01*
X159458342Y-122386605D01*
X159473876Y-122388637D01*
X159480237Y-122388718D01*
X159505971Y-122385465D01*
X159523402Y-122378043D01*
X159544160Y-122358567D01*
X159556685Y-122334566D01*
X159561023Y-122308449D01*
X159557222Y-122282622D01*
X159545330Y-122259495D01*
X159525395Y-122241476D01*
X159520647Y-122238799D01*
X159492952Y-122229989D01*
X159466080Y-122231122D01*
X159441883Y-122240898D01*
X159422216Y-122258018D01*
X159408934Y-122281184D01*
X159403890Y-122309096D01*
X159247623Y-122309096D01*
X159247763Y-122281102D01*
X159248611Y-122260811D01*
X159250803Y-122245327D01*
X159254975Y-122231409D01*
X159261764Y-122215815D01*
X159268878Y-122201227D01*
X159296216Y-122157767D01*
X159330543Y-122122381D01*
X159370534Y-122095504D01*
X159414864Y-122077573D01*
X159462209Y-122069024D01*
X159511244Y-122070294D01*
X159560644Y-122081818D01*
X159591951Y-122094832D01*
X159616004Y-122109403D01*
X159640959Y-122128976D01*
X159663411Y-122150520D01*
X159679955Y-122171003D01*
X159682825Y-122175705D01*
X159684330Y-122177565D01*
X159687118Y-122179130D01*
X159691967Y-122180395D01*
X159699656Y-122181357D01*
X159710961Y-122182014D01*
X159726662Y-122182360D01*
X159747537Y-122182395D01*
X159774363Y-122182113D01*
X159807920Y-122181511D01*
X159848985Y-122180587D01*
X159898336Y-122179336D01*
X159956753Y-122177756D01*
X160025012Y-122175844D01*
X160091482Y-122173950D01*
X160157844Y-122172036D01*
X160220829Y-122170191D01*
X160279542Y-122168442D01*
X160333085Y-122166818D01*
X160380561Y-122165345D01*
X160421074Y-122164054D01*
X160453726Y-122162971D01*
X160477622Y-122162125D01*
X160491865Y-122161544D01*
X160495712Y-122161285D01*
X160495043Y-122155663D01*
X160492444Y-122141204D01*
X160488332Y-122120115D01*
X160483256Y-122095244D01*
X160477843Y-122067793D01*
X160473455Y-122042812D01*
X160470582Y-122023284D01*
X160469699Y-122013067D01*
X160467422Y-121997707D01*
X160462589Y-121987048D01*
X160456328Y-121983133D01*
X160440743Y-121974898D01*
X160416745Y-121962786D01*
X160385244Y-121947240D01*
X160347152Y-121928703D01*
X160303379Y-121907619D01*
X160254836Y-121884431D01*
X160202433Y-121859582D01*
X160147836Y-121833870D01*
X159840139Y-121689444D01*
X159806347Y-121706173D01*
X159757764Y-121724879D01*
X159709534Y-121732512D01*
X159661872Y-121729416D01*
X159611688Y-121715464D01*
X159567052Y-121692397D01*
X159528902Y-121661318D01*
X159498172Y-121623327D01*
X159475798Y-121579526D01*
X159462717Y-121531016D01*
X159460004Y-121496815D01*
X159619105Y-121496815D01*
X159625164Y-121522619D01*
X159631833Y-121535007D01*
X159650686Y-121554192D01*
X159675496Y-121566118D01*
X159702910Y-121569918D01*
X159729578Y-121564719D01*
X159735648Y-121561957D01*
X159759003Y-121544522D01*
X159773543Y-121522403D01*
X159779472Y-121497706D01*
X159776995Y-121472536D01*
X159766317Y-121448997D01*
X159747642Y-121429194D01*
X159721395Y-121415309D01*
X159694549Y-121411200D01*
X159669834Y-121416558D01*
X159648590Y-121429592D01*
X159632159Y-121448508D01*
X159621884Y-121471513D01*
X159619105Y-121496815D01*
X159460004Y-121496815D01*
X159459565Y-121491288D01*
X159464850Y-121439479D01*
X159480118Y-121391772D01*
X159504482Y-121349209D01*
X159537059Y-121312829D01*
X159576964Y-121283676D01*
X159623313Y-121262790D01*
X159661812Y-121253171D01*
X159711118Y-121250144D01*
X159758824Y-121257480D01*
X159803598Y-121274258D01*
X159844111Y-121299555D01*
X159879034Y-121332449D01*
X159907035Y-121372019D01*
X159926785Y-121417341D01*
X159933010Y-121441192D01*
X159939573Y-121472939D01*
X160199623Y-121595285D01*
X160250142Y-121618994D01*
X160297505Y-121641107D01*
X160340745Y-121661180D01*
X160378895Y-121678772D01*
X160410988Y-121693437D01*
X160436056Y-121704732D01*
X160453132Y-121712213D01*
X160461249Y-121715438D01*
X160461788Y-121715515D01*
X160463481Y-121709459D01*
X160466576Y-121694451D01*
X160470649Y-121672676D01*
X160475277Y-121646322D01*
X160475797Y-121643266D01*
X160499845Y-121532970D01*
X160534260Y-121422859D01*
X160578239Y-121315004D01*
X161248795Y-121315004D01*
X161249058Y-121346007D01*
X161250006Y-121381691D01*
X161251550Y-121419863D01*
X161253599Y-121458336D01*
X161256062Y-121494920D01*
X161258851Y-121527424D01*
X161261874Y-121553660D01*
X161262236Y-121556200D01*
X161282287Y-121665371D01*
X161309216Y-121765635D01*
X161343053Y-121857061D01*
X161383828Y-121939716D01*
X161431570Y-122013668D01*
X161486309Y-122078985D01*
X161496803Y-122089726D01*
X161561685Y-122146708D01*
X161635109Y-122196571D01*
X161716740Y-122239163D01*
X161806237Y-122274333D01*
X161903263Y-122301929D01*
X162007481Y-122321800D01*
X162019044Y-122323462D01*
X162051058Y-122327852D01*
X162076911Y-122331093D01*
X162099349Y-122333345D01*
X162121119Y-122334773D01*
X162144964Y-122335539D01*
X162173633Y-122335805D01*
X162209869Y-122335733D01*
X162225067Y-122335657D01*
X162323844Y-122335133D01*
X162325453Y-122239177D01*
X162325346Y-122233969D01*
X163173333Y-122233969D01*
X163173570Y-122265945D01*
X163174226Y-122293968D01*
X163175219Y-122316097D01*
X163176468Y-122330391D01*
X163177567Y-122334850D01*
X163184810Y-122336468D01*
X163201527Y-122337374D01*
X163225929Y-122337632D01*
X163256228Y-122337306D01*
X163290636Y-122336460D01*
X163327363Y-122335157D01*
X163364621Y-122333461D01*
X163400623Y-122331436D01*
X163433579Y-122329145D01*
X163461700Y-122326653D01*
X163483199Y-122324023D01*
X163483778Y-122323934D01*
X163503821Y-122320069D01*
X165938953Y-122320069D01*
X165947092Y-122345105D01*
X165962861Y-122366195D01*
X165985108Y-122381311D01*
X166012681Y-122388426D01*
X166019763Y-122388718D01*
X166037207Y-122387627D01*
X166050385Y-122382876D01*
X166064285Y-122372333D01*
X166069710Y-122367378D01*
X166088598Y-122343124D01*
X166096774Y-122316207D01*
X166094006Y-122287767D01*
X166088732Y-122273932D01*
X166072650Y-122251735D01*
X166050755Y-122237239D01*
X166025552Y-122230585D01*
X165999548Y-122231910D01*
X165975250Y-122241354D01*
X165955164Y-122259055D01*
X165950171Y-122266262D01*
X165939595Y-122293112D01*
X165938953Y-122320069D01*
X163503821Y-122320069D01*
X163591346Y-122303192D01*
X163690097Y-122275528D01*
X163780222Y-122240747D01*
X163861914Y-122198652D01*
X163935364Y-122149050D01*
X164000764Y-122091744D01*
X164058307Y-122026538D01*
X164108184Y-121953237D01*
X164150587Y-121871646D01*
X164185709Y-121781569D01*
X164213741Y-121682811D01*
X164234875Y-121575176D01*
X164237764Y-121556200D01*
X164240808Y-121530834D01*
X164243628Y-121498945D01*
X164246134Y-121462723D01*
X164248236Y-121424357D01*
X164249843Y-121386037D01*
X164250865Y-121349952D01*
X164251212Y-121318293D01*
X164250794Y-121293248D01*
X164249520Y-121277008D01*
X164249313Y-121275793D01*
X164245536Y-121255659D01*
X164196268Y-121251946D01*
X164161073Y-121250711D01*
X164117656Y-121251418D01*
X164068880Y-121253870D01*
X164017607Y-121257873D01*
X163966701Y-121263232D01*
X163919024Y-121269750D01*
X163907111Y-121271678D01*
X163809722Y-121292172D01*
X163718006Y-121319807D01*
X163632850Y-121354177D01*
X163555140Y-121394876D01*
X163485765Y-121441499D01*
X163429178Y-121490135D01*
X163372317Y-121553243D01*
X163322212Y-121625004D01*
X163279042Y-121704893D01*
X163242988Y-121792385D01*
X163214230Y-121886958D01*
X163192949Y-121988085D01*
X163179324Y-122095244D01*
X163173537Y-122207909D01*
X163173333Y-122233969D01*
X162325346Y-122233969D01*
X162323201Y-122129853D01*
X162312889Y-122024441D01*
X162294769Y-121923685D01*
X162269095Y-121828330D01*
X162236121Y-121739122D01*
X162196098Y-121656804D01*
X162149281Y-121582123D01*
X162095921Y-121515821D01*
X162070889Y-121489937D01*
X162011223Y-121438981D01*
X161942313Y-121393274D01*
X161865130Y-121353260D01*
X161780644Y-121319382D01*
X161689826Y-121292082D01*
X161593646Y-121271805D01*
X161592889Y-121271678D01*
X161546570Y-121264881D01*
X161496252Y-121259191D01*
X161444796Y-121254804D01*
X161395067Y-121251914D01*
X161349925Y-121250719D01*
X161312235Y-121251412D01*
X161303732Y-121251946D01*
X161254464Y-121255659D01*
X161250687Y-121275793D01*
X161249308Y-121290869D01*
X161248795Y-121315004D01*
X160578239Y-121315004D01*
X160578268Y-121314935D01*
X160631096Y-121211202D01*
X160664397Y-121155444D01*
X160696487Y-121104644D01*
X160675916Y-120966355D01*
X160659453Y-120855356D01*
X160644649Y-120754702D01*
X160631416Y-120663586D01*
X160619670Y-120581201D01*
X160609324Y-120506738D01*
X160600292Y-120439391D01*
X160592487Y-120378350D01*
X160585824Y-120322810D01*
X160580215Y-120271962D01*
X160575576Y-120224998D01*
X160571820Y-120181112D01*
X160568860Y-120139494D01*
X160566611Y-120099339D01*
X160564986Y-120059837D01*
X160563899Y-120020182D01*
X160563264Y-119979565D01*
X160562994Y-119937180D01*
X160562975Y-119908022D01*
X160563149Y-119853558D01*
X160563587Y-119808833D01*
X160564353Y-119772299D01*
X160565513Y-119742408D01*
X160567134Y-119717612D01*
X160569282Y-119696362D01*
X160572021Y-119677111D01*
X160573062Y-119670955D01*
X160587051Y-119604164D01*
X160603952Y-119547692D01*
X160624105Y-119500864D01*
X160647850Y-119463008D01*
X160675529Y-119433449D01*
X160703012Y-119413995D01*
X160715057Y-119407341D01*
X160725593Y-119402740D01*
X160737055Y-119399811D01*
X160751878Y-119398176D01*
X160772499Y-119397452D01*
X160801353Y-119397262D01*
X160810301Y-119397252D01*
X160842979Y-119397430D01*
X160867470Y-119398280D01*
X160886872Y-119400201D01*
X160904283Y-119403590D01*
X160922802Y-119408848D01*
X160937301Y-119413591D01*
X161009795Y-119441803D01*
X161086882Y-119479323D01*
X161168702Y-119526243D01*
X161255394Y-119582654D01*
X161347098Y-119648648D01*
X161443952Y-119724318D01*
X161546097Y-119809756D01*
X161569884Y-119830387D01*
X161605117Y-119861948D01*
X161645856Y-119899798D01*
X161690401Y-119942248D01*
X161737050Y-119987613D01*
X161784102Y-120034203D01*
X161829855Y-120080332D01*
X161872608Y-120124313D01*
X161910660Y-120164458D01*
X161942309Y-120199079D01*
X161947312Y-120204727D01*
X162004785Y-120270009D01*
X162090937Y-120251409D01*
X162179214Y-120233348D01*
X162262359Y-120218582D01*
X162342835Y-120206862D01*
X162423106Y-120197941D01*
X162505637Y-120191571D01*
X162592893Y-120187505D01*
X162687336Y-120185495D01*
X162750000Y-120185173D01*
X162850083Y-120186043D01*
X162941463Y-120188816D01*
X163026605Y-120193740D01*
X163107973Y-120201064D01*
X163188032Y-120211035D01*
X163269244Y-120223900D01*
X163354076Y-120239908D01*
X163409063Y-120251409D01*
X163495215Y-120270009D01*
X163552996Y-120204754D01*
X163574438Y-120181109D01*
X163601811Y-120151790D01*
X163632990Y-120119026D01*
X163665844Y-120085045D01*
X163698248Y-120052078D01*
X163709587Y-120040693D01*
X163800884Y-119951868D01*
X163892303Y-119867733D01*
X163983158Y-119788786D01*
X164072762Y-119715526D01*
X164160431Y-119648453D01*
X164245478Y-119588066D01*
X164327218Y-119534864D01*
X164404965Y-119489346D01*
X164478032Y-119452011D01*
X164545735Y-119423359D01*
X164569177Y-119415094D01*
X164592092Y-119407767D01*
X164610905Y-119402762D01*
X164628841Y-119399642D01*
X164649124Y-119397968D01*
X164674979Y-119397302D01*
X164700789Y-119397200D01*
X164739366Y-119397796D01*
X164739366Y-119397796D01*
G37*
X164739366Y-119397796D02*
X164769084Y-119400125D01*
X164792335Y-119404996D01*
X164811513Y-119413218D01*
X164829009Y-119425600D01*
X164847216Y-119442951D01*
X164852479Y-119448502D01*
X164875948Y-119478343D01*
X164895863Y-119514380D01*
X164912730Y-119557892D01*
X164927053Y-119610158D01*
X164938133Y-119665432D01*
X164941237Y-119685663D01*
X164943646Y-119707566D01*
X164945434Y-119732815D01*
X164946676Y-119763083D01*
X164947446Y-119800045D01*
X164947817Y-119845375D01*
X164947880Y-119885444D01*
X164947566Y-119944075D01*
X164946572Y-119997595D01*
X164944741Y-120048212D01*
X164941915Y-120098134D01*
X164937940Y-120149569D01*
X164932659Y-120204724D01*
X164925914Y-120265807D01*
X164917551Y-120335026D01*
X164914109Y-120362400D01*
X164910689Y-120389133D01*
X164907280Y-120415176D01*
X164903731Y-120441550D01*
X164899893Y-120469274D01*
X164895613Y-120499370D01*
X164890742Y-120532859D01*
X164885129Y-120570761D01*
X164878623Y-120614097D01*
X164871073Y-120663887D01*
X164862330Y-120721153D01*
X164852241Y-120786915D01*
X164840656Y-120862193D01*
X164832867Y-120912733D01*
X164803274Y-121104644D01*
X164838713Y-121160816D01*
X164870103Y-121214312D01*
X164901663Y-121274887D01*
X164931500Y-121338518D01*
X164957718Y-121401187D01*
X164976818Y-121453934D01*
X164987211Y-121487587D01*
X164997582Y-121524849D01*
X165007396Y-121563395D01*
X165016117Y-121600901D01*
X165023209Y-121635042D01*
X165028138Y-121663492D01*
X165030367Y-121683928D01*
X165030442Y-121686731D01*
X165032074Y-121701263D01*
X165035238Y-121710382D01*
X165038749Y-121711008D01*
X165047303Y-121708904D01*
X165061542Y-121703794D01*
X165082105Y-121695400D01*
X165109633Y-121683442D01*
X165144766Y-121667644D01*
X165188146Y-121647727D01*
X165240412Y-121623413D01*
X165300187Y-121595374D01*
X165514747Y-121494430D01*
X165720375Y-121494430D01*
X165726069Y-121519618D01*
X165739483Y-121541300D01*
X165758841Y-121557988D01*
X165782365Y-121568191D01*
X165808278Y-121570422D01*
X165834802Y-121563192D01*
X165837293Y-121561957D01*
X165860127Y-121544726D01*
X165874412Y-121522616D01*
X165880402Y-121497816D01*
X165878351Y-121472515D01*
X165868514Y-121448900D01*
X165851144Y-121429162D01*
X165826495Y-121415487D01*
X165820062Y-121413494D01*
X165793413Y-121411752D01*
X165767371Y-121419520D01*
X165744729Y-121435232D01*
X165728279Y-121457325D01*
X165724181Y-121467224D01*
X165720375Y-121494430D01*
X165514747Y-121494430D01*
X165560427Y-121472939D01*
X165566989Y-121441192D01*
X165582186Y-121393641D01*
X165606271Y-121351295D01*
X165637892Y-121315082D01*
X165675702Y-121285928D01*
X165718350Y-121264758D01*
X165764486Y-121252500D01*
X165812762Y-121250080D01*
X165840537Y-121253424D01*
X165890980Y-121268045D01*
X165935580Y-121291649D01*
X165973450Y-121323183D01*
X166003706Y-121361593D01*
X166025463Y-121405825D01*
X166037834Y-121454826D01*
X166040435Y-121491288D01*
X166035118Y-121542664D01*
X166019791Y-121590177D01*
X165995390Y-121632725D01*
X165962850Y-121669206D01*
X165923107Y-121698520D01*
X165877098Y-121719564D01*
X165838128Y-121729416D01*
X165789364Y-121732461D01*
X165741136Y-121724576D01*
X165693652Y-121706173D01*
X165659860Y-121689444D01*
X165352163Y-121833870D01*
X165296845Y-121859923D01*
X165244488Y-121884753D01*
X165196003Y-121907916D01*
X165152299Y-121928968D01*
X165114289Y-121947468D01*
X165082883Y-121962971D01*
X165058991Y-121975035D01*
X165043525Y-121983215D01*
X165037411Y-121987048D01*
X165032251Y-121998903D01*
X165030301Y-122013067D01*
X165029142Y-122025447D01*
X165026041Y-122045868D01*
X165021488Y-122071347D01*
X165016744Y-122095244D01*
X165011556Y-122120677D01*
X165007475Y-122141634D01*
X165004917Y-122155908D01*
X165004288Y-122161285D01*
X165009957Y-122161628D01*
X165026013Y-122162260D01*
X165051560Y-122163151D01*
X165085702Y-122164273D01*
X165127542Y-122165599D01*
X165176182Y-122167101D01*
X165230727Y-122168750D01*
X165290280Y-122170519D01*
X165353943Y-122172378D01*
X165408518Y-122173950D01*
X165485773Y-122176149D01*
X165552521Y-122178012D01*
X165609543Y-122179543D01*
X165657615Y-122180744D01*
X165697516Y-122181621D01*
X165730025Y-122182174D01*
X165755919Y-122182409D01*
X165775976Y-122182329D01*
X165790976Y-122181936D01*
X165801695Y-122181234D01*
X165808913Y-122180226D01*
X165813407Y-122178916D01*
X165815955Y-122177308D01*
X165817175Y-122175705D01*
X165831660Y-122155979D01*
X165852925Y-122134418D01*
X165877565Y-122114053D01*
X165902172Y-122097914D01*
X165908049Y-122094832D01*
X165956984Y-122076491D01*
X166006405Y-122068684D01*
X166054988Y-122070977D01*
X166101406Y-122082932D01*
X166144337Y-122104112D01*
X166182454Y-122134083D01*
X166214433Y-122172407D01*
X166231121Y-122201227D01*
X166240266Y-122220164D01*
X166246322Y-122235018D01*
X166249924Y-122249029D01*
X166251709Y-122265439D01*
X166252315Y-122287489D01*
X166252378Y-122309440D01*
X166252186Y-122338216D01*
X166251239Y-122358898D01*
X166248976Y-122374680D01*
X166244839Y-122388757D01*
X166238269Y-122404322D01*
X166234267Y-122412878D01*
X166207676Y-122456658D01*
X166173810Y-122492700D01*
X166134056Y-122520507D01*
X166089803Y-122539580D01*
X166042439Y-122549420D01*
X165993352Y-122549529D01*
X165943928Y-122539408D01*
X165914045Y-122527923D01*
X165891265Y-122514426D01*
X165865538Y-122494367D01*
X165840118Y-122470621D01*
X165818257Y-122446060D01*
X165812071Y-122437833D01*
X165800822Y-122422000D01*
X165422644Y-122411105D01*
X165335267Y-122408598D01*
X165258482Y-122406428D01*
X165191601Y-122404594D01*
X165133932Y-122403095D01*
X165084785Y-122401930D01*
X165043470Y-122401098D01*
X165009295Y-122400599D01*
X164981572Y-122400431D01*
X164959608Y-122400592D01*
X164942715Y-122401083D01*
X164930200Y-122401902D01*
X164921375Y-122403048D01*
X164915548Y-122404520D01*
X164912029Y-122406317D01*
X164910127Y-122408438D01*
X164909313Y-122410346D01*
X164905361Y-122419012D01*
X164896944Y-122435197D01*
X164885263Y-122456658D01*
X164871519Y-122481150D01*
X164870247Y-122483382D01*
X164834451Y-122546116D01*
X165247034Y-122740412D01*
X165659618Y-122934708D01*
X165691090Y-122918715D01*
X165738923Y-122900321D01*
X165788006Y-122892366D01*
X165836828Y-122894492D01*
X165883879Y-122906339D01*
X165927646Y-122927550D01*
X165966621Y-122957765D01*
X165995349Y-122990953D01*
X166014636Y-123021377D01*
X166027451Y-123051116D01*
X166034809Y-123083648D01*
X166037727Y-123122453D01*
X166037889Y-123136644D01*
X166037622Y-123163360D01*
X166036290Y-123182644D01*
X166033096Y-123198347D01*
X166027243Y-123214322D01*
X166017933Y-123234423D01*
X166017451Y-123235422D01*
X165990554Y-123279417D01*
X165957027Y-123315416D01*
X165918241Y-123343153D01*
X165875563Y-123362362D01*
X165830362Y-123372778D01*
X165784007Y-123374133D01*
X165737866Y-123366163D01*
X165693308Y-123348600D01*
X165651701Y-123321180D01*
X165638049Y-123309166D01*
X165607914Y-123275398D01*
X165585629Y-123237581D01*
X165569404Y-123192618D01*
X165568224Y-123188280D01*
X165558111Y-123150269D01*
X165530388Y-123137206D01*
X165722097Y-123137206D01*
X165727097Y-123161977D01*
X165740285Y-123184597D01*
X165761069Y-123202328D01*
X165786037Y-123211415D01*
X165813493Y-123211528D01*
X165839231Y-123202785D01*
X165843732Y-123200031D01*
X165864629Y-123180398D01*
X165876587Y-123157025D01*
X165880203Y-123131965D01*
X165876076Y-123107268D01*
X165864805Y-123084988D01*
X165846988Y-123067175D01*
X165823223Y-123055881D01*
X165800822Y-123052918D01*
X165773068Y-123057658D01*
X165750772Y-123070509D01*
X165734481Y-123089419D01*
X165724740Y-123112336D01*
X165722097Y-123137206D01*
X165530388Y-123137206D01*
X164690657Y-122741533D01*
X164602273Y-122829256D01*
X164544149Y-122885319D01*
X164489063Y-122934728D01*
X164433732Y-122980169D01*
X164374873Y-123024324D01*
X164309204Y-123069878D01*
X164302222Y-123074556D01*
X164166925Y-123158329D01*
X164024403Y-123233819D01*
X163875332Y-123300802D01*
X163720390Y-123359056D01*
X163560253Y-123408360D01*
X163395600Y-123448489D01*
X163227106Y-123479222D01*
X163055450Y-123500337D01*
X162989889Y-123505766D01*
X162948028Y-123508337D01*
X162899875Y-123510574D01*
X162848203Y-123512410D01*
X162795782Y-123513775D01*
X162745385Y-123514603D01*
X162699782Y-123514826D01*
X162661747Y-123514375D01*
X162651222Y-123514063D01*
X162469490Y-123502667D01*
X162291990Y-123481674D01*
X162119091Y-123451195D01*
X161951162Y-123411342D01*
X161788572Y-123362226D01*
X161631692Y-123303960D01*
X161480891Y-123236654D01*
X161336537Y-123160421D01*
X161199001Y-123075373D01*
X161197778Y-123074556D01*
X161131257Y-123028718D01*
X161071872Y-122984544D01*
X161016339Y-122939350D01*
X160961375Y-122890452D01*
X160903697Y-122835167D01*
X160897727Y-122829256D01*
X160809343Y-122741533D01*
X159941889Y-123150269D01*
X159931776Y-123188280D01*
X159915993Y-123234008D01*
X159894304Y-123272322D01*
X159864921Y-123306319D01*
X159861951Y-123309166D01*
X159821707Y-123340109D01*
X159778030Y-123361101D01*
X159732289Y-123372407D01*
X159685853Y-123374295D01*
X159640091Y-123367031D01*
X159596371Y-123350879D01*
X159556062Y-123326107D01*
X159520533Y-123292980D01*
X159491152Y-123251764D01*
X159482548Y-123235422D01*
X159473075Y-123215062D01*
X159467092Y-123198990D01*
X159463801Y-123183354D01*
X159462407Y-123164300D01*
X159462111Y-123137976D01*
X159462111Y-123137748D01*
X159618702Y-123137748D01*
X159624719Y-123161168D01*
X159637547Y-123182004D01*
X159655766Y-123198666D01*
X159677954Y-123209568D01*
X159702690Y-123213121D01*
X159728551Y-123207737D01*
X159735702Y-123204462D01*
X159756227Y-123188343D01*
X159770510Y-123166138D01*
X159777746Y-123140814D01*
X159777130Y-123115333D01*
X159767857Y-123092662D01*
X159766562Y-123090850D01*
X159743537Y-123067543D01*
X159718033Y-123054694D01*
X159691539Y-123052318D01*
X159665547Y-123060431D01*
X159641547Y-123079048D01*
X159632791Y-123089504D01*
X159620919Y-123113330D01*
X159618702Y-123137748D01*
X159462111Y-123137748D01*
X159462111Y-123136644D01*
X159463832Y-123095121D01*
X159469670Y-123060974D01*
X159480643Y-123030725D01*
X159497765Y-123000896D01*
X159504650Y-122990953D01*
X159538249Y-122953225D01*
X159577950Y-122924191D01*
X159622243Y-122904209D01*
X159669618Y-122893638D01*
X159718562Y-122892837D01*
X159767566Y-122902164D01*
X159808910Y-122918715D01*
X159840382Y-122934708D01*
X160252965Y-122740412D01*
X160665549Y-122546116D01*
X160629753Y-122483382D01*
X160615884Y-122458730D01*
X160603973Y-122436912D01*
X160595219Y-122420170D01*
X160590825Y-122410750D01*
X160590687Y-122410346D01*
X160589576Y-122407969D01*
X160587394Y-122405916D01*
X160583451Y-122404186D01*
X160577057Y-122402782D01*
X160567520Y-122401705D01*
X160554150Y-122400954D01*
X160536257Y-122400532D01*
X160513151Y-122400438D01*
X160484141Y-122400676D01*
X160448536Y-122401244D01*
X160405647Y-122402145D01*
X160354782Y-122403379D01*
X160295251Y-122404948D01*
X160226364Y-122406852D01*
X160147430Y-122409092D01*
X160077355Y-122411105D01*
X159699178Y-122422000D01*
X159687929Y-122437833D01*
X159668074Y-122462003D01*
X159643525Y-122486360D01*
X159617536Y-122508031D01*
X159593359Y-122524142D01*
X159585954Y-122527923D01*
X159537012Y-122544566D01*
X159487554Y-122550673D01*
X159438968Y-122546742D01*
X159392642Y-122533273D01*
X159349964Y-122510765D01*
X159312323Y-122479715D01*
X159281105Y-122440622D01*
X159265733Y-122412878D01*
X159257853Y-122395552D01*
X159252664Y-122381187D01*
X159249607Y-122366587D01*
X159248123Y-122348560D01*
X159247652Y-122323911D01*
X159247622Y-122309440D01*
X159247623Y-122309096D01*
X159403890Y-122309096D01*
X159404464Y-122320199D01*
X159408163Y-122338177D01*
X159416224Y-122352592D01*
X159430290Y-122367378D01*
X159445476Y-122380229D01*
X159458342Y-122386605D01*
X159473876Y-122388637D01*
X159480237Y-122388718D01*
X159505971Y-122385465D01*
X159523402Y-122378043D01*
X159544160Y-122358567D01*
X159556685Y-122334566D01*
X159561023Y-122308449D01*
X159557222Y-122282622D01*
X159545330Y-122259495D01*
X159525395Y-122241476D01*
X159520647Y-122238799D01*
X159492952Y-122229989D01*
X159466080Y-122231122D01*
X159441883Y-122240898D01*
X159422216Y-122258018D01*
X159408934Y-122281184D01*
X159403890Y-122309096D01*
X159247623Y-122309096D01*
X159247763Y-122281102D01*
X159248611Y-122260811D01*
X159250803Y-122245327D01*
X159254975Y-122231409D01*
X159261764Y-122215815D01*
X159268878Y-122201227D01*
X159296216Y-122157767D01*
X159330543Y-122122381D01*
X159370534Y-122095504D01*
X159414864Y-122077573D01*
X159462209Y-122069024D01*
X159511244Y-122070294D01*
X159560644Y-122081818D01*
X159591951Y-122094832D01*
X159616004Y-122109403D01*
X159640959Y-122128976D01*
X159663411Y-122150520D01*
X159679955Y-122171003D01*
X159682825Y-122175705D01*
X159684330Y-122177565D01*
X159687118Y-122179130D01*
X159691967Y-122180395D01*
X159699656Y-122181357D01*
X159710961Y-122182014D01*
X159726662Y-122182360D01*
X159747537Y-122182395D01*
X159774363Y-122182113D01*
X159807920Y-122181511D01*
X159848985Y-122180587D01*
X159898336Y-122179336D01*
X159956753Y-122177756D01*
X160025012Y-122175844D01*
X160091482Y-122173950D01*
X160157844Y-122172036D01*
X160220829Y-122170191D01*
X160279542Y-122168442D01*
X160333085Y-122166818D01*
X160380561Y-122165345D01*
X160421074Y-122164054D01*
X160453726Y-122162971D01*
X160477622Y-122162125D01*
X160491865Y-122161544D01*
X160495712Y-122161285D01*
X160495043Y-122155663D01*
X160492444Y-122141204D01*
X160488332Y-122120115D01*
X160483256Y-122095244D01*
X160477843Y-122067793D01*
X160473455Y-122042812D01*
X160470582Y-122023284D01*
X160469699Y-122013067D01*
X160467422Y-121997707D01*
X160462589Y-121987048D01*
X160456328Y-121983133D01*
X160440743Y-121974898D01*
X160416745Y-121962786D01*
X160385244Y-121947240D01*
X160347152Y-121928703D01*
X160303379Y-121907619D01*
X160254836Y-121884431D01*
X160202433Y-121859582D01*
X160147836Y-121833870D01*
X159840139Y-121689444D01*
X159806347Y-121706173D01*
X159757764Y-121724879D01*
X159709534Y-121732512D01*
X159661872Y-121729416D01*
X159611688Y-121715464D01*
X159567052Y-121692397D01*
X159528902Y-121661318D01*
X159498172Y-121623327D01*
X159475798Y-121579526D01*
X159462717Y-121531016D01*
X159460004Y-121496815D01*
X159619105Y-121496815D01*
X159625164Y-121522619D01*
X159631833Y-121535007D01*
X159650686Y-121554192D01*
X159675496Y-121566118D01*
X159702910Y-121569918D01*
X159729578Y-121564719D01*
X159735648Y-121561957D01*
X159759003Y-121544522D01*
X159773543Y-121522403D01*
X159779472Y-121497706D01*
X159776995Y-121472536D01*
X159766317Y-121448997D01*
X159747642Y-121429194D01*
X159721395Y-121415309D01*
X159694549Y-121411200D01*
X159669834Y-121416558D01*
X159648590Y-121429592D01*
X159632159Y-121448508D01*
X159621884Y-121471513D01*
X159619105Y-121496815D01*
X159460004Y-121496815D01*
X159459565Y-121491288D01*
X159464850Y-121439479D01*
X159480118Y-121391772D01*
X159504482Y-121349209D01*
X159537059Y-121312829D01*
X159576964Y-121283676D01*
X159623313Y-121262790D01*
X159661812Y-121253171D01*
X159711118Y-121250144D01*
X159758824Y-121257480D01*
X159803598Y-121274258D01*
X159844111Y-121299555D01*
X159879034Y-121332449D01*
X159907035Y-121372019D01*
X159926785Y-121417341D01*
X159933010Y-121441192D01*
X159939573Y-121472939D01*
X160199623Y-121595285D01*
X160250142Y-121618994D01*
X160297505Y-121641107D01*
X160340745Y-121661180D01*
X160378895Y-121678772D01*
X160410988Y-121693437D01*
X160436056Y-121704732D01*
X160453132Y-121712213D01*
X160461249Y-121715438D01*
X160461788Y-121715515D01*
X160463481Y-121709459D01*
X160466576Y-121694451D01*
X160470649Y-121672676D01*
X160475277Y-121646322D01*
X160475797Y-121643266D01*
X160499845Y-121532970D01*
X160534260Y-121422859D01*
X160578239Y-121315004D01*
X161248795Y-121315004D01*
X161249058Y-121346007D01*
X161250006Y-121381691D01*
X161251550Y-121419863D01*
X161253599Y-121458336D01*
X161256062Y-121494920D01*
X161258851Y-121527424D01*
X161261874Y-121553660D01*
X161262236Y-121556200D01*
X161282287Y-121665371D01*
X161309216Y-121765635D01*
X161343053Y-121857061D01*
X161383828Y-121939716D01*
X161431570Y-122013668D01*
X161486309Y-122078985D01*
X161496803Y-122089726D01*
X161561685Y-122146708D01*
X161635109Y-122196571D01*
X161716740Y-122239163D01*
X161806237Y-122274333D01*
X161903263Y-122301929D01*
X162007481Y-122321800D01*
X162019044Y-122323462D01*
X162051058Y-122327852D01*
X162076911Y-122331093D01*
X162099349Y-122333345D01*
X162121119Y-122334773D01*
X162144964Y-122335539D01*
X162173633Y-122335805D01*
X162209869Y-122335733D01*
X162225067Y-122335657D01*
X162323844Y-122335133D01*
X162325453Y-122239177D01*
X162325346Y-122233969D01*
X163173333Y-122233969D01*
X163173570Y-122265945D01*
X163174226Y-122293968D01*
X163175219Y-122316097D01*
X163176468Y-122330391D01*
X163177567Y-122334850D01*
X163184810Y-122336468D01*
X163201527Y-122337374D01*
X163225929Y-122337632D01*
X163256228Y-122337306D01*
X163290636Y-122336460D01*
X163327363Y-122335157D01*
X163364621Y-122333461D01*
X163400623Y-122331436D01*
X163433579Y-122329145D01*
X163461700Y-122326653D01*
X163483199Y-122324023D01*
X163483778Y-122323934D01*
X163503821Y-122320069D01*
X165938953Y-122320069D01*
X165947092Y-122345105D01*
X165962861Y-122366195D01*
X165985108Y-122381311D01*
X166012681Y-122388426D01*
X166019763Y-122388718D01*
X166037207Y-122387627D01*
X166050385Y-122382876D01*
X166064285Y-122372333D01*
X166069710Y-122367378D01*
X166088598Y-122343124D01*
X166096774Y-122316207D01*
X166094006Y-122287767D01*
X166088732Y-122273932D01*
X166072650Y-122251735D01*
X166050755Y-122237239D01*
X166025552Y-122230585D01*
X165999548Y-122231910D01*
X165975250Y-122241354D01*
X165955164Y-122259055D01*
X165950171Y-122266262D01*
X165939595Y-122293112D01*
X165938953Y-122320069D01*
X163503821Y-122320069D01*
X163591346Y-122303192D01*
X163690097Y-122275528D01*
X163780222Y-122240747D01*
X163861914Y-122198652D01*
X163935364Y-122149050D01*
X164000764Y-122091744D01*
X164058307Y-122026538D01*
X164108184Y-121953237D01*
X164150587Y-121871646D01*
X164185709Y-121781569D01*
X164213741Y-121682811D01*
X164234875Y-121575176D01*
X164237764Y-121556200D01*
X164240808Y-121530834D01*
X164243628Y-121498945D01*
X164246134Y-121462723D01*
X164248236Y-121424357D01*
X164249843Y-121386037D01*
X164250865Y-121349952D01*
X164251212Y-121318293D01*
X164250794Y-121293248D01*
X164249520Y-121277008D01*
X164249313Y-121275793D01*
X164245536Y-121255659D01*
X164196268Y-121251946D01*
X164161073Y-121250711D01*
X164117656Y-121251418D01*
X164068880Y-121253870D01*
X164017607Y-121257873D01*
X163966701Y-121263232D01*
X163919024Y-121269750D01*
X163907111Y-121271678D01*
X163809722Y-121292172D01*
X163718006Y-121319807D01*
X163632850Y-121354177D01*
X163555140Y-121394876D01*
X163485765Y-121441499D01*
X163429178Y-121490135D01*
X163372317Y-121553243D01*
X163322212Y-121625004D01*
X163279042Y-121704893D01*
X163242988Y-121792385D01*
X163214230Y-121886958D01*
X163192949Y-121988085D01*
X163179324Y-122095244D01*
X163173537Y-122207909D01*
X163173333Y-122233969D01*
X162325346Y-122233969D01*
X162323201Y-122129853D01*
X162312889Y-122024441D01*
X162294769Y-121923685D01*
X162269095Y-121828330D01*
X162236121Y-121739122D01*
X162196098Y-121656804D01*
X162149281Y-121582123D01*
X162095921Y-121515821D01*
X162070889Y-121489937D01*
X162011223Y-121438981D01*
X161942313Y-121393274D01*
X161865130Y-121353260D01*
X161780644Y-121319382D01*
X161689826Y-121292082D01*
X161593646Y-121271805D01*
X161592889Y-121271678D01*
X161546570Y-121264881D01*
X161496252Y-121259191D01*
X161444796Y-121254804D01*
X161395067Y-121251914D01*
X161349925Y-121250719D01*
X161312235Y-121251412D01*
X161303732Y-121251946D01*
X161254464Y-121255659D01*
X161250687Y-121275793D01*
X161249308Y-121290869D01*
X161248795Y-121315004D01*
X160578239Y-121315004D01*
X160578268Y-121314935D01*
X160631096Y-121211202D01*
X160664397Y-121155444D01*
X160696487Y-121104644D01*
X160675916Y-120966355D01*
X160659453Y-120855356D01*
X160644649Y-120754702D01*
X160631416Y-120663586D01*
X160619670Y-120581201D01*
X160609324Y-120506738D01*
X160600292Y-120439391D01*
X160592487Y-120378350D01*
X160585824Y-120322810D01*
X160580215Y-120271962D01*
X160575576Y-120224998D01*
X160571820Y-120181112D01*
X160568860Y-120139494D01*
X160566611Y-120099339D01*
X160564986Y-120059837D01*
X160563899Y-120020182D01*
X160563264Y-119979565D01*
X160562994Y-119937180D01*
X160562975Y-119908022D01*
X160563149Y-119853558D01*
X160563587Y-119808833D01*
X160564353Y-119772299D01*
X160565513Y-119742408D01*
X160567134Y-119717612D01*
X160569282Y-119696362D01*
X160572021Y-119677111D01*
X160573062Y-119670955D01*
X160587051Y-119604164D01*
X160603952Y-119547692D01*
X160624105Y-119500864D01*
X160647850Y-119463008D01*
X160675529Y-119433449D01*
X160703012Y-119413995D01*
X160715057Y-119407341D01*
X160725593Y-119402740D01*
X160737055Y-119399811D01*
X160751878Y-119398176D01*
X160772499Y-119397452D01*
X160801353Y-119397262D01*
X160810301Y-119397252D01*
X160842979Y-119397430D01*
X160867470Y-119398280D01*
X160886872Y-119400201D01*
X160904283Y-119403590D01*
X160922802Y-119408848D01*
X160937301Y-119413591D01*
X161009795Y-119441803D01*
X161086882Y-119479323D01*
X161168702Y-119526243D01*
X161255394Y-119582654D01*
X161347098Y-119648648D01*
X161443952Y-119724318D01*
X161546097Y-119809756D01*
X161569884Y-119830387D01*
X161605117Y-119861948D01*
X161645856Y-119899798D01*
X161690401Y-119942248D01*
X161737050Y-119987613D01*
X161784102Y-120034203D01*
X161829855Y-120080332D01*
X161872608Y-120124313D01*
X161910660Y-120164458D01*
X161942309Y-120199079D01*
X161947312Y-120204727D01*
X162004785Y-120270009D01*
X162090937Y-120251409D01*
X162179214Y-120233348D01*
X162262359Y-120218582D01*
X162342835Y-120206862D01*
X162423106Y-120197941D01*
X162505637Y-120191571D01*
X162592893Y-120187505D01*
X162687336Y-120185495D01*
X162750000Y-120185173D01*
X162850083Y-120186043D01*
X162941463Y-120188816D01*
X163026605Y-120193740D01*
X163107973Y-120201064D01*
X163188032Y-120211035D01*
X163269244Y-120223900D01*
X163354076Y-120239908D01*
X163409063Y-120251409D01*
X163495215Y-120270009D01*
X163552996Y-120204754D01*
X163574438Y-120181109D01*
X163601811Y-120151790D01*
X163632990Y-120119026D01*
X163665844Y-120085045D01*
X163698248Y-120052078D01*
X163709587Y-120040693D01*
X163800884Y-119951868D01*
X163892303Y-119867733D01*
X163983158Y-119788786D01*
X164072762Y-119715526D01*
X164160431Y-119648453D01*
X164245478Y-119588066D01*
X164327218Y-119534864D01*
X164404965Y-119489346D01*
X164478032Y-119452011D01*
X164545735Y-119423359D01*
X164569177Y-119415094D01*
X164592092Y-119407767D01*
X164610905Y-119402762D01*
X164628841Y-119399642D01*
X164649124Y-119397968D01*
X164674979Y-119397302D01*
X164700789Y-119397200D01*
X164739366Y-119397796D01*
D18*
X118291648Y-109817091D02*
X119153433Y-109817091D01*
X119325790Y-109874543D01*
X119440695Y-109989448D01*
X119498148Y-110161805D01*
X119498148Y-110276710D01*
X119498148Y-108610591D02*
X119498148Y-109300019D01*
X119498148Y-108955305D02*
X118291648Y-108955305D01*
X118464005Y-109070210D01*
X118578910Y-109185115D01*
X118636362Y-109300019D01*
X118291648Y-107863710D02*
X118291648Y-107748805D01*
X118349100Y-107633900D01*
X118406552Y-107576448D01*
X118521457Y-107518995D01*
X118751267Y-107461543D01*
X119038529Y-107461543D01*
X119268338Y-107518995D01*
X119383243Y-107576448D01*
X119440695Y-107633900D01*
X119498148Y-107748805D01*
X119498148Y-107863710D01*
X119440695Y-107978614D01*
X119383243Y-108036067D01*
X119268338Y-108093519D01*
X119038529Y-108150971D01*
X118751267Y-108150971D01*
X118521457Y-108093519D01*
X118406552Y-108036067D01*
X118349100Y-107978614D01*
X118291648Y-107863710D01*
X112186048Y-110654738D02*
X113162738Y-110654738D01*
X113277643Y-110597286D01*
X113335095Y-110539833D01*
X113392548Y-110424929D01*
X113392548Y-110195119D01*
X113335095Y-110080214D01*
X113277643Y-110022762D01*
X113162738Y-109965310D01*
X112186048Y-109965310D01*
X113335095Y-109448238D02*
X113392548Y-109275881D01*
X113392548Y-108988619D01*
X113335095Y-108873715D01*
X113277643Y-108816262D01*
X113162738Y-108758810D01*
X113047833Y-108758810D01*
X112932929Y-108816262D01*
X112875476Y-108873715D01*
X112818024Y-108988619D01*
X112760571Y-109218429D01*
X112703119Y-109333334D01*
X112645667Y-109390786D01*
X112530762Y-109448238D01*
X112415857Y-109448238D01*
X112300952Y-109390786D01*
X112243500Y-109333334D01*
X112186048Y-109218429D01*
X112186048Y-108931167D01*
X112243500Y-108758810D01*
X112760571Y-107839571D02*
X112818024Y-107667214D01*
X112875476Y-107609762D01*
X112990381Y-107552310D01*
X113162738Y-107552310D01*
X113277643Y-107609762D01*
X113335095Y-107667214D01*
X113392548Y-107782119D01*
X113392548Y-108241738D01*
X112186048Y-108241738D01*
X112186048Y-107839571D01*
X112243500Y-107724667D01*
X112300952Y-107667214D01*
X112415857Y-107609762D01*
X112530762Y-107609762D01*
X112645667Y-107667214D01*
X112703119Y-107724667D01*
X112760571Y-107839571D01*
X112760571Y-108241738D01*
X113507452Y-107322500D02*
X113507452Y-106403262D01*
X112760571Y-105713833D02*
X112818024Y-105541476D01*
X112875476Y-105484024D01*
X112990381Y-105426572D01*
X113162738Y-105426572D01*
X113277643Y-105484024D01*
X113335095Y-105541476D01*
X113392548Y-105656381D01*
X113392548Y-106116000D01*
X112186048Y-106116000D01*
X112186048Y-105713833D01*
X112243500Y-105598929D01*
X112300952Y-105541476D01*
X112415857Y-105484024D01*
X112530762Y-105484024D01*
X112645667Y-105541476D01*
X112703119Y-105598929D01*
X112760571Y-105713833D01*
X112760571Y-106116000D01*
D19*
X115849310Y-106671383D02*
X115849310Y-107112617D01*
X115849310Y-106892000D02*
X115077150Y-106892000D01*
X115187459Y-106965539D01*
X115260998Y-107039078D01*
X115297768Y-107112617D01*
D14*
X173314020Y-105343467D02*
X173773639Y-105343467D01*
X173222096Y-105619238D02*
X173543829Y-104654038D01*
X173865562Y-105619238D01*
X174187296Y-105113657D02*
X174509029Y-105113657D01*
X174646915Y-105619238D02*
X174187296Y-105619238D01*
X174187296Y-104654038D01*
X174646915Y-104654038D01*
X175566152Y-105619238D02*
X175014610Y-105619238D01*
X175290381Y-105619238D02*
X175290381Y-104654038D01*
X175198457Y-104791924D01*
X175106533Y-104883848D01*
X175014610Y-104929810D01*
X134178334Y-106199143D02*
X134130715Y-106246762D01*
X133987858Y-106294381D01*
X133892620Y-106294381D01*
X133749762Y-106246762D01*
X133654524Y-106151524D01*
X133606905Y-106056286D01*
X133559286Y-105865810D01*
X133559286Y-105722952D01*
X133606905Y-105532476D01*
X133654524Y-105437238D01*
X133749762Y-105342000D01*
X133892620Y-105294381D01*
X133987858Y-105294381D01*
X134130715Y-105342000D01*
X134178334Y-105389619D01*
X134511667Y-105294381D02*
X135130715Y-105294381D01*
X134797381Y-105675333D01*
X134940239Y-105675333D01*
X135035477Y-105722952D01*
X135083096Y-105770571D01*
X135130715Y-105865810D01*
X135130715Y-106103905D01*
X135083096Y-106199143D01*
X135035477Y-106246762D01*
X134940239Y-106294381D01*
X134654524Y-106294381D01*
X134559286Y-106246762D01*
X134511667Y-106199143D01*
X150953334Y-108474143D02*
X150905715Y-108521762D01*
X150762858Y-108569381D01*
X150667620Y-108569381D01*
X150524762Y-108521762D01*
X150429524Y-108426524D01*
X150381905Y-108331286D01*
X150334286Y-108140810D01*
X150334286Y-107997952D01*
X150381905Y-107807476D01*
X150429524Y-107712238D01*
X150524762Y-107617000D01*
X150667620Y-107569381D01*
X150762858Y-107569381D01*
X150905715Y-107617000D01*
X150953334Y-107664619D01*
X151810477Y-107902714D02*
X151810477Y-108569381D01*
X151572381Y-107521762D02*
X151334286Y-108236048D01*
X151953334Y-108236048D01*
X134178334Y-109849143D02*
X134130715Y-109896762D01*
X133987858Y-109944381D01*
X133892620Y-109944381D01*
X133749762Y-109896762D01*
X133654524Y-109801524D01*
X133606905Y-109706286D01*
X133559286Y-109515810D01*
X133559286Y-109372952D01*
X133606905Y-109182476D01*
X133654524Y-109087238D01*
X133749762Y-108992000D01*
X133892620Y-108944381D01*
X133987858Y-108944381D01*
X134130715Y-108992000D01*
X134178334Y-109039619D01*
X135083096Y-108944381D02*
X134606905Y-108944381D01*
X134559286Y-109420571D01*
X134606905Y-109372952D01*
X134702143Y-109325333D01*
X134940239Y-109325333D01*
X135035477Y-109372952D01*
X135083096Y-109420571D01*
X135130715Y-109515810D01*
X135130715Y-109753905D01*
X135083096Y-109849143D01*
X135035477Y-109896762D01*
X134940239Y-109944381D01*
X134702143Y-109944381D01*
X134606905Y-109896762D01*
X134559286Y-109849143D01*
X120678334Y-103049143D02*
X120630715Y-103096762D01*
X120487858Y-103144381D01*
X120392620Y-103144381D01*
X120249762Y-103096762D01*
X120154524Y-103001524D01*
X120106905Y-102906286D01*
X120059286Y-102715810D01*
X120059286Y-102572952D01*
X120106905Y-102382476D01*
X120154524Y-102287238D01*
X120249762Y-102192000D01*
X120392620Y-102144381D01*
X120487858Y-102144381D01*
X120630715Y-102192000D01*
X120678334Y-102239619D01*
X121535477Y-102144381D02*
X121345000Y-102144381D01*
X121249762Y-102192000D01*
X121202143Y-102239619D01*
X121106905Y-102382476D01*
X121059286Y-102572952D01*
X121059286Y-102953905D01*
X121106905Y-103049143D01*
X121154524Y-103096762D01*
X121249762Y-103144381D01*
X121440239Y-103144381D01*
X121535477Y-103096762D01*
X121583096Y-103049143D01*
X121630715Y-102953905D01*
X121630715Y-102715810D01*
X121583096Y-102620571D01*
X121535477Y-102572952D01*
X121440239Y-102525333D01*
X121249762Y-102525333D01*
X121154524Y-102572952D01*
X121106905Y-102620571D01*
X121059286Y-102715810D01*
X130278334Y-103249143D02*
X130230715Y-103296762D01*
X130087858Y-103344381D01*
X129992620Y-103344381D01*
X129849762Y-103296762D01*
X129754524Y-103201524D01*
X129706905Y-103106286D01*
X129659286Y-102915810D01*
X129659286Y-102772952D01*
X129706905Y-102582476D01*
X129754524Y-102487238D01*
X129849762Y-102392000D01*
X129992620Y-102344381D01*
X130087858Y-102344381D01*
X130230715Y-102392000D01*
X130278334Y-102439619D01*
X130611667Y-102344381D02*
X131278334Y-102344381D01*
X130849762Y-103344381D01*
X122411905Y-100452381D02*
X122411905Y-99452381D01*
X122650000Y-99452381D01*
X122792858Y-99500000D01*
X122888096Y-99595238D01*
X122935715Y-99690476D01*
X122983334Y-99880952D01*
X122983334Y-100023810D01*
X122935715Y-100214286D01*
X122888096Y-100309524D01*
X122792858Y-100404762D01*
X122650000Y-100452381D01*
X122411905Y-100452381D01*
X123840477Y-99452381D02*
X123650000Y-99452381D01*
X123554762Y-99500000D01*
X123507143Y-99547619D01*
X123411905Y-99690476D01*
X123364286Y-99880952D01*
X123364286Y-100261905D01*
X123411905Y-100357143D01*
X123459524Y-100404762D01*
X123554762Y-100452381D01*
X123745239Y-100452381D01*
X123840477Y-100404762D01*
X123888096Y-100357143D01*
X123935715Y-100261905D01*
X123935715Y-100023810D01*
X123888096Y-99928571D01*
X123840477Y-99880952D01*
X123745239Y-99833333D01*
X123554762Y-99833333D01*
X123459524Y-99880952D01*
X123411905Y-99928571D01*
X123364286Y-100023810D01*
X122411905Y-117452381D02*
X122411905Y-116452381D01*
X122650000Y-116452381D01*
X122792858Y-116500000D01*
X122888096Y-116595238D01*
X122935715Y-116690476D01*
X122983334Y-116880952D01*
X122983334Y-117023810D01*
X122935715Y-117214286D01*
X122888096Y-117309524D01*
X122792858Y-117404762D01*
X122650000Y-117452381D01*
X122411905Y-117452381D01*
X123316667Y-116452381D02*
X123983334Y-116452381D01*
X123554762Y-117452381D01*
X138042857Y-113904762D02*
X138185714Y-113952381D01*
X138423810Y-113952381D01*
X138519048Y-113904762D01*
X138566667Y-113857143D01*
X138614286Y-113761905D01*
X138614286Y-113666667D01*
X138566667Y-113571429D01*
X138519048Y-113523810D01*
X138423810Y-113476190D01*
X138233333Y-113428571D01*
X138138095Y-113380952D01*
X138090476Y-113333333D01*
X138042857Y-113238095D01*
X138042857Y-113142857D01*
X138090476Y-113047619D01*
X138138095Y-113000000D01*
X138233333Y-112952381D01*
X138471429Y-112952381D01*
X138614286Y-113000000D01*
X138947619Y-112952381D02*
X139185714Y-113952381D01*
X139376191Y-113238095D01*
X139566667Y-113952381D01*
X139804762Y-112952381D01*
X140185714Y-113952381D02*
X140185714Y-112952381D01*
X140423809Y-112952381D01*
X140566667Y-113000000D01*
X140661905Y-113095238D01*
X140709524Y-113190476D01*
X140757143Y-113380952D01*
X140757143Y-113523810D01*
X140709524Y-113714286D01*
X140661905Y-113809524D01*
X140566667Y-113904762D01*
X140423809Y-113952381D01*
X140185714Y-113952381D01*
X130483334Y-100452381D02*
X130150000Y-99976190D01*
X129911905Y-100452381D02*
X129911905Y-99452381D01*
X130292858Y-99452381D01*
X130388096Y-99500000D01*
X130435715Y-99547619D01*
X130483334Y-99642857D01*
X130483334Y-99785714D01*
X130435715Y-99880952D01*
X130388096Y-99928571D01*
X130292858Y-99976190D01*
X129911905Y-99976190D01*
X130959524Y-100452381D02*
X131150000Y-100452381D01*
X131245239Y-100404762D01*
X131292858Y-100357143D01*
X131388096Y-100214286D01*
X131435715Y-100023810D01*
X131435715Y-99642857D01*
X131388096Y-99547619D01*
X131340477Y-99500000D01*
X131245239Y-99452381D01*
X131054762Y-99452381D01*
X130959524Y-99500000D01*
X130911905Y-99547619D01*
X130864286Y-99642857D01*
X130864286Y-99880952D01*
X130911905Y-99976190D01*
X130959524Y-100023810D01*
X131054762Y-100071429D01*
X131245239Y-100071429D01*
X131340477Y-100023810D01*
X131388096Y-99976190D01*
X131435715Y-99880952D01*
X129857143Y-117452381D02*
X129523809Y-116976190D01*
X129285714Y-117452381D02*
X129285714Y-116452381D01*
X129666667Y-116452381D01*
X129761905Y-116500000D01*
X129809524Y-116547619D01*
X129857143Y-116642857D01*
X129857143Y-116785714D01*
X129809524Y-116880952D01*
X129761905Y-116928571D01*
X129666667Y-116976190D01*
X129285714Y-116976190D01*
X130809524Y-117452381D02*
X130238095Y-117452381D01*
X130523809Y-117452381D02*
X130523809Y-116452381D01*
X130428571Y-116595238D01*
X130333333Y-116690476D01*
X130238095Y-116738095D01*
X131761905Y-117452381D02*
X131190476Y-117452381D01*
X131476190Y-117452381D02*
X131476190Y-116452381D01*
X131380952Y-116595238D01*
X131285714Y-116690476D01*
X131190476Y-116738095D01*
X137166667Y-103904762D02*
X137309524Y-103952381D01*
X137547620Y-103952381D01*
X137642858Y-103904762D01*
X137690477Y-103857143D01*
X137738096Y-103761905D01*
X137738096Y-103666667D01*
X137690477Y-103571429D01*
X137642858Y-103523810D01*
X137547620Y-103476190D01*
X137357143Y-103428571D01*
X137261905Y-103380952D01*
X137214286Y-103333333D01*
X137166667Y-103238095D01*
X137166667Y-103142857D01*
X137214286Y-103047619D01*
X137261905Y-103000000D01*
X137357143Y-102952381D01*
X137595239Y-102952381D01*
X137738096Y-103000000D01*
X138071429Y-102952381D02*
X138309524Y-103952381D01*
X138500001Y-103238095D01*
X138690477Y-103952381D01*
X138928572Y-102952381D01*
X139833334Y-103952381D02*
X139261905Y-103952381D01*
X139547619Y-103952381D02*
X139547619Y-102952381D01*
X139452381Y-103095238D01*
X139357143Y-103190476D01*
X139261905Y-103238095D01*
X138997381Y-112103905D02*
X139806905Y-112103905D01*
X139902143Y-112056286D01*
X139949762Y-112008667D01*
X139997381Y-111913429D01*
X139997381Y-111722952D01*
X139949762Y-111627714D01*
X139902143Y-111580095D01*
X139806905Y-111532476D01*
X138997381Y-111532476D01*
X139997381Y-110532476D02*
X139997381Y-111103905D01*
X139997381Y-110818191D02*
X138997381Y-110818191D01*
X139140238Y-110913429D01*
X139235476Y-111008667D01*
X139283095Y-111103905D01*
X150183095Y-115944381D02*
X150183095Y-116753905D01*
X150230714Y-116849143D01*
X150278333Y-116896762D01*
X150373571Y-116944381D01*
X150564048Y-116944381D01*
X150659286Y-116896762D01*
X150706905Y-116849143D01*
X150754524Y-116753905D01*
X150754524Y-115944381D01*
X151183095Y-116039619D02*
X151230714Y-115992000D01*
X151325952Y-115944381D01*
X151564048Y-115944381D01*
X151659286Y-115992000D01*
X151706905Y-116039619D01*
X151754524Y-116134857D01*
X151754524Y-116230095D01*
X151706905Y-116372952D01*
X151135476Y-116944381D01*
X151754524Y-116944381D01*
X168147381Y-114706285D02*
X167671190Y-115039619D01*
X168147381Y-115277714D02*
X167147381Y-115277714D01*
X167147381Y-114896761D01*
X167195000Y-114801523D01*
X167242619Y-114753904D01*
X167337857Y-114706285D01*
X167480714Y-114706285D01*
X167575952Y-114753904D01*
X167623571Y-114801523D01*
X167671190Y-114896761D01*
X167671190Y-115277714D01*
X167623571Y-113944380D02*
X167623571Y-114277714D01*
X168147381Y-114277714D02*
X167147381Y-114277714D01*
X167147381Y-113801523D01*
X168147381Y-113420571D02*
X167147381Y-113420571D01*
X167861667Y-113087237D01*
X167147381Y-112753904D01*
X168147381Y-112753904D01*
X168147381Y-112230095D02*
X168147381Y-112039619D01*
X168099762Y-111944380D01*
X168052143Y-111896761D01*
X167909286Y-111801523D01*
X167718810Y-111753904D01*
X167337857Y-111753904D01*
X167242619Y-111801523D01*
X167195000Y-111849142D01*
X167147381Y-111944380D01*
X167147381Y-112134857D01*
X167195000Y-112230095D01*
X167242619Y-112277714D01*
X167337857Y-112325333D01*
X167575952Y-112325333D01*
X167671190Y-112277714D01*
X167718810Y-112230095D01*
X167766429Y-112134857D01*
X167766429Y-111944380D01*
X167718810Y-111849142D01*
X167671190Y-111801523D01*
X167575952Y-111753904D01*
X167147381Y-110849142D02*
X167147381Y-111325333D01*
X167623571Y-111372952D01*
X167575952Y-111325333D01*
X167528333Y-111230095D01*
X167528333Y-110991999D01*
X167575952Y-110896761D01*
X167623571Y-110849142D01*
X167718810Y-110801523D01*
X167956905Y-110801523D01*
X168052143Y-110849142D01*
X168099762Y-110896761D01*
X168147381Y-110991999D01*
X168147381Y-111230095D01*
X168099762Y-111325333D01*
X168052143Y-111372952D01*
X167147381Y-110468190D02*
X168147381Y-110230095D01*
X167433095Y-110039618D01*
X168147381Y-109849142D01*
X167147381Y-109611047D01*
X167766429Y-109230095D02*
X167766429Y-108468190D01*
X167575952Y-107849143D02*
X167528333Y-107944381D01*
X167480714Y-107992000D01*
X167385476Y-108039619D01*
X167337857Y-108039619D01*
X167242619Y-107992000D01*
X167195000Y-107944381D01*
X167147381Y-107849143D01*
X167147381Y-107658666D01*
X167195000Y-107563428D01*
X167242619Y-107515809D01*
X167337857Y-107468190D01*
X167385476Y-107468190D01*
X167480714Y-107515809D01*
X167528333Y-107563428D01*
X167575952Y-107658666D01*
X167575952Y-107849143D01*
X167623571Y-107944381D01*
X167671190Y-107992000D01*
X167766429Y-108039619D01*
X167956905Y-108039619D01*
X168052143Y-107992000D01*
X168099762Y-107944381D01*
X168147381Y-107849143D01*
X168147381Y-107658666D01*
X168099762Y-107563428D01*
X168052143Y-107515809D01*
X167956905Y-107468190D01*
X167766429Y-107468190D01*
X167671190Y-107515809D01*
X167623571Y-107563428D01*
X167575952Y-107658666D01*
X167147381Y-106611047D02*
X167147381Y-106801524D01*
X167195000Y-106896762D01*
X167242619Y-106944381D01*
X167385476Y-107039619D01*
X167575952Y-107087238D01*
X167956905Y-107087238D01*
X168052143Y-107039619D01*
X168099762Y-106992000D01*
X168147381Y-106896762D01*
X168147381Y-106706285D01*
X168099762Y-106611047D01*
X168052143Y-106563428D01*
X167956905Y-106515809D01*
X167718810Y-106515809D01*
X167623571Y-106563428D01*
X167575952Y-106611047D01*
X167528333Y-106706285D01*
X167528333Y-106896762D01*
X167575952Y-106992000D01*
X167623571Y-107039619D01*
X167718810Y-107087238D01*
X167575952Y-105944381D02*
X167528333Y-106039619D01*
X167480714Y-106087238D01*
X167385476Y-106134857D01*
X167337857Y-106134857D01*
X167242619Y-106087238D01*
X167195000Y-106039619D01*
X167147381Y-105944381D01*
X167147381Y-105753904D01*
X167195000Y-105658666D01*
X167242619Y-105611047D01*
X167337857Y-105563428D01*
X167385476Y-105563428D01*
X167480714Y-105611047D01*
X167528333Y-105658666D01*
X167575952Y-105753904D01*
X167575952Y-105944381D01*
X167623571Y-106039619D01*
X167671190Y-106087238D01*
X167766429Y-106134857D01*
X167956905Y-106134857D01*
X168052143Y-106087238D01*
X168099762Y-106039619D01*
X168147381Y-105944381D01*
X168147381Y-105753904D01*
X168099762Y-105658666D01*
X168052143Y-105611047D01*
X167956905Y-105563428D01*
X167766429Y-105563428D01*
X167671190Y-105611047D01*
X167623571Y-105658666D01*
X167575952Y-105753904D01*
X168099762Y-105182476D02*
X168147381Y-105039619D01*
X168147381Y-104801523D01*
X168099762Y-104706285D01*
X168052143Y-104658666D01*
X167956905Y-104611047D01*
X167861667Y-104611047D01*
X167766429Y-104658666D01*
X167718810Y-104706285D01*
X167671190Y-104801523D01*
X167623571Y-104992000D01*
X167575952Y-105087238D01*
X167528333Y-105134857D01*
X167433095Y-105182476D01*
X167337857Y-105182476D01*
X167242619Y-105134857D01*
X167195000Y-105087238D01*
X167147381Y-104992000D01*
X167147381Y-104753904D01*
X167195000Y-104611047D01*
X167242619Y-104230095D02*
X167195000Y-104182476D01*
X167147381Y-104087238D01*
X167147381Y-103849142D01*
X167195000Y-103753904D01*
X167242619Y-103706285D01*
X167337857Y-103658666D01*
X167433095Y-103658666D01*
X167575952Y-103706285D01*
X168147381Y-104277714D01*
X168147381Y-103658666D01*
X121683095Y-110244381D02*
X121683095Y-111053905D01*
X121730714Y-111149143D01*
X121778333Y-111196762D01*
X121873571Y-111244381D01*
X122064048Y-111244381D01*
X122159286Y-111196762D01*
X122206905Y-111149143D01*
X122254524Y-111053905D01*
X122254524Y-110244381D01*
X122635476Y-110244381D02*
X123302143Y-110244381D01*
X122873571Y-111244381D01*
M02*
