M48
;DRILL file {KiCad 4.0.7} date Monday, 02 July 2018 'PMt' 22:06:40
;FORMAT={-:-/ absolute / inch / decimal}
FMAT,2
INCH,TZ
T1C0.016
T2C0.018
T3C0.022
T4C0.033
T5C0.039
%
G90
G05
M72
T1
X4.7567Y-4.3245
X4.7577Y-4.2772
X5.1378Y-4.0551
X5.2301Y-4.1532
X5.2953Y-4.0748
X5.4978Y-4.0391
X5.5648Y-4.1985
X5.5884Y-3.982
X5.6104Y-4.1343
X5.6553Y-4.2517
X5.6848Y-4.2123
X5.7026Y-4.48
X5.7163Y-4.1749
X5.7537Y-4.1335
X5.8522Y-4.0469
X5.9518Y-3.9863
X6.0687Y-4.3619
X6.1199Y-4.2517
X6.1575Y-4.2126
X6.1986Y-4.2517
X6.3561Y-4.2517
X6.4348Y-4.2517
X6.553Y-4.2517
X6.6457Y-4.1585
X6.6457Y-4.2126
X6.6457Y-4.3307
X6.7126Y-4.3701
X6.7224Y-4.0256
X6.7311Y-4.102
X6.7311Y-4.1572
X6.7323Y-4.2717
X6.7913Y-4.2717
X6.7913Y-4.3701
T2
X5.8364Y-4.4328
X6.0343Y-4.419
X6.6022Y-4.2517
T3
X4.4685Y-4.1188
X4.4685Y-4.4239
T4
X4.6181Y-4.1247
X4.6181Y-4.418
T5
X5.5065Y-4.5666
X5.6065Y-4.5666
X5.7065Y-4.5666
X5.8065Y-4.5666
T0
M30
