G04 #@! TF.FileFunction,Copper,L2,Bot,Signal*
%FSLAX46Y46*%
G04 Gerber Fmt 4.6, Leading zero omitted, Abs format (unit mm)*
G04 Created by KiCad (PCBNEW 4.0.7) date Monday, 02 July 2018 'PMt' 22:06:38*
%MOMM*%
%LPD*%
G01*
G04 APERTURE LIST*
%ADD10C,0.100000*%
%ADD11O,2.400000X1.200000*%
%ADD12O,1.800000X0.900000*%
%ADD13R,4.064000X1.524000*%
%ADD14R,1.700000X1.700000*%
%ADD15O,1.700000X1.700000*%
%ADD16C,0.800000*%
%ADD17C,0.900000*%
%ADD18C,0.350000*%
%ADD19C,0.400000*%
%ADD20C,0.254000*%
G04 APERTURE END LIST*
D10*
D11*
X117300000Y-104767000D03*
X117300000Y-112217000D03*
D12*
X113500000Y-104617000D03*
X113500000Y-112367000D03*
D13*
X175468000Y-112240000D03*
X175468000Y-107160000D03*
D14*
X147485000Y-115992000D03*
D15*
X144945000Y-115992000D03*
X142405000Y-115992000D03*
X139865000Y-115992000D03*
D16*
X168800000Y-110000000D03*
X170500000Y-111000000D03*
X172500000Y-111000000D03*
X172500000Y-108500000D03*
X171000000Y-108500000D03*
X130500000Y-103000000D03*
X168800000Y-105625000D03*
X170750000Y-102250000D03*
X170970000Y-104192000D03*
X134500000Y-103500000D03*
X168800000Y-107000000D03*
X170970000Y-105592000D03*
X154145000Y-110792000D03*
X141345000Y-106642000D03*
X132845000Y-105492000D03*
D17*
X153270000Y-112242000D03*
X148245000Y-112592000D03*
X167695000Y-107992000D03*
D16*
X144845000Y-113792000D03*
X166445000Y-107992000D03*
X142505000Y-105012000D03*
X151175000Y-101252000D03*
X161445000Y-107992000D03*
X146145000Y-104992000D03*
X157445000Y-107992000D03*
X145195000Y-106042000D03*
X156400000Y-107000000D03*
X144395000Y-106992000D03*
X155445000Y-107992000D03*
X143645000Y-107992000D03*
X163445000Y-107992000D03*
X148645000Y-102792000D03*
X120845000Y-108642000D03*
X141945000Y-101142000D03*
X120820000Y-109842000D03*
X139645000Y-102592000D03*
D18*
X172500000Y-111000000D02*
X170500000Y-111000000D01*
X171000000Y-108500000D02*
X172500000Y-108500000D01*
X170970000Y-104192000D02*
X170970000Y-102470000D01*
X170970000Y-102470000D02*
X170750000Y-102250000D01*
X170970000Y-105592000D02*
X170970000Y-104192000D01*
D19*
X153270000Y-112242000D02*
X148595000Y-112242000D01*
X148595000Y-112242000D02*
X148245000Y-112592000D01*
X167320000Y-106392000D02*
X167695000Y-106767000D01*
X167695000Y-106767000D02*
X167695000Y-107992000D01*
X165595000Y-106392000D02*
X167320000Y-106392000D01*
X165095000Y-106892000D02*
X165595000Y-106392000D01*
X165095000Y-111317000D02*
X165095000Y-106892000D01*
X164170000Y-112242000D02*
X165095000Y-111317000D01*
X153270000Y-112242000D02*
X164170000Y-112242000D01*
D18*
X165745000Y-113792000D02*
X147495000Y-113792000D01*
X147495000Y-113792000D02*
X146195000Y-113792000D01*
X144845000Y-113792000D02*
X147495000Y-113792000D01*
X166445000Y-113092000D02*
X165745000Y-113792000D01*
X166445000Y-107992000D02*
X166445000Y-113092000D01*
X144000000Y-101252000D02*
X151175000Y-101252000D01*
X142505000Y-105012000D02*
X142505000Y-102747000D01*
X142505000Y-102747000D02*
X144000000Y-101252000D01*
X161445000Y-107992000D02*
X161445000Y-105742000D01*
X161445000Y-105742000D02*
X160695000Y-104992000D01*
X160695000Y-104992000D02*
X146145000Y-104992000D01*
X157445000Y-107992000D02*
X157445000Y-106442000D01*
X157045000Y-106042000D02*
X157445000Y-106442000D01*
X145195000Y-106042000D02*
X157045000Y-106042000D01*
X144395000Y-106992000D02*
X155900000Y-106992000D01*
X155900000Y-106992000D02*
X156095000Y-106992000D01*
X156400000Y-107000000D02*
X156392000Y-106992000D01*
X156392000Y-106992000D02*
X155900000Y-106992000D01*
X143645000Y-107992000D02*
X154195000Y-107992000D01*
X154195000Y-107992000D02*
X154495000Y-107992000D01*
X155445000Y-107992000D02*
X154195000Y-107992000D01*
X163445000Y-105900000D02*
X163445000Y-107992000D01*
X162842000Y-102792000D02*
X163445000Y-103395000D01*
X163445000Y-103395000D02*
X163445000Y-105900000D01*
X148645000Y-102792000D02*
X162842000Y-102792000D01*
X138475000Y-107942000D02*
X137775000Y-108642000D01*
X137775000Y-108642000D02*
X120845000Y-108642000D01*
X138475000Y-101602000D02*
X138475000Y-107942000D01*
X138935000Y-101142000D02*
X138475000Y-101602000D01*
X141945000Y-101142000D02*
X138935000Y-101142000D01*
X138820000Y-109842000D02*
X139645000Y-109017000D01*
X139645000Y-109017000D02*
X139645000Y-102592000D01*
X120820000Y-109842000D02*
X138820000Y-109842000D01*
D20*
G36*
X168790000Y-100500000D02*
X168844046Y-100771705D01*
X168997954Y-101002046D01*
X169228295Y-101155954D01*
X169500000Y-101210000D01*
X178290000Y-101210000D01*
X178290000Y-103740000D01*
X177400000Y-103740000D01*
X177128295Y-103794046D01*
X176897954Y-103947954D01*
X176744046Y-104178295D01*
X176690000Y-104450000D01*
X176690000Y-105763000D01*
X175753750Y-105763000D01*
X175595000Y-105921750D01*
X175595000Y-107033000D01*
X175615000Y-107033000D01*
X175615000Y-107287000D01*
X175595000Y-107287000D01*
X175595000Y-108398250D01*
X175753750Y-108557000D01*
X176690000Y-108557000D01*
X176690000Y-110843000D01*
X175753750Y-110843000D01*
X175595000Y-111001750D01*
X175595000Y-112113000D01*
X175615000Y-112113000D01*
X175615000Y-112367000D01*
X175595000Y-112367000D01*
X175595000Y-113478250D01*
X175753750Y-113637000D01*
X176690000Y-113637000D01*
X176690000Y-115000000D01*
X176744046Y-115271705D01*
X176897954Y-115502046D01*
X177128295Y-115655954D01*
X177400000Y-115710000D01*
X178290000Y-115710000D01*
X178290000Y-117290000D01*
X169500000Y-117290000D01*
X169228295Y-117344046D01*
X168997954Y-117497954D01*
X168844046Y-117728295D01*
X168790000Y-118000000D01*
X168790000Y-127790000D01*
X121210000Y-127790000D01*
X121210000Y-118000000D01*
X121155954Y-117728295D01*
X121002046Y-117497954D01*
X120771705Y-117344046D01*
X120500000Y-117290000D01*
X111710000Y-117290000D01*
X111710000Y-116348892D01*
X138423514Y-116348892D01*
X138669817Y-116873358D01*
X139098076Y-117263645D01*
X139508110Y-117433476D01*
X139738000Y-117312155D01*
X139738000Y-116119000D01*
X138544181Y-116119000D01*
X138423514Y-116348892D01*
X111710000Y-116348892D01*
X111710000Y-115635108D01*
X138423514Y-115635108D01*
X138544181Y-115865000D01*
X139738000Y-115865000D01*
X139738000Y-114671845D01*
X139508110Y-114550524D01*
X139098076Y-114720355D01*
X138669817Y-115110642D01*
X138423514Y-115635108D01*
X111710000Y-115635108D01*
X111710000Y-112367000D01*
X111934928Y-112367000D01*
X112017519Y-112782212D01*
X112252717Y-113134211D01*
X112604716Y-113369409D01*
X113019928Y-113452000D01*
X113980072Y-113452000D01*
X114395284Y-113369409D01*
X114747283Y-113134211D01*
X114982481Y-112782212D01*
X115065072Y-112367000D01*
X114982481Y-111951788D01*
X114747283Y-111599789D01*
X114395284Y-111364591D01*
X113980072Y-111282000D01*
X113019928Y-111282000D01*
X112604716Y-111364591D01*
X112252717Y-111599789D01*
X112017519Y-111951788D01*
X111934928Y-112367000D01*
X111710000Y-112367000D01*
X111710000Y-111196971D01*
X115214821Y-111196971D01*
X115372058Y-111577515D01*
X115529306Y-111735037D01*
X115523059Y-111744386D01*
X115429050Y-112217000D01*
X115523059Y-112689614D01*
X115790773Y-113090277D01*
X116191436Y-113357991D01*
X116664050Y-113452000D01*
X117935950Y-113452000D01*
X118408564Y-113357991D01*
X118809227Y-113090277D01*
X119076941Y-112689614D01*
X119170950Y-112217000D01*
X119076941Y-111744386D01*
X118809227Y-111343723D01*
X118408564Y-111076009D01*
X117935950Y-110982000D01*
X117285009Y-110982000D01*
X117285179Y-110787029D01*
X117127942Y-110406485D01*
X116837046Y-110115081D01*
X116673019Y-110046971D01*
X119784821Y-110046971D01*
X119942058Y-110427515D01*
X120232954Y-110718919D01*
X120613223Y-110876820D01*
X121024971Y-110877179D01*
X121405515Y-110719942D01*
X121473576Y-110652000D01*
X138820000Y-110652000D01*
X139129974Y-110590342D01*
X139392756Y-110414756D01*
X140217756Y-109589757D01*
X140309803Y-109451999D01*
X140393342Y-109326974D01*
X140455000Y-109017000D01*
X140455000Y-103245848D01*
X140521919Y-103179046D01*
X140679820Y-102798777D01*
X140680179Y-102387029D01*
X140522942Y-102006485D01*
X140468552Y-101952000D01*
X141291152Y-101952000D01*
X141357954Y-102018919D01*
X141738223Y-102176820D01*
X141930411Y-102176988D01*
X141756658Y-102437026D01*
X141695000Y-102747000D01*
X141695000Y-104358152D01*
X141628081Y-104424954D01*
X141470180Y-104805223D01*
X141469821Y-105216971D01*
X141627058Y-105597515D01*
X141917954Y-105888919D01*
X142298223Y-106046820D01*
X142709971Y-106047179D01*
X143090515Y-105889942D01*
X143381919Y-105599046D01*
X143539820Y-105218777D01*
X143540179Y-104807029D01*
X143382942Y-104426485D01*
X143315000Y-104358424D01*
X143315000Y-103082512D01*
X144335513Y-102062000D01*
X147911285Y-102062000D01*
X147768081Y-102204954D01*
X147610180Y-102585223D01*
X147609821Y-102996971D01*
X147767058Y-103377515D01*
X148057954Y-103668919D01*
X148438223Y-103826820D01*
X148849971Y-103827179D01*
X149230515Y-103669942D01*
X149298576Y-103602000D01*
X162506488Y-103602000D01*
X162635000Y-103730513D01*
X162635000Y-107338152D01*
X162568081Y-107404954D01*
X162444892Y-107701627D01*
X162322942Y-107406485D01*
X162255000Y-107338424D01*
X162255000Y-105742000D01*
X162193342Y-105432026D01*
X162059689Y-105232001D01*
X162017756Y-105169243D01*
X161267756Y-104419244D01*
X161246370Y-104404954D01*
X161004974Y-104243658D01*
X160695000Y-104182000D01*
X146798848Y-104182000D01*
X146732046Y-104115081D01*
X146351777Y-103957180D01*
X145940029Y-103956821D01*
X145559485Y-104114058D01*
X145268081Y-104404954D01*
X145110180Y-104785223D01*
X145109987Y-105006926D01*
X144990029Y-105006821D01*
X144609485Y-105164058D01*
X144318081Y-105454954D01*
X144160180Y-105835223D01*
X144160063Y-105969203D01*
X143809485Y-106114058D01*
X143518081Y-106404954D01*
X143360180Y-106785223D01*
X143360002Y-106989888D01*
X143059485Y-107114058D01*
X142768081Y-107404954D01*
X142610180Y-107785223D01*
X142609821Y-108196971D01*
X142767058Y-108577515D01*
X143057954Y-108868919D01*
X143438223Y-109026820D01*
X143849971Y-109027179D01*
X144230515Y-108869942D01*
X144298576Y-108802000D01*
X154791152Y-108802000D01*
X154857954Y-108868919D01*
X155238223Y-109026820D01*
X155649971Y-109027179D01*
X156030515Y-108869942D01*
X156321919Y-108579046D01*
X156445108Y-108282373D01*
X156567058Y-108577515D01*
X156857954Y-108868919D01*
X157238223Y-109026820D01*
X157649971Y-109027179D01*
X158030515Y-108869942D01*
X158321919Y-108579046D01*
X158479820Y-108198777D01*
X158480179Y-107787029D01*
X158322942Y-107406485D01*
X158255000Y-107338424D01*
X158255000Y-106442000D01*
X158193342Y-106132026D01*
X158076513Y-105957180D01*
X158017756Y-105869243D01*
X157950513Y-105802000D01*
X160359488Y-105802000D01*
X160635000Y-106077513D01*
X160635000Y-107338152D01*
X160568081Y-107404954D01*
X160410180Y-107785223D01*
X160409821Y-108196971D01*
X160567058Y-108577515D01*
X160857954Y-108868919D01*
X161238223Y-109026820D01*
X161649971Y-109027179D01*
X162030515Y-108869942D01*
X162321919Y-108579046D01*
X162445108Y-108282373D01*
X162567058Y-108577515D01*
X162857954Y-108868919D01*
X163238223Y-109026820D01*
X163649971Y-109027179D01*
X164030515Y-108869942D01*
X164260000Y-108640857D01*
X164260000Y-110971132D01*
X163824132Y-111407000D01*
X153969540Y-111407000D01*
X153885405Y-111322718D01*
X153486767Y-111157189D01*
X153055127Y-111156812D01*
X152656200Y-111321646D01*
X152570697Y-111407000D01*
X148595000Y-111407000D01*
X148275460Y-111470560D01*
X148220956Y-111506979D01*
X148030127Y-111506812D01*
X147631200Y-111671646D01*
X147325718Y-111976595D01*
X147160189Y-112375233D01*
X147159812Y-112806873D01*
X147232173Y-112982000D01*
X145498848Y-112982000D01*
X145432046Y-112915081D01*
X145051777Y-112757180D01*
X144640029Y-112756821D01*
X144259485Y-112914058D01*
X143968081Y-113204954D01*
X143810180Y-113585223D01*
X143809821Y-113996971D01*
X143967058Y-114377515D01*
X144257954Y-114668919D01*
X144259228Y-114669448D01*
X143894946Y-114912853D01*
X143675000Y-115242026D01*
X143455054Y-114912853D01*
X142973285Y-114590946D01*
X142405000Y-114477907D01*
X141836715Y-114590946D01*
X141354946Y-114912853D01*
X141127298Y-115253553D01*
X141060183Y-115110642D01*
X140631924Y-114720355D01*
X140221890Y-114550524D01*
X139992000Y-114671845D01*
X139992000Y-115865000D01*
X140012000Y-115865000D01*
X140012000Y-116119000D01*
X139992000Y-116119000D01*
X139992000Y-117312155D01*
X140221890Y-117433476D01*
X140631924Y-117263645D01*
X141060183Y-116873358D01*
X141127298Y-116730447D01*
X141354946Y-117071147D01*
X141836715Y-117393054D01*
X142405000Y-117506093D01*
X142973285Y-117393054D01*
X143455054Y-117071147D01*
X143675000Y-116741974D01*
X143894946Y-117071147D01*
X144376715Y-117393054D01*
X144945000Y-117506093D01*
X145513285Y-117393054D01*
X145995054Y-117071147D01*
X146022850Y-117029548D01*
X146031838Y-117077317D01*
X146170910Y-117293441D01*
X146383110Y-117438431D01*
X146635000Y-117489440D01*
X148335000Y-117489440D01*
X148570317Y-117445162D01*
X148786441Y-117306090D01*
X148931431Y-117093890D01*
X148982440Y-116842000D01*
X148982440Y-115142000D01*
X148938162Y-114906683D01*
X148799090Y-114690559D01*
X148669480Y-114602000D01*
X165745000Y-114602000D01*
X166054974Y-114540342D01*
X166317756Y-114364756D01*
X167017756Y-113664757D01*
X167139852Y-113482027D01*
X167193342Y-113401974D01*
X167255000Y-113092000D01*
X167255000Y-112525750D01*
X172801000Y-112525750D01*
X172801000Y-113128309D01*
X172897673Y-113361698D01*
X173076301Y-113540327D01*
X173309690Y-113637000D01*
X175182250Y-113637000D01*
X175341000Y-113478250D01*
X175341000Y-112367000D01*
X172959750Y-112367000D01*
X172801000Y-112525750D01*
X167255000Y-112525750D01*
X167255000Y-111351691D01*
X172801000Y-111351691D01*
X172801000Y-111954250D01*
X172959750Y-112113000D01*
X175341000Y-112113000D01*
X175341000Y-111001750D01*
X175182250Y-110843000D01*
X173309690Y-110843000D01*
X173076301Y-110939673D01*
X172897673Y-111118302D01*
X172801000Y-111351691D01*
X167255000Y-111351691D01*
X167255000Y-108984117D01*
X167478233Y-109076811D01*
X167909873Y-109077188D01*
X168308800Y-108912354D01*
X168614282Y-108607405D01*
X168779811Y-108208767D01*
X168780188Y-107777127D01*
X168643266Y-107445750D01*
X172801000Y-107445750D01*
X172801000Y-108048309D01*
X172897673Y-108281698D01*
X173076301Y-108460327D01*
X173309690Y-108557000D01*
X175182250Y-108557000D01*
X175341000Y-108398250D01*
X175341000Y-107287000D01*
X172959750Y-107287000D01*
X172801000Y-107445750D01*
X168643266Y-107445750D01*
X168615354Y-107378200D01*
X168530000Y-107292697D01*
X168530000Y-106767000D01*
X168466439Y-106447459D01*
X168348995Y-106271691D01*
X172801000Y-106271691D01*
X172801000Y-106874250D01*
X172959750Y-107033000D01*
X175341000Y-107033000D01*
X175341000Y-105921750D01*
X175182250Y-105763000D01*
X173309690Y-105763000D01*
X173076301Y-105859673D01*
X172897673Y-106038302D01*
X172801000Y-106271691D01*
X168348995Y-106271691D01*
X168285434Y-106176566D01*
X167910434Y-105801566D01*
X167818806Y-105740342D01*
X167639541Y-105620561D01*
X167320000Y-105557000D01*
X165595000Y-105557000D01*
X165275460Y-105620560D01*
X165004566Y-105801566D01*
X164504566Y-106301566D01*
X164323561Y-106572459D01*
X164260000Y-106892000D01*
X164260000Y-107343433D01*
X164255000Y-107338424D01*
X164255000Y-103395000D01*
X164212044Y-103179046D01*
X164193343Y-103085027D01*
X164017757Y-102822244D01*
X163414756Y-102219244D01*
X163393370Y-102204954D01*
X163151974Y-102043658D01*
X162842000Y-101982000D01*
X151908715Y-101982000D01*
X152051919Y-101839046D01*
X152209820Y-101458777D01*
X152210179Y-101047029D01*
X152052942Y-100666485D01*
X151762046Y-100375081D01*
X151381777Y-100217180D01*
X150970029Y-100216821D01*
X150589485Y-100374058D01*
X150521424Y-100442000D01*
X144000000Y-100442000D01*
X143690026Y-100503658D01*
X143591870Y-100569244D01*
X143427243Y-100679244D01*
X142980014Y-101126473D01*
X142980179Y-100937029D01*
X142822942Y-100556485D01*
X142532046Y-100265081D01*
X142151777Y-100107180D01*
X141740029Y-100106821D01*
X141359485Y-100264058D01*
X141291424Y-100332000D01*
X138935000Y-100332000D01*
X138625026Y-100393658D01*
X138552676Y-100442001D01*
X138362243Y-100569244D01*
X137902244Y-101029244D01*
X137726658Y-101292026D01*
X137665000Y-101602000D01*
X137665000Y-107606487D01*
X137439488Y-107832000D01*
X121498848Y-107832000D01*
X121432046Y-107765081D01*
X121051777Y-107607180D01*
X120640029Y-107606821D01*
X120259485Y-107764058D01*
X119968081Y-108054954D01*
X119810180Y-108435223D01*
X119809821Y-108846971D01*
X119967058Y-109227515D01*
X119968810Y-109229270D01*
X119943081Y-109254954D01*
X119785180Y-109635223D01*
X119784821Y-110046971D01*
X116673019Y-110046971D01*
X116456777Y-109957180D01*
X116045029Y-109956821D01*
X115664485Y-110114058D01*
X115373081Y-110404954D01*
X115215180Y-110785223D01*
X115214821Y-111196971D01*
X111710000Y-111196971D01*
X111710000Y-106196971D01*
X115214821Y-106196971D01*
X115372058Y-106577515D01*
X115662954Y-106868919D01*
X116043223Y-107026820D01*
X116454971Y-107027179D01*
X116835515Y-106869942D01*
X117126919Y-106579046D01*
X117284820Y-106198777D01*
X117284992Y-106002000D01*
X117935950Y-106002000D01*
X118408564Y-105907991D01*
X118809227Y-105640277D01*
X119076941Y-105239614D01*
X119170950Y-104767000D01*
X119076941Y-104294386D01*
X118809227Y-103893723D01*
X118408564Y-103626009D01*
X117935950Y-103532000D01*
X116664050Y-103532000D01*
X116191436Y-103626009D01*
X115790773Y-103893723D01*
X115523059Y-104294386D01*
X115429050Y-104767000D01*
X115523059Y-105239614D01*
X115529321Y-105248986D01*
X115373081Y-105404954D01*
X115215180Y-105785223D01*
X115214821Y-106196971D01*
X111710000Y-106196971D01*
X111710000Y-104617000D01*
X111934928Y-104617000D01*
X112017519Y-105032212D01*
X112252717Y-105384211D01*
X112604716Y-105619409D01*
X113019928Y-105702000D01*
X113980072Y-105702000D01*
X114395284Y-105619409D01*
X114747283Y-105384211D01*
X114982481Y-105032212D01*
X115065072Y-104617000D01*
X114982481Y-104201788D01*
X114747283Y-103849789D01*
X114395284Y-103614591D01*
X113980072Y-103532000D01*
X113019928Y-103532000D01*
X112604716Y-103614591D01*
X112252717Y-103849789D01*
X112017519Y-104201788D01*
X111934928Y-104617000D01*
X111710000Y-104617000D01*
X111710000Y-101210000D01*
X120500000Y-101210000D01*
X120771705Y-101155954D01*
X121002046Y-101002046D01*
X121155954Y-100771705D01*
X121210000Y-100500000D01*
X121210000Y-95710000D01*
X168790000Y-95710000D01*
X168790000Y-100500000D01*
X168790000Y-100500000D01*
G37*
X168790000Y-100500000D02*
X168844046Y-100771705D01*
X168997954Y-101002046D01*
X169228295Y-101155954D01*
X169500000Y-101210000D01*
X178290000Y-101210000D01*
X178290000Y-103740000D01*
X177400000Y-103740000D01*
X177128295Y-103794046D01*
X176897954Y-103947954D01*
X176744046Y-104178295D01*
X176690000Y-104450000D01*
X176690000Y-105763000D01*
X175753750Y-105763000D01*
X175595000Y-105921750D01*
X175595000Y-107033000D01*
X175615000Y-107033000D01*
X175615000Y-107287000D01*
X175595000Y-107287000D01*
X175595000Y-108398250D01*
X175753750Y-108557000D01*
X176690000Y-108557000D01*
X176690000Y-110843000D01*
X175753750Y-110843000D01*
X175595000Y-111001750D01*
X175595000Y-112113000D01*
X175615000Y-112113000D01*
X175615000Y-112367000D01*
X175595000Y-112367000D01*
X175595000Y-113478250D01*
X175753750Y-113637000D01*
X176690000Y-113637000D01*
X176690000Y-115000000D01*
X176744046Y-115271705D01*
X176897954Y-115502046D01*
X177128295Y-115655954D01*
X177400000Y-115710000D01*
X178290000Y-115710000D01*
X178290000Y-117290000D01*
X169500000Y-117290000D01*
X169228295Y-117344046D01*
X168997954Y-117497954D01*
X168844046Y-117728295D01*
X168790000Y-118000000D01*
X168790000Y-127790000D01*
X121210000Y-127790000D01*
X121210000Y-118000000D01*
X121155954Y-117728295D01*
X121002046Y-117497954D01*
X120771705Y-117344046D01*
X120500000Y-117290000D01*
X111710000Y-117290000D01*
X111710000Y-116348892D01*
X138423514Y-116348892D01*
X138669817Y-116873358D01*
X139098076Y-117263645D01*
X139508110Y-117433476D01*
X139738000Y-117312155D01*
X139738000Y-116119000D01*
X138544181Y-116119000D01*
X138423514Y-116348892D01*
X111710000Y-116348892D01*
X111710000Y-115635108D01*
X138423514Y-115635108D01*
X138544181Y-115865000D01*
X139738000Y-115865000D01*
X139738000Y-114671845D01*
X139508110Y-114550524D01*
X139098076Y-114720355D01*
X138669817Y-115110642D01*
X138423514Y-115635108D01*
X111710000Y-115635108D01*
X111710000Y-112367000D01*
X111934928Y-112367000D01*
X112017519Y-112782212D01*
X112252717Y-113134211D01*
X112604716Y-113369409D01*
X113019928Y-113452000D01*
X113980072Y-113452000D01*
X114395284Y-113369409D01*
X114747283Y-113134211D01*
X114982481Y-112782212D01*
X115065072Y-112367000D01*
X114982481Y-111951788D01*
X114747283Y-111599789D01*
X114395284Y-111364591D01*
X113980072Y-111282000D01*
X113019928Y-111282000D01*
X112604716Y-111364591D01*
X112252717Y-111599789D01*
X112017519Y-111951788D01*
X111934928Y-112367000D01*
X111710000Y-112367000D01*
X111710000Y-111196971D01*
X115214821Y-111196971D01*
X115372058Y-111577515D01*
X115529306Y-111735037D01*
X115523059Y-111744386D01*
X115429050Y-112217000D01*
X115523059Y-112689614D01*
X115790773Y-113090277D01*
X116191436Y-113357991D01*
X116664050Y-113452000D01*
X117935950Y-113452000D01*
X118408564Y-113357991D01*
X118809227Y-113090277D01*
X119076941Y-112689614D01*
X119170950Y-112217000D01*
X119076941Y-111744386D01*
X118809227Y-111343723D01*
X118408564Y-111076009D01*
X117935950Y-110982000D01*
X117285009Y-110982000D01*
X117285179Y-110787029D01*
X117127942Y-110406485D01*
X116837046Y-110115081D01*
X116673019Y-110046971D01*
X119784821Y-110046971D01*
X119942058Y-110427515D01*
X120232954Y-110718919D01*
X120613223Y-110876820D01*
X121024971Y-110877179D01*
X121405515Y-110719942D01*
X121473576Y-110652000D01*
X138820000Y-110652000D01*
X139129974Y-110590342D01*
X139392756Y-110414756D01*
X140217756Y-109589757D01*
X140309803Y-109451999D01*
X140393342Y-109326974D01*
X140455000Y-109017000D01*
X140455000Y-103245848D01*
X140521919Y-103179046D01*
X140679820Y-102798777D01*
X140680179Y-102387029D01*
X140522942Y-102006485D01*
X140468552Y-101952000D01*
X141291152Y-101952000D01*
X141357954Y-102018919D01*
X141738223Y-102176820D01*
X141930411Y-102176988D01*
X141756658Y-102437026D01*
X141695000Y-102747000D01*
X141695000Y-104358152D01*
X141628081Y-104424954D01*
X141470180Y-104805223D01*
X141469821Y-105216971D01*
X141627058Y-105597515D01*
X141917954Y-105888919D01*
X142298223Y-106046820D01*
X142709971Y-106047179D01*
X143090515Y-105889942D01*
X143381919Y-105599046D01*
X143539820Y-105218777D01*
X143540179Y-104807029D01*
X143382942Y-104426485D01*
X143315000Y-104358424D01*
X143315000Y-103082512D01*
X144335513Y-102062000D01*
X147911285Y-102062000D01*
X147768081Y-102204954D01*
X147610180Y-102585223D01*
X147609821Y-102996971D01*
X147767058Y-103377515D01*
X148057954Y-103668919D01*
X148438223Y-103826820D01*
X148849971Y-103827179D01*
X149230515Y-103669942D01*
X149298576Y-103602000D01*
X162506488Y-103602000D01*
X162635000Y-103730513D01*
X162635000Y-107338152D01*
X162568081Y-107404954D01*
X162444892Y-107701627D01*
X162322942Y-107406485D01*
X162255000Y-107338424D01*
X162255000Y-105742000D01*
X162193342Y-105432026D01*
X162059689Y-105232001D01*
X162017756Y-105169243D01*
X161267756Y-104419244D01*
X161246370Y-104404954D01*
X161004974Y-104243658D01*
X160695000Y-104182000D01*
X146798848Y-104182000D01*
X146732046Y-104115081D01*
X146351777Y-103957180D01*
X145940029Y-103956821D01*
X145559485Y-104114058D01*
X145268081Y-104404954D01*
X145110180Y-104785223D01*
X145109987Y-105006926D01*
X144990029Y-105006821D01*
X144609485Y-105164058D01*
X144318081Y-105454954D01*
X144160180Y-105835223D01*
X144160063Y-105969203D01*
X143809485Y-106114058D01*
X143518081Y-106404954D01*
X143360180Y-106785223D01*
X143360002Y-106989888D01*
X143059485Y-107114058D01*
X142768081Y-107404954D01*
X142610180Y-107785223D01*
X142609821Y-108196971D01*
X142767058Y-108577515D01*
X143057954Y-108868919D01*
X143438223Y-109026820D01*
X143849971Y-109027179D01*
X144230515Y-108869942D01*
X144298576Y-108802000D01*
X154791152Y-108802000D01*
X154857954Y-108868919D01*
X155238223Y-109026820D01*
X155649971Y-109027179D01*
X156030515Y-108869942D01*
X156321919Y-108579046D01*
X156445108Y-108282373D01*
X156567058Y-108577515D01*
X156857954Y-108868919D01*
X157238223Y-109026820D01*
X157649971Y-109027179D01*
X158030515Y-108869942D01*
X158321919Y-108579046D01*
X158479820Y-108198777D01*
X158480179Y-107787029D01*
X158322942Y-107406485D01*
X158255000Y-107338424D01*
X158255000Y-106442000D01*
X158193342Y-106132026D01*
X158076513Y-105957180D01*
X158017756Y-105869243D01*
X157950513Y-105802000D01*
X160359488Y-105802000D01*
X160635000Y-106077513D01*
X160635000Y-107338152D01*
X160568081Y-107404954D01*
X160410180Y-107785223D01*
X160409821Y-108196971D01*
X160567058Y-108577515D01*
X160857954Y-108868919D01*
X161238223Y-109026820D01*
X161649971Y-109027179D01*
X162030515Y-108869942D01*
X162321919Y-108579046D01*
X162445108Y-108282373D01*
X162567058Y-108577515D01*
X162857954Y-108868919D01*
X163238223Y-109026820D01*
X163649971Y-109027179D01*
X164030515Y-108869942D01*
X164260000Y-108640857D01*
X164260000Y-110971132D01*
X163824132Y-111407000D01*
X153969540Y-111407000D01*
X153885405Y-111322718D01*
X153486767Y-111157189D01*
X153055127Y-111156812D01*
X152656200Y-111321646D01*
X152570697Y-111407000D01*
X148595000Y-111407000D01*
X148275460Y-111470560D01*
X148220956Y-111506979D01*
X148030127Y-111506812D01*
X147631200Y-111671646D01*
X147325718Y-111976595D01*
X147160189Y-112375233D01*
X147159812Y-112806873D01*
X147232173Y-112982000D01*
X145498848Y-112982000D01*
X145432046Y-112915081D01*
X145051777Y-112757180D01*
X144640029Y-112756821D01*
X144259485Y-112914058D01*
X143968081Y-113204954D01*
X143810180Y-113585223D01*
X143809821Y-113996971D01*
X143967058Y-114377515D01*
X144257954Y-114668919D01*
X144259228Y-114669448D01*
X143894946Y-114912853D01*
X143675000Y-115242026D01*
X143455054Y-114912853D01*
X142973285Y-114590946D01*
X142405000Y-114477907D01*
X141836715Y-114590946D01*
X141354946Y-114912853D01*
X141127298Y-115253553D01*
X141060183Y-115110642D01*
X140631924Y-114720355D01*
X140221890Y-114550524D01*
X139992000Y-114671845D01*
X139992000Y-115865000D01*
X140012000Y-115865000D01*
X140012000Y-116119000D01*
X139992000Y-116119000D01*
X139992000Y-117312155D01*
X140221890Y-117433476D01*
X140631924Y-117263645D01*
X141060183Y-116873358D01*
X141127298Y-116730447D01*
X141354946Y-117071147D01*
X141836715Y-117393054D01*
X142405000Y-117506093D01*
X142973285Y-117393054D01*
X143455054Y-117071147D01*
X143675000Y-116741974D01*
X143894946Y-117071147D01*
X144376715Y-117393054D01*
X144945000Y-117506093D01*
X145513285Y-117393054D01*
X145995054Y-117071147D01*
X146022850Y-117029548D01*
X146031838Y-117077317D01*
X146170910Y-117293441D01*
X146383110Y-117438431D01*
X146635000Y-117489440D01*
X148335000Y-117489440D01*
X148570317Y-117445162D01*
X148786441Y-117306090D01*
X148931431Y-117093890D01*
X148982440Y-116842000D01*
X148982440Y-115142000D01*
X148938162Y-114906683D01*
X148799090Y-114690559D01*
X148669480Y-114602000D01*
X165745000Y-114602000D01*
X166054974Y-114540342D01*
X166317756Y-114364756D01*
X167017756Y-113664757D01*
X167139852Y-113482027D01*
X167193342Y-113401974D01*
X167255000Y-113092000D01*
X167255000Y-112525750D01*
X172801000Y-112525750D01*
X172801000Y-113128309D01*
X172897673Y-113361698D01*
X173076301Y-113540327D01*
X173309690Y-113637000D01*
X175182250Y-113637000D01*
X175341000Y-113478250D01*
X175341000Y-112367000D01*
X172959750Y-112367000D01*
X172801000Y-112525750D01*
X167255000Y-112525750D01*
X167255000Y-111351691D01*
X172801000Y-111351691D01*
X172801000Y-111954250D01*
X172959750Y-112113000D01*
X175341000Y-112113000D01*
X175341000Y-111001750D01*
X175182250Y-110843000D01*
X173309690Y-110843000D01*
X173076301Y-110939673D01*
X172897673Y-111118302D01*
X172801000Y-111351691D01*
X167255000Y-111351691D01*
X167255000Y-108984117D01*
X167478233Y-109076811D01*
X167909873Y-109077188D01*
X168308800Y-108912354D01*
X168614282Y-108607405D01*
X168779811Y-108208767D01*
X168780188Y-107777127D01*
X168643266Y-107445750D01*
X172801000Y-107445750D01*
X172801000Y-108048309D01*
X172897673Y-108281698D01*
X173076301Y-108460327D01*
X173309690Y-108557000D01*
X175182250Y-108557000D01*
X175341000Y-108398250D01*
X175341000Y-107287000D01*
X172959750Y-107287000D01*
X172801000Y-107445750D01*
X168643266Y-107445750D01*
X168615354Y-107378200D01*
X168530000Y-107292697D01*
X168530000Y-106767000D01*
X168466439Y-106447459D01*
X168348995Y-106271691D01*
X172801000Y-106271691D01*
X172801000Y-106874250D01*
X172959750Y-107033000D01*
X175341000Y-107033000D01*
X175341000Y-105921750D01*
X175182250Y-105763000D01*
X173309690Y-105763000D01*
X173076301Y-105859673D01*
X172897673Y-106038302D01*
X172801000Y-106271691D01*
X168348995Y-106271691D01*
X168285434Y-106176566D01*
X167910434Y-105801566D01*
X167818806Y-105740342D01*
X167639541Y-105620561D01*
X167320000Y-105557000D01*
X165595000Y-105557000D01*
X165275460Y-105620560D01*
X165004566Y-105801566D01*
X164504566Y-106301566D01*
X164323561Y-106572459D01*
X164260000Y-106892000D01*
X164260000Y-107343433D01*
X164255000Y-107338424D01*
X164255000Y-103395000D01*
X164212044Y-103179046D01*
X164193343Y-103085027D01*
X164017757Y-102822244D01*
X163414756Y-102219244D01*
X163393370Y-102204954D01*
X163151974Y-102043658D01*
X162842000Y-101982000D01*
X151908715Y-101982000D01*
X152051919Y-101839046D01*
X152209820Y-101458777D01*
X152210179Y-101047029D01*
X152052942Y-100666485D01*
X151762046Y-100375081D01*
X151381777Y-100217180D01*
X150970029Y-100216821D01*
X150589485Y-100374058D01*
X150521424Y-100442000D01*
X144000000Y-100442000D01*
X143690026Y-100503658D01*
X143591870Y-100569244D01*
X143427243Y-100679244D01*
X142980014Y-101126473D01*
X142980179Y-100937029D01*
X142822942Y-100556485D01*
X142532046Y-100265081D01*
X142151777Y-100107180D01*
X141740029Y-100106821D01*
X141359485Y-100264058D01*
X141291424Y-100332000D01*
X138935000Y-100332000D01*
X138625026Y-100393658D01*
X138552676Y-100442001D01*
X138362243Y-100569244D01*
X137902244Y-101029244D01*
X137726658Y-101292026D01*
X137665000Y-101602000D01*
X137665000Y-107606487D01*
X137439488Y-107832000D01*
X121498848Y-107832000D01*
X121432046Y-107765081D01*
X121051777Y-107607180D01*
X120640029Y-107606821D01*
X120259485Y-107764058D01*
X119968081Y-108054954D01*
X119810180Y-108435223D01*
X119809821Y-108846971D01*
X119967058Y-109227515D01*
X119968810Y-109229270D01*
X119943081Y-109254954D01*
X119785180Y-109635223D01*
X119784821Y-110046971D01*
X116673019Y-110046971D01*
X116456777Y-109957180D01*
X116045029Y-109956821D01*
X115664485Y-110114058D01*
X115373081Y-110404954D01*
X115215180Y-110785223D01*
X115214821Y-111196971D01*
X111710000Y-111196971D01*
X111710000Y-106196971D01*
X115214821Y-106196971D01*
X115372058Y-106577515D01*
X115662954Y-106868919D01*
X116043223Y-107026820D01*
X116454971Y-107027179D01*
X116835515Y-106869942D01*
X117126919Y-106579046D01*
X117284820Y-106198777D01*
X117284992Y-106002000D01*
X117935950Y-106002000D01*
X118408564Y-105907991D01*
X118809227Y-105640277D01*
X119076941Y-105239614D01*
X119170950Y-104767000D01*
X119076941Y-104294386D01*
X118809227Y-103893723D01*
X118408564Y-103626009D01*
X117935950Y-103532000D01*
X116664050Y-103532000D01*
X116191436Y-103626009D01*
X115790773Y-103893723D01*
X115523059Y-104294386D01*
X115429050Y-104767000D01*
X115523059Y-105239614D01*
X115529321Y-105248986D01*
X115373081Y-105404954D01*
X115215180Y-105785223D01*
X115214821Y-106196971D01*
X111710000Y-106196971D01*
X111710000Y-104617000D01*
X111934928Y-104617000D01*
X112017519Y-105032212D01*
X112252717Y-105384211D01*
X112604716Y-105619409D01*
X113019928Y-105702000D01*
X113980072Y-105702000D01*
X114395284Y-105619409D01*
X114747283Y-105384211D01*
X114982481Y-105032212D01*
X115065072Y-104617000D01*
X114982481Y-104201788D01*
X114747283Y-103849789D01*
X114395284Y-103614591D01*
X113980072Y-103532000D01*
X113019928Y-103532000D01*
X112604716Y-103614591D01*
X112252717Y-103849789D01*
X112017519Y-104201788D01*
X111934928Y-104617000D01*
X111710000Y-104617000D01*
X111710000Y-101210000D01*
X120500000Y-101210000D01*
X120771705Y-101155954D01*
X121002046Y-101002046D01*
X121155954Y-100771705D01*
X121210000Y-100500000D01*
X121210000Y-95710000D01*
X168790000Y-95710000D01*
X168790000Y-100500000D01*
M02*
